<svg width="204" height="20" viewBox="0 0 204 20" fill="none" xmlns="http://www.w3.org/2000/svg">
<path d="M0 10.0139C0 8.0853 0.417415 6.36996 1.25225 4.86787C2.08708 3.34724 3.24656 2.16968 4.73071 1.33519C6.2334 0.48215 7.93089 0.0556317 9.82318 0.0556317C12.1421 0.0556317 14.1272 0.667593 15.7783 1.89151C17.4294 3.11544 18.5332 4.78442 19.0898 6.89847H13.8582C13.4686 6.08252 12.912 5.46129 12.1885 5.03477C11.4836 4.60825 10.6766 4.39499 9.76752 4.39499C8.30193 4.39499 7.11461 4.90496 6.20557 5.9249C5.29654 6.94483 4.84202 8.30783 4.84202 10.0139C4.84202 11.72 5.29654 13.083 6.20557 14.1029C7.11461 15.1229 8.30193 15.6328 9.76752 15.6328C10.6766 15.6328 11.4836 15.4196 12.1885 14.993C12.912 14.5665 13.4686 13.9453 13.8582 13.1293H19.0898C18.5332 15.2434 17.4294 16.9124 15.7783 18.1363C14.1272 19.3417 12.1421 19.9444 9.82318 19.9444C7.93089 19.9444 6.2334 19.5271 4.73071 18.6926C3.24656 17.8396 2.08708 16.662 1.25225 15.1599C0.417415 13.6579 0 11.9425 0 10.0139Z" fill="url(#paint0_linear_2985_16151)"/>
<path d="M31.2427 20C29.406 20 27.7178 19.5735 26.178 18.7204C24.6568 17.8674 23.4416 16.6806 22.5326 15.1599C21.6421 13.6208 21.1969 11.8962 21.1969 9.98609C21.1969 8.07603 21.6421 6.36069 22.5326 4.84005C23.4416 3.31943 24.6568 2.13259 26.178 1.27955C27.7178 0.426518 29.406 0 31.2427 0C33.0793 0 34.7582 0.426518 36.2795 1.27955C37.8193 2.13259 39.0251 3.31943 39.8971 4.84005C40.7876 6.36069 41.2328 8.07603 41.2328 9.98609C41.2328 11.8962 40.7876 13.6208 39.8971 15.1599C39.0066 16.6806 37.8007 17.8674 36.2795 18.7204C34.7582 19.5735 33.0793 20 31.2427 20ZM31.2427 15.6606C32.801 15.6606 34.044 15.1414 34.9716 14.1029C35.9177 13.0644 36.3908 11.6922 36.3908 9.98609C36.3908 8.26147 35.9177 6.8892 34.9716 5.86926C34.044 4.83078 32.801 4.31154 31.2427 4.31154C29.6658 4.31154 28.4042 4.82151 27.4581 5.84145C26.5305 6.86138 26.0667 8.24293 26.0667 9.98609C26.0667 11.7107 26.5305 13.0923 27.4581 14.1307C28.4042 15.1507 29.6658 15.6606 31.2427 15.6606Z" fill="url(#paint1_linear_2985_16151)"/>
<path d="M66.0031 0.278164V19.8053H61.2446V8.09458L56.8757 19.8053H53.0354L48.6387 8.06676V19.8053H43.8801V0.278164H49.5013L54.9834 13.7969L60.4098 0.278164H66.0031Z" fill="url(#paint2_linear_2985_16151)"/>
<path d="M74.1836 0.278164V19.8053H69.4251V0.278164H74.1836Z" fill="url(#paint3_linear_2985_16151)"/>
<path d="M95.1079 19.8053H90.3493L82.3906 7.76078V19.8053H77.6321V0.278164H82.3906L90.3493 12.3783V0.278164H95.1079V19.8053Z" fill="url(#paint4_linear_2985_16151)"/>
<path d="M111.525 6.45341C111.172 5.80436 110.662 5.31293 109.994 4.97914C109.345 4.6268 108.575 4.45062 107.685 4.45062C106.145 4.45062 104.911 4.96059 103.984 5.98053C103.056 6.98192 102.592 8.32638 102.592 10.0139C102.592 11.8127 103.075 13.2221 104.039 14.242C105.022 15.2434 106.367 15.7441 108.074 15.7441C109.243 15.7441 110.226 15.4474 111.024 14.854C111.84 14.2605 112.434 13.4075 112.805 12.2949H106.766V8.78999H117.118V13.2128C116.766 14.3996 116.163 15.503 115.309 16.5229C114.475 17.5429 113.408 18.3681 112.109 18.9986C110.811 19.6291 109.345 19.9444 107.713 19.9444C105.783 19.9444 104.058 19.5271 102.537 18.6926C101.034 17.8396 99.8558 16.662 99.0024 15.1599C98.1676 13.6579 97.7502 11.9425 97.7502 10.0139C97.7502 8.0853 98.1676 6.36996 99.0024 4.86787C99.8558 3.34724 101.034 2.16968 102.537 1.33519C104.039 0.48215 105.755 0.0556317 107.685 0.0556317C110.022 0.0556317 111.989 0.621232 113.584 1.75243C115.198 2.88363 116.265 4.45063 116.784 6.45341H111.525Z" fill="url(#paint5_linear_2985_16151)"/>
<path d="M132.719 20C131.291 20 130.011 19.7682 128.879 19.3046C127.747 18.841 126.838 18.1548 126.152 17.2462C125.484 16.3375 125.132 15.2434 125.095 13.9638H130.159C130.233 14.6871 130.484 15.2434 130.911 15.6328C131.337 16.0037 131.894 16.1892 132.58 16.1892C133.285 16.1892 133.842 16.0315 134.25 15.7163C134.658 15.3825 134.862 14.9281 134.862 14.3533C134.862 13.8711 134.695 13.4724 134.361 13.1572C134.046 12.8419 133.647 12.5823 133.165 12.3783C132.701 12.1743 132.033 11.9425 131.161 11.6829C129.899 11.2935 128.87 10.904 128.072 10.5146C127.274 10.1252 126.588 9.5503 126.013 8.78999C125.438 8.02967 125.15 7.03755 125.15 5.81363C125.15 3.99629 125.809 2.57765 127.126 1.55772C128.443 0.519239 130.159 0 132.274 0C134.426 0 136.161 0.519239 137.478 1.55772C138.795 2.57765 139.5 4.00556 139.593 5.84145H134.445C134.408 5.21094 134.176 4.71952 133.749 4.36718C133.322 3.99629 132.775 3.81085 132.107 3.81085C131.532 3.81085 131.068 3.96847 130.716 4.28373C130.363 4.58043 130.187 5.01623 130.187 5.5911C130.187 6.2216 130.484 6.71303 131.078 7.06537C131.671 7.41771 132.599 7.79787 133.86 8.20584C135.122 8.63236 136.142 9.04033 136.921 9.42976C137.719 9.81919 138.405 10.3848 138.981 11.1266C139.556 11.8683 139.843 12.8234 139.843 13.9917C139.843 15.1043 139.556 16.115 138.981 17.0236C138.424 17.9323 137.608 18.6555 136.532 19.1933C135.456 19.7311 134.185 20 132.719 20Z" fill="url(#paint6_linear_2985_16151)"/>
<path d="M152.01 20C150.174 20 148.486 19.5735 146.946 18.7204C145.425 17.8674 144.209 16.6806 143.3 15.1599C142.41 13.6208 141.965 11.8962 141.965 9.98609C141.965 8.07603 142.41 6.36069 143.3 4.84005C144.209 3.31943 145.425 2.13259 146.946 1.27955C148.486 0.426518 150.174 0 152.01 0C153.847 0 155.526 0.426518 157.047 1.27955C158.587 2.13259 159.793 3.31943 160.665 4.84005C161.555 6.36069 162.001 8.07603 162.001 9.98609C162.001 11.8962 161.555 13.6208 160.665 15.1599C159.774 16.6806 158.569 17.8674 157.047 18.7204C155.526 19.5735 153.847 20 152.01 20ZM152.01 15.6606C153.569 15.6606 154.812 15.1414 155.739 14.1029C156.686 13.0644 157.159 11.6922 157.159 9.98609C157.159 8.26147 156.686 6.8892 155.739 5.86926C154.812 4.83078 153.569 4.31154 152.01 4.31154C150.434 4.31154 149.172 4.82151 148.226 5.84145C147.298 6.86138 146.835 8.24293 146.835 9.98609C146.835 11.7107 147.298 13.0923 148.226 14.1307C149.172 15.1507 150.434 15.6606 152.01 15.6606Z" fill="url(#paint7_linear_2985_16151)"/>
<path d="M173.887 20C172.05 20 170.362 19.5735 168.822 18.7204C167.301 17.8674 166.086 16.6806 165.177 15.1599C164.286 13.6208 163.841 11.8962 163.841 9.98609C163.841 8.07603 164.286 6.36069 165.177 4.84005C166.086 3.31943 167.301 2.13259 168.822 1.27955C170.362 0.426518 172.05 0 173.887 0C175.723 0 177.402 0.426518 178.924 1.27955C180.463 2.13259 181.669 3.31943 182.541 4.84005C183.432 6.36069 183.877 8.07603 183.877 9.98609C183.877 11.8962 183.432 13.6208 182.541 15.1599C181.651 16.6806 180.445 17.8674 178.924 18.7204C177.402 19.5735 175.723 20 173.887 20ZM173.887 15.6606C175.445 15.6606 176.688 15.1414 177.616 14.1029C178.562 13.0644 179.035 11.6922 179.035 9.98609C179.035 8.26147 178.562 6.8892 177.616 5.86926C176.688 4.83078 175.445 4.31154 173.887 4.31154C172.31 4.31154 171.048 4.82151 170.102 5.84145C169.175 6.86138 168.711 8.24293 168.711 9.98609C168.711 11.7107 169.175 13.0923 170.102 14.1307C171.048 15.1507 172.31 15.6606 173.887 15.6606Z" fill="url(#paint8_linear_2985_16151)"/>
<path d="M204 19.8053H199.241L191.283 7.76078V19.8053H186.524V0.278164H191.283L199.241 12.3783V0.278164H204V19.8053Z" fill="url(#paint9_linear_2985_16151)"/>
<defs>
<linearGradient id="paint0_linear_2985_16151" x1="-8.57059e-07" y1="12.3684" x2="202.636" y2="-4.55842" gradientUnits="userSpaceOnUse">
<stop offset="0.651042" stop-color="#E70808"/>
<stop offset="1" stop-color="#FC541E"/>
</linearGradient>
<linearGradient id="paint1_linear_2985_16151" x1="-8.57059e-07" y1="12.3684" x2="202.636" y2="-4.55842" gradientUnits="userSpaceOnUse">
<stop offset="0.651042" stop-color="#E70808"/>
<stop offset="1" stop-color="#FC541E"/>
</linearGradient>
<linearGradient id="paint2_linear_2985_16151" x1="-8.57059e-07" y1="12.3684" x2="202.636" y2="-4.55842" gradientUnits="userSpaceOnUse">
<stop offset="0.651042" stop-color="#E70808"/>
<stop offset="1" stop-color="#FC541E"/>
</linearGradient>
<linearGradient id="paint3_linear_2985_16151" x1="-8.57059e-07" y1="12.3684" x2="202.636" y2="-4.55842" gradientUnits="userSpaceOnUse">
<stop offset="0.651042" stop-color="#E70808"/>
<stop offset="1" stop-color="#FC541E"/>
</linearGradient>
<linearGradient id="paint4_linear_2985_16151" x1="-8.57059e-07" y1="12.3684" x2="202.636" y2="-4.55842" gradientUnits="userSpaceOnUse">
<stop offset="0.651042" stop-color="#E70808"/>
<stop offset="1" stop-color="#FC541E"/>
</linearGradient>
<linearGradient id="paint5_linear_2985_16151" x1="-8.57059e-07" y1="12.3684" x2="202.636" y2="-4.55842" gradientUnits="userSpaceOnUse">
<stop offset="0.651042" stop-color="#E70808"/>
<stop offset="1" stop-color="#FC541E"/>
</linearGradient>
<linearGradient id="paint6_linear_2985_16151" x1="-8.57059e-07" y1="12.3684" x2="202.636" y2="-4.55842" gradientUnits="userSpaceOnUse">
<stop offset="0.651042" stop-color="#E70808"/>
<stop offset="1" stop-color="#FC541E"/>
</linearGradient>
<linearGradient id="paint7_linear_2985_16151" x1="-8.57059e-07" y1="12.3684" x2="202.636" y2="-4.55842" gradientUnits="userSpaceOnUse">
<stop offset="0.651042" stop-color="#E70808"/>
<stop offset="1" stop-color="#FC541E"/>
</linearGradient>
<linearGradient id="paint8_linear_2985_16151" x1="-8.57059e-07" y1="12.3684" x2="202.636" y2="-4.55842" gradientUnits="userSpaceOnUse">
<stop offset="0.651042" stop-color="#E70808"/>
<stop offset="1" stop-color="#FC541E"/>
</linearGradient>
<linearGradient id="paint9_linear_2985_16151" x1="-8.57059e-07" y1="12.3684" x2="202.636" y2="-4.55842" gradientUnits="userSpaceOnUse">
<stop offset="0.651042" stop-color="#E70808"/>
<stop offset="1" stop-color="#FC541E"/>
</linearGradient>
</defs>
</svg>
