<svg width="240" height="48" viewBox="0 0 240 48" fill="none" xmlns="http://www.w3.org/2000/svg">
<path d="M48.629 24.0117C48.6516 37.2662 37.6262 48.241 23.8351 47.996C10.6303 47.7509 -0.214723 36.9914 0.00322878 23.5736C0.221181 10.5122 11.1488 -0.269605 24.8422 0.00513724C38.0245 0.265029 48.6516 10.9206 48.629 24.0117ZM14.0047 34.8232C14.0047 34.8306 14.0047 34.8455 14.0047 34.8529C15.1546 34.8529 16.3045 34.8603 17.4619 34.8455C17.9579 34.838 18.4615 34.8603 18.95 34.7118C19.8819 34.4371 20.5057 33.8207 20.9717 33.0039C23.6998 28.2739 26.443 23.5513 29.1787 18.8287C29.3891 18.4649 29.5845 18.0936 29.6822 17.6778C29.9152 16.7199 29.6221 15.8808 29.1486 15.064C27.9461 13.0146 26.7587 10.9577 25.5637 8.90086C25.3608 8.55928 25.1579 8.21771 24.9023 7.91327C24.3236 7.2227 23.2113 7.21527 22.6251 7.89842C22.3921 8.17316 22.1967 8.4776 22.0164 8.78947C17.988 15.7546 13.9521 22.7122 9.93131 29.6773C9.36764 30.6501 8.76639 31.608 8.27788 32.6252C8.05993 33.0782 8.0449 33.5312 8.28539 33.9767C8.58602 34.5484 9.08205 34.8158 9.72087 34.8158C11.1488 34.8232 12.5768 34.8232 14.0047 34.8232ZM34.0112 34.8306C35.6271 34.838 37.2429 34.9049 38.8512 34.8158C39.2571 34.7935 39.6404 34.7267 39.956 34.4371C40.5949 33.8579 40.685 33.197 40.159 32.2911C38.7235 29.8184 37.2579 27.3606 35.7999 24.9028C35.6421 24.6354 35.4767 24.3755 35.2964 24.1231C34.5899 23.1726 33.425 23.1652 32.7185 24.1156C32.5081 24.3904 32.3277 24.6874 32.1549 24.9844C30.8547 27.1749 29.5545 29.3729 28.2618 31.5708C28.0363 31.957 27.8109 32.3356 27.6455 32.7515C27.39 33.3678 27.5553 33.8876 27.9837 34.3554C28.3745 34.7861 28.9006 34.8232 29.4342 34.8306C30.9599 34.838 32.4855 34.8306 34.0112 34.8306Z" fill="url(#paint0_linear_2284_15643)"/>
<path d="M173.035 27.9997C173.035 27.8735 173.035 27.7398 173.035 27.6136C173.035 23.7447 173.035 19.8759 173.027 16.0145C173.027 15.71 173.103 15.6209 173.418 15.6283C174.185 15.6506 174.944 15.6432 175.711 15.6283C175.959 15.6209 176.056 15.6655 176.056 15.9476C176.049 21.3239 176.049 26.7002 176.056 32.0691C176.056 32.3438 175.959 32.3884 175.711 32.3884C174.673 32.3735 173.629 32.3735 172.592 32.3884C172.306 32.3958 172.141 32.3067 171.99 32.0691C170.232 29.3586 168.458 26.6482 166.692 23.9452C165.812 22.5937 164.933 21.2497 164.046 19.8982C163.986 19.8091 163.918 19.7199 163.798 19.5417C163.798 19.7571 163.798 19.8833 163.798 20.0096C163.798 23.9972 163.79 27.9923 163.805 31.98C163.805 32.3067 163.73 32.3958 163.4 32.3884C162.641 32.3587 161.874 32.3735 161.107 32.3884C160.859 32.3958 160.762 32.3512 160.762 32.0765C160.769 26.7002 160.769 21.3239 160.762 15.9551C160.762 15.7249 160.814 15.6358 161.07 15.6358C162.197 15.6506 163.324 15.6506 164.452 15.6358C164.73 15.6283 164.85 15.7546 164.978 15.9476C167.345 19.5343 169.713 23.121 172.088 26.7076C172.381 27.1458 172.674 27.5839 172.96 28.022C172.99 28.0071 173.012 27.9997 173.035 27.9997Z" fill="url(#paint1_linear_2284_15643)"/>
<path d="M205.78 24.012C205.78 21.3536 205.787 18.6951 205.772 16.0441C205.772 15.6951 205.877 15.6134 206.208 15.6208C206.96 15.6431 207.711 15.6431 208.463 15.6208C208.748 15.6134 208.816 15.6951 208.816 15.9698C208.801 17.9451 208.816 19.9278 208.801 21.9031C208.801 22.2372 208.891 22.3115 209.214 22.3041C211.597 22.2892 213.972 22.2892 216.354 22.3041C216.655 22.3041 216.723 22.215 216.723 21.9328C216.708 19.9946 216.715 18.0491 216.715 16.1109C216.715 15.5391 216.678 15.6283 217.226 15.6283C217.963 15.6208 218.707 15.6357 219.444 15.6208C219.692 15.6134 219.759 15.6877 219.759 15.9327C219.752 21.309 219.752 26.6853 219.759 32.0616C219.759 32.3363 219.661 32.3809 219.413 32.3809C218.647 32.366 217.888 32.3586 217.121 32.3809C216.798 32.3883 216.7 32.3141 216.7 31.9799C216.715 29.7893 216.7 27.6061 216.715 25.4155C216.715 25.0813 216.625 25.0071 216.302 25.0071C213.919 25.0219 211.544 25.0219 209.162 25.0071C208.861 25.0071 208.793 25.0962 208.793 25.3783C208.808 27.569 208.786 29.7522 208.808 31.9428C208.808 32.3141 208.703 32.3883 208.35 32.3735C207.613 32.3438 206.869 32.3512 206.133 32.3735C205.84 32.3809 205.757 32.3066 205.757 32.0096C205.78 29.3512 205.78 26.6779 205.78 24.012Z" fill="url(#paint2_linear_2284_15643)"/>
<path d="M228.319 24.0121C228.319 21.3462 228.327 18.6729 228.312 16.0071C228.312 15.6952 228.402 15.6209 228.71 15.6209C232.19 15.6283 235.67 15.6283 239.149 15.6209C239.458 15.6209 239.555 15.6952 239.548 16.0071C239.525 16.6754 239.525 17.3437 239.548 18.0046C239.555 18.2868 239.465 18.3536 239.187 18.3536C236.707 18.3462 234.227 18.3536 231.754 18.3388C231.401 18.3388 231.325 18.4427 231.333 18.7695C231.355 19.8833 231.355 20.9898 231.333 22.1037C231.325 22.3933 231.416 22.4452 231.694 22.4452C234.046 22.4378 236.399 22.4452 238.751 22.4304C239.037 22.4304 239.142 22.4898 239.134 22.7943C239.112 23.4477 239.104 24.1012 239.134 24.7547C239.149 25.1037 239.022 25.1557 238.706 25.1557C236.391 25.1408 234.076 25.1557 231.761 25.1408C231.408 25.1408 231.333 25.2448 231.34 25.5715C231.363 26.8042 231.355 28.0443 231.34 29.277C231.333 29.5815 231.416 29.6706 231.731 29.6631C234.347 29.6483 236.962 29.6631 239.578 29.6483C239.894 29.6483 240.014 29.7077 239.999 30.0493C239.969 30.725 239.976 31.4082 239.999 32.084C240.006 32.3142 239.931 32.3736 239.706 32.3736C236.015 32.3661 232.318 32.3661 228.627 32.3736C228.304 32.3736 228.334 32.2176 228.334 32.0097C228.319 29.3513 228.319 26.678 228.319 24.0121Z" fill="url(#paint3_linear_2284_15643)"/>
<path d="M97.5705 32.3727C97.7434 31.9866 97.8862 31.6525 98.0365 31.3109C100.291 26.2022 102.538 21.0934 104.785 15.9847C104.898 15.7248 105.026 15.606 105.327 15.6209C105.95 15.6506 106.582 15.6431 107.206 15.6209C107.491 15.6134 107.619 15.7174 107.724 15.9699C109.054 19.044 110.392 22.1107 111.73 25.1774C112.722 27.4496 113.722 29.7293 114.714 32.0014C114.879 32.3727 114.871 32.3801 114.473 32.3801C113.549 32.3801 112.624 32.3727 111.692 32.3876C111.474 32.3876 111.362 32.3282 111.279 32.1203C110.843 31.0287 110.385 29.952 109.949 28.8605C109.859 28.6451 109.753 28.5635 109.513 28.5635C107.273 28.5709 105.034 28.5709 102.794 28.5635C102.546 28.5635 102.448 28.66 102.365 28.8679C101.945 29.9372 101.509 30.999 101.095 32.0683C100.998 32.3207 100.87 32.3876 100.607 32.3876C99.6223 32.3653 98.6302 32.3727 97.5705 32.3727ZM103.53 25.9868C105.184 25.9868 106.785 25.9794 108.393 25.9942C108.754 26.0017 108.739 25.8829 108.633 25.6156C107.852 23.6032 107.085 21.5835 106.304 19.5638C106.274 19.4821 106.281 19.3559 106.123 19.341C105.266 21.5464 104.402 23.7443 103.53 25.9868Z" fill="url(#paint4_linear_2284_15643)"/>
<path d="M74.8433 32.3728C73.7235 32.3728 72.6788 32.3654 71.6267 32.3802C71.3937 32.3802 71.326 32.2763 71.2584 32.1055C70.8225 31.0288 70.3716 29.9595 69.9432 28.8828C69.8455 28.6378 69.7177 28.5561 69.4471 28.5561C67.2301 28.5635 65.013 28.5635 62.8034 28.5561C62.5478 28.5561 62.4351 28.6304 62.3449 28.868C61.924 29.9521 61.4881 31.0214 61.0522 32.1055C60.9921 32.254 60.947 32.3876 60.7291 32.3802C59.6919 32.3654 58.6548 32.3728 57.5951 32.3728C57.5725 32.2094 57.6702 32.0832 57.7228 31.957C60.0752 26.6106 62.4351 21.2643 64.7875 15.918C64.8927 15.6878 65.013 15.6135 65.2685 15.6209C65.9073 15.6358 66.5461 15.6432 67.185 15.6209C67.4706 15.6061 67.5908 15.7175 67.7035 15.9625C69.8304 20.8559 71.9649 25.7493 74.0993 30.6352C74.3323 31.1996 74.5803 31.7639 74.8433 32.3728ZM66.1704 19.2891C66.1253 19.3337 66.1027 19.3485 66.0877 19.3708C65.261 21.4871 64.4343 23.5959 63.6075 25.7121C63.5023 25.9869 63.6301 25.9869 63.8405 25.9869C65.3512 25.9795 66.8693 25.9795 68.3799 25.9869C68.6505 25.9869 68.7332 25.9498 68.6204 25.6602C67.7937 23.5513 66.9896 21.4277 66.1704 19.2891Z" fill="url(#paint5_linear_2284_15643)"/>
<path d="M136.824 32.3728C137.215 31.4743 137.591 30.6129 137.967 29.759C139.988 25.1849 142.01 20.6108 144.017 16.0293C144.152 15.7249 144.295 15.5986 144.64 15.6209C145.227 15.658 145.82 15.6432 146.407 15.6209C146.715 15.606 146.857 15.7026 146.985 15.9922C148.346 19.1406 149.721 22.289 151.096 25.4374C152.058 27.6353 153.013 29.8333 153.967 32.0238C154.012 32.1203 154.057 32.2243 154.118 32.3728C153.291 32.3728 152.509 32.3802 151.728 32.3728C151.367 32.3654 150.931 32.5139 150.675 32.3134C150.435 32.1278 150.375 31.7045 150.247 31.3852C149.894 30.5387 149.541 29.6996 149.202 28.8531C149.12 28.6378 149.007 28.5561 148.766 28.5561C146.527 28.5635 144.287 28.5635 142.048 28.5561C141.799 28.5561 141.702 28.6526 141.619 28.8605C141.198 29.9447 140.762 31.0214 140.334 32.098C140.281 32.2243 140.266 32.3802 140.048 32.3802C138.989 32.3728 137.929 32.3728 136.824 32.3728ZM145.422 19.2223C144.558 21.4425 143.716 23.6033 142.867 25.7641C142.784 25.9794 142.889 25.9869 143.055 25.9869C143.866 25.9869 144.678 25.9869 145.497 25.9869C146.316 25.9869 147.143 25.9869 148.015 25.9869C147.151 23.7221 146.301 21.5019 145.422 19.2223Z" fill="url(#paint6_linear_2284_15643)"/>
<path d="M192.59 32.8109C190.08 32.7812 187.825 32.0684 186.051 30.2417C184.623 28.7788 183.902 26.9893 183.736 24.9844C183.571 22.9052 183.917 20.9226 185.037 19.1182C186.427 16.8757 188.524 15.7173 191.102 15.3312C192.725 15.0862 194.318 15.1975 195.852 15.8287C196.866 16.2445 197.7 16.898 198.452 17.6777C198.61 17.8485 198.572 17.9227 198.399 18.0415C197.745 18.5019 197.107 18.9697 196.46 19.4449C196.318 19.5489 196.227 19.5786 196.092 19.4301C193.905 16.9945 189.877 17.7519 188.103 20.1132C186.254 22.5859 186.51 26.4472 188.734 28.5784C190.343 30.1229 192.868 30.5461 194.739 29.5808C195.348 29.2689 195.852 28.8234 196.28 28.2962C196.468 28.066 196.581 28.1031 196.784 28.2516C197.43 28.7194 198.076 29.1798 198.745 29.6254C198.963 29.7739 198.986 29.863 198.82 30.0783C197.655 31.5411 196.115 32.3505 194.288 32.6698C193.717 32.7664 193.153 32.8258 192.59 32.8109Z" fill="url(#paint7_linear_2284_15643)"/>
<path d="M78.045 15.6283C79.1798 15.6283 80.2546 15.6357 81.3293 15.6209C81.5848 15.6209 81.5999 15.7991 81.66 15.9476C82.6145 18.5539 83.5689 21.1677 84.5234 23.774C85.057 25.2369 85.5906 26.6922 86.1318 28.1773C86.267 28.0511 86.2821 27.8877 86.3347 27.7467C87.8153 23.8334 89.2958 19.9128 90.7614 15.9921C90.8741 15.7026 91.0094 15.5986 91.3175 15.606C92.1217 15.6283 92.9183 15.6135 93.7225 15.6135C94.1885 15.6135 94.1885 15.6134 94.0231 16.0293C92.8808 18.8287 91.7309 21.6281 90.5885 24.4349C89.5514 26.9744 88.5067 29.5065 87.4771 32.0534C87.3794 32.3059 87.2516 32.3801 86.9885 32.3727C86.3647 32.3504 85.7334 32.343 85.1096 32.3727C84.794 32.3876 84.6587 32.2762 84.546 31.994C82.9527 27.962 81.3443 23.9374 79.7435 19.9054C79.1874 18.5094 78.6312 17.0985 78.045 15.6283Z" fill="url(#paint8_linear_2284_15643)"/>
<path d="M121.508 24.0046C121.508 21.3388 121.515 18.6655 121.5 15.9997C121.5 15.7175 121.553 15.6135 121.868 15.6209C122.635 15.6432 123.394 15.6432 124.161 15.6209C124.491 15.6061 124.574 15.6952 124.574 16.0294C124.559 20.418 124.567 24.7992 124.567 29.1878C124.567 29.7225 124.499 29.6631 125.048 29.6631C127.152 29.6631 129.257 29.6705 131.361 29.6557C131.699 29.6557 131.782 29.7522 131.774 30.0715C131.752 30.7473 131.759 31.4304 131.774 32.1136C131.774 32.3215 131.707 32.3884 131.496 32.3809C128.264 32.3735 125.033 32.3735 121.808 32.3809C121.485 32.3809 121.523 32.2101 121.523 32.0096C121.508 29.3438 121.508 26.6705 121.508 24.0046Z" fill="url(#paint9_linear_2284_15643)"/>
<path d="M14.0046 34.8232C12.5766 34.8232 11.1487 34.8306 9.72824 34.8232C9.08942 34.8232 8.59339 34.5485 8.29277 33.9841C8.05227 33.5386 8.0673 33.0856 8.28525 32.6327C8.77377 31.6154 9.37501 30.6649 9.93868 29.6848C13.9595 22.7197 17.9954 15.7546 22.0237 8.79688C22.2041 8.48501 22.392 8.18057 22.6325 7.90583C23.2187 7.22268 24.331 7.23011 24.9097 7.92068C25.1652 8.22512 25.3682 8.56669 25.5711 8.90827C26.7661 10.9651 27.9535 13.022 29.156 15.0714C29.637 15.8882 29.9226 16.7273 29.6896 17.6852C29.5919 18.101 29.3965 18.4723 29.1861 18.8361C26.4504 23.5587 23.7072 28.2814 20.9791 33.0114C20.5056 33.8282 19.8893 34.4445 18.9574 34.7192C18.4689 34.8603 17.9653 34.8455 17.4693 34.8529C16.3194 34.8678 15.1695 34.8603 14.0121 34.8603C14.0046 34.8455 14.0046 34.8306 14.0046 34.8232Z" fill="white"/>
<path d="M34.0114 34.8311C32.4856 34.8311 30.9599 34.8311 29.4342 34.8311C28.9006 34.8311 28.3744 34.7866 27.9836 34.3559C27.5627 33.8881 27.3899 33.3683 27.6454 32.7519C27.8183 32.3361 28.0362 31.9499 28.2617 31.5712C29.5544 29.3732 30.8547 27.1826 32.1549 24.9845C32.3278 24.6875 32.5157 24.3905 32.7186 24.1157C33.4251 23.1652 34.5901 23.1726 35.2966 24.1231C35.4845 24.3682 35.6423 24.6355 35.8002 24.9028C37.2582 27.3608 38.7163 29.8187 40.1594 32.2915C40.6855 33.1975 40.5953 33.8509 39.9565 34.4376C39.6408 34.7272 39.2575 34.794 38.8516 34.8163C37.2357 34.9054 35.6198 34.846 34.0114 34.8311Z" fill="white"/>
<defs>
<linearGradient id="paint0_linear_2284_15643" x1="-2.04304e-07" y1="29.6842" x2="48.6375" y2="29.2807" gradientUnits="userSpaceOnUse">
<stop offset="0.651042" stop-color="#E70808"/>
<stop offset="1" stop-color="#FC541E"/>
</linearGradient>
<linearGradient id="paint1_linear_2284_15643" x1="160.762" y1="25.9933" x2="176.059" y2="25.8789" gradientUnits="userSpaceOnUse">
<stop offset="0.651042" stop-color="#E70808"/>
<stop offset="1" stop-color="#FC541E"/>
</linearGradient>
<linearGradient id="paint2_linear_2284_15643" x1="205.757" y1="25.9857" x2="219.762" y2="25.8899" gradientUnits="userSpaceOnUse">
<stop offset="0.651042" stop-color="#E70808"/>
<stop offset="1" stop-color="#FC541E"/>
</linearGradient>
<linearGradient id="paint3_linear_2284_15643" x1="228.312" y1="25.9811" x2="240.002" y2="25.9143" gradientUnits="userSpaceOnUse">
<stop offset="0.651042" stop-color="#E70808"/>
<stop offset="1" stop-color="#FC541E"/>
</linearGradient>
<linearGradient id="paint4_linear_2284_15643" x1="97.5705" y1="25.9893" x2="114.818" y2="25.844" gradientUnits="userSpaceOnUse">
<stop offset="0.651042" stop-color="#E70808"/>
<stop offset="1" stop-color="#FC541E"/>
</linearGradient>
<linearGradient id="paint5_linear_2284_15643" x1="57.5918" y1="25.9849" x2="74.8463" y2="25.8395" gradientUnits="userSpaceOnUse">
<stop offset="0.651042" stop-color="#E70808"/>
<stop offset="1" stop-color="#FC541E"/>
</linearGradient>
<linearGradient id="paint6_linear_2284_15643" x1="136.824" y1="26.0081" x2="154.12" y2="25.8623" gradientUnits="userSpaceOnUse">
<stop offset="0.651042" stop-color="#E70808"/>
<stop offset="1" stop-color="#FC541E"/>
</linearGradient>
<linearGradient id="paint7_linear_2284_15643" x1="183.697" y1="26.0965" x2="198.932" y2="25.9885" gradientUnits="userSpaceOnUse">
<stop offset="0.651042" stop-color="#E70808"/>
<stop offset="1" stop-color="#FC541E"/>
</linearGradient>
<linearGradient id="paint8_linear_2284_15643" x1="78.045" y1="25.9756" x2="94.1265" y2="25.8493" gradientUnits="userSpaceOnUse">
<stop offset="0.651042" stop-color="#E70808"/>
<stop offset="1" stop-color="#FC541E"/>
</linearGradient>
<linearGradient id="paint9_linear_2284_15643" x1="121.5" y1="25.9854" x2="131.777" y2="25.9338" gradientUnits="userSpaceOnUse">
<stop offset="0.651042" stop-color="#E70808"/>
<stop offset="1" stop-color="#FC541E"/>
</linearGradient>
</defs>
</svg>
