<svg width="64" height="64" viewBox="0 0 64 64" fill="none" xmlns="http://www.w3.org/2000/svg">
<mask id="mask0_4163_24372" style="mask-type:alpha" maskUnits="userSpaceOnUse" x="0" y="0" width="64" height="64">
<rect width="64" height="64" fill="#C4C4C4"/>
</mask>
<g mask="url(#mask0_4163_24372)">
<path d="M46.3803 28.5212V20.3339C46.3803 17.7703 45.0193 15.399 42.7937 14.1173L35.7164 10.0316C33.4908 8.74987 30.7528 8.74987 28.5271 10.0316L21.4499 14.1173C19.2243 15.399 17.8633 17.7703 17.8633 20.3339V28.5212C17.8633 31.0847 19.2243 33.456 21.4499 34.7377L28.5271 38.8234C30.7528 40.1052 33.4908 40.1052 35.7164 38.8234L42.7937 34.7377C45.0193 33.456 46.3803 31.0847 46.3803 28.5212Z" fill="url(#paint0_linear_4163_24372)"/>
<path d="M47.837 28.9376V19.9171C47.837 17.0972 46.3319 14.4696 43.8821 13.0597L36.0844 8.55746C33.6346 7.14751 30.6243 7.14751 28.1745 8.55746L20.3768 13.0597C17.927 14.4856 16.4219 17.0972 16.4219 19.9171V28.9216C16.4219 31.7415 17.927 34.3691 20.3768 35.779L28.1745 40.2813C30.6243 41.6912 33.6346 41.6912 36.0844 40.2813L43.8821 35.779C46.3159 34.3691 47.837 31.7575 47.837 28.9376Z" stroke="url(#paint1_linear_4163_24372)" stroke-width="8.2075" stroke-miterlimit="10"/>
<path d="M19.5763 28.8742C19.176 28.6499 19.0479 28.1853 19.3201 27.6886C19.5122 27.3361 19.7204 26.9676 19.9125 26.6151L23.7394 19.8057L24.2037 18.9565C24.556 18.3317 24.8922 17.7068 25.2605 17.0819C25.5487 16.5853 26.029 16.409 26.4293 16.6654C26.6215 16.7936 26.7976 16.9858 26.9097 17.1941C27.5181 18.1875 28.1106 19.1808 28.719 20.1742C30.7045 23.4588 32.69 26.7433 34.6754 30.0438C34.9636 30.5085 35.2358 30.9731 35.524 31.4538C35.5401 31.4858 35.5561 31.5179 35.5721 31.5499C35.9884 32.319 35.6521 32.9278 34.7875 32.9599C34.1951 32.9759 33.6026 32.9599 33.0102 32.9599C32.2416 32.9599 31.4731 32.9599 30.7045 32.9759C29.5837 32.9919 28.7511 32.5273 28.1746 31.5659C27.6462 30.6687 27.1018 29.7715 26.5734 28.8742C25.901 27.7527 25.2445 26.6311 24.572 25.5096L22.9708 28.3775C22.7466 28.7781 22.3143 29.0344 21.866 29.0344C21.3696 29.0344 20.8572 29.0505 20.3609 29.0505C20.2488 29.0505 20.1527 29.0505 20.0406 29.0344C19.8485 29.0024 19.7044 28.9543 19.5763 28.8742Z" fill="url(#paint2_linear_4163_24372)" stroke="url(#paint3_linear_4163_24372)" stroke-width="1.6415" stroke-miterlimit="10"/>
<path d="M44.6837 20.1419C45.084 20.3663 45.2121 20.8469 44.9399 21.3276C44.7478 21.6801 44.5396 22.0326 44.3315 22.4011L40.4086 29.1784L39.9282 30.0116C39.576 30.6364 39.2237 31.2613 38.8554 31.8701C38.5672 32.3668 38.0709 32.527 37.6866 32.2707C37.4944 32.1425 37.3343 31.9502 37.2062 31.742C36.5978 30.7486 36.0214 29.7392 35.4289 28.7298C33.4915 25.4132 31.5381 22.1127 29.6006 18.7961C29.3284 18.3314 29.0562 17.8508 28.768 17.3861C28.752 17.3541 28.736 17.3221 28.72 17.29C28.3197 16.5209 28.6559 15.9121 29.5366 15.8961C30.129 15.8801 30.7214 15.9121 31.3139 15.9121C32.0825 15.9121 32.851 15.9281 33.6196 15.9281C34.7404 15.9281 35.573 16.4088 36.1334 17.3701C36.6618 18.2674 37.1742 19.1806 37.7026 20.0779C38.3591 21.2154 39.0156 22.337 39.656 23.4745L41.2892 20.6226C41.5134 20.2221 41.9457 19.9817 42.4101 19.9817C42.9064 19.9817 43.4188 19.9817 43.9152 19.9977C44.0273 19.9977 44.1233 19.9977 44.2354 20.0138C44.4115 20.0298 44.5556 20.0779 44.6837 20.1419Z" fill="url(#paint4_linear_4163_24372)" stroke="url(#paint5_linear_4163_24372)" stroke-width="1.6415" stroke-miterlimit="10"/>
<path d="M8.19146 55.839L7.80717 54.6854H5.24529L4.861 55.839H3.5L5.74165 49.4302H7.31081L9.56847 55.839H8.19146ZM5.64558 53.5158H7.40688L6.52623 50.9042L5.64558 53.5158Z" fill="black"/>
<path d="M11.1221 55.839L8.97656 49.4302H10.3536L11.9227 54.365L13.4759 49.4302H14.8529L12.6913 55.839H11.1221Z" fill="black"/>
<path d="M18.8864 55.839L18.5021 54.6854H15.9562L15.5719 55.839H14.2109L16.4526 49.4302H18.0217L20.2794 55.839H18.8864ZM16.3565 53.5158H18.1178L17.2372 50.9042L16.3565 53.5158Z" fill="black"/>
<path d="M25.7722 55.839H24.3311L23.0822 53.7561L21.8333 55.839H20.4082L22.3616 52.5545L20.5043 49.4302H21.9293L23.0662 51.3528L24.203 49.4302H25.6281L23.7707 52.5385L25.7722 55.839Z" fill="black"/>
<path d="M32.4643 49.4302H33.7293V55.839H32.7686L30.0306 51.9136V55.839H28.7656V49.4302H29.7263L32.4643 53.3396V49.4302Z" fill="black"/>
<path d="M39.0309 55.839L38.6466 54.6854H36.1008L35.7165 55.839H34.3555L36.5971 49.4302H38.1663L40.4239 55.839H39.0309ZM36.5011 53.5158H38.2624L37.3817 50.9042L36.5011 53.5158Z" fill="black"/>
<path d="M44.8114 49.4302V50.6318H43.0821V55.839H41.8172V50.6318H40.0879V49.4302H44.8114Z" fill="black"/>
<path d="M45.5156 49.4302H46.7806V55.839H45.5156V49.4302Z" fill="black"/>
<path d="M50.9902 55.9672C50.0615 55.9672 49.277 55.6468 48.6365 55.0059C47.996 54.349 47.6758 53.5639 47.6758 52.6346C47.6758 51.7053 47.996 50.9202 48.6365 50.2794C49.293 49.6224 50.0776 49.302 50.9902 49.302C51.9029 49.302 52.7035 49.6224 53.344 50.2794C54.0004 50.9202 54.3207 51.7053 54.3207 52.6346C54.3207 53.5639 54.0004 54.349 53.344 55.0059C52.7035 55.6468 51.9189 55.9672 50.9902 55.9672ZM50.9902 54.7335C51.5827 54.7335 52.063 54.5412 52.4633 54.1407C52.8636 53.7401 53.0557 53.2434 53.0557 52.6346C53.0557 52.0258 52.8476 51.5131 52.4633 51.1285C52.063 50.728 51.5827 50.5357 50.9902 50.5357C50.3978 50.5357 49.9174 50.744 49.5171 51.1285C49.1168 51.5291 48.9247 52.0258 48.9247 52.6346C48.9247 53.2434 49.1329 53.7562 49.5171 54.1407C49.9174 54.5412 50.3978 54.7335 50.9902 54.7335Z" fill="black"/>
<path d="M58.9175 49.4302H60.1824V55.839H59.2217L56.4837 51.9136V55.839H55.2188V49.4302H56.1795L58.9175 53.3396V49.4302Z" fill="black"/>
</g>
<defs>
<linearGradient id="paint0_linear_4163_24372" x1="18.823" y1="16.7413" x2="45.433" y2="32.0947" gradientUnits="userSpaceOnUse">
<stop stop-color="white" stop-opacity="0"/>
<stop offset="1" stop-color="#E74242" stop-opacity="0.25"/>
</linearGradient>
<linearGradient id="paint1_linear_4163_24372" x1="15.7406" y1="18.4586" x2="48.5111" y2="30.3784" gradientUnits="userSpaceOnUse">
<stop stop-color="#E74242" stop-opacity="0"/>
<stop offset="1" stop-color="#E74242"/>
</linearGradient>
<linearGradient id="paint2_linear_4163_24372" x1="21.2718" y1="22.2729" x2="37.2727" y2="28.093" gradientUnits="userSpaceOnUse">
<stop stop-color="#E74242" stop-opacity="0.25"/>
<stop offset="1" stop-color="#E74242"/>
</linearGradient>
<linearGradient id="paint3_linear_4163_24372" x1="21.1483" y1="22.2279" x2="37.3962" y2="28.1379" gradientUnits="userSpaceOnUse">
<stop stop-color="#E74242"/>
<stop offset="1" stop-color="white"/>
</linearGradient>
<linearGradient id="paint4_linear_4163_24372" x1="26.9893" y1="20.8419" x2="43.005" y2="26.6674" gradientUnits="userSpaceOnUse">
<stop stop-color="#E74242" stop-opacity="0.25"/>
<stop offset="1" stop-color="#E74242"/>
</linearGradient>
<linearGradient id="paint5_linear_4163_24372" x1="26.8658" y1="20.7969" x2="43.1285" y2="26.7123" gradientUnits="userSpaceOnUse">
<stop stop-color="#E74242"/>
<stop offset="1" stop-color="white"/>
</linearGradient>
</defs>
</svg>
