<svg width="31" height="448" viewBox="0 0 31 448" fill="none" xmlns="http://www.w3.org/2000/svg">
<path d="M15.5 30.9867C6.95103 30.9867 0 24.0357 0 15.5C0 6.96435 6.95103 0 15.5 0C24.049 0 31 6.95103 31 15.5C31 24.049 24.049 31 15.5 31V30.9867ZM15.5 7.98969C11.3587 7.98969 7.98969 11.3587 7.98969 15.5C7.98969 19.6413 11.3587 23.0103 15.5 23.0103C19.6413 23.0103 23.0103 19.6413 23.0103 15.5C23.0103 11.3587 19.6413 7.98969 15.5 7.98969Z" fill="#8B8DFC"/>
<path d="M20 26H11V448H20V361.745V256.508V26Z" fill="url(#paint0_linear_27_7)"/>
<defs>
<linearGradient id="paint0_linear_27_7" x1="15.5" y1="26" x2="15.5" y2="448" gradientUnits="userSpaceOnUse">
<stop stop-color="#8B8DFC"/>
<stop offset="1" stop-color="#8B8DFC" stop-opacity="0"/>
</linearGradient>
</defs>
</svg>
