<svg width="312" height="63" viewBox="0 0 312 63" fill="none" xmlns="http://www.w3.org/2000/svg">
<path d="M14.2944 16.4111L23.9196 26.2745H19.0455C16.4242 26.2745 14.2534 24.092 14.2534 21.3638V16.4111H14.2944Z" fill="url(#paint0_linear_4934_10868)"/>
<path d="M29.5308 26.2745L39.156 16.4111V21.4057C39.156 24.092 37.0261 26.3165 34.3638 26.3165H29.5308V26.2745Z" fill="url(#paint1_linear_4934_10868)"/>
<path d="M19.9063 0V8.3944H16.8753C11.8784 8.3944 7.86453 12.5496 7.86453 17.6282V23.6722H0.0415039V16.7888C0.0415039 7.51299 7.37303 0 16.4248 0H19.9063Z" fill="url(#paint2_linear_4934_10868)"/>
<path d="M16.1381 30.3456V33.8713C16.1381 36.3476 14.1721 38.3623 11.7556 38.3623H8.1922V50.1984L7.86453 50.4922L0.0415039 57.1238V30.3456H16.1381Z" fill="url(#paint3_linear_4934_10868)"/>
<path d="M53 16.7888V57.4597L45.177 50.6602V17.6282C45.177 12.5077 41.1221 8.3944 36.1252 8.3944H34.323V11.2905C34.323 13.8927 32.2751 15.9913 29.7357 15.9913H26.5V0H36.6167C45.6685 0 53 7.51299 53 16.7888Z" fill="url(#paint4_linear_4934_10868)"/>
<path d="M53 54.6896V63L52.4266 62.5383L39.7705 52.0453L27.0734 62.5383L26.5 63L25.9266 62.5383L13.3934 52.3811L0 62.8741V54.3538L7.82303 47.7222L8.15069 47.4284L9.99382 45.8335C11.8779 44.0707 14.745 43.9867 16.7519 45.6656L26.5 53.8501L35.9614 45.6656C37.8864 43.9867 40.7125 44.0287 42.6376 45.6656L45.177 47.8481L53 54.6896Z" fill="url(#paint5_linear_4934_10868)"/>
<path d="M77 48.4553V13.5447H101.761V20.5268H86.2542V27.608H100.611V34.5901H86.2542V48.4553H77Z" fill="url(#paint6_linear_4934_10868)"/>
<path d="M121.821 49C116.552 49 112.6 47.7125 109.965 45.1376C107.331 42.5626 106.013 38.7166 106.013 33.5997V13.5447H115.218V33.6492C115.218 36.1912 115.751 38.1224 116.818 39.4429C117.885 40.7304 119.553 41.3741 121.821 41.3741C124.088 41.3741 125.756 40.7304 126.823 39.4429C127.89 38.1224 128.424 36.1912 128.424 33.6492V13.5447H137.528V33.5997C137.528 38.7166 136.227 42.5626 133.626 45.1376C131.025 47.7125 127.09 49 121.821 49Z" fill="url(#paint7_linear_4934_10868)"/>
<path d="M143.729 48.4553V13.5447H152.983V40.879H168.09V48.4553H143.729Z" fill="url(#paint8_linear_4934_10868)"/>
<path d="M172.649 48.4553V13.5447H181.903V40.879H197.01V48.4553H172.649Z" fill="url(#paint9_linear_4934_10868)"/>
<path d="M201.568 48.4553V13.5447H215.774C219.943 13.5447 223.461 14.2545 226.329 15.674C229.197 17.0605 231.365 19.0578 232.832 21.6658C234.333 24.2407 235.083 27.3439 235.083 30.9752C235.083 34.5736 234.333 37.6768 232.832 40.2847C231.365 42.8927 229.197 44.9065 226.329 46.326C223.461 47.7455 219.943 48.4553 215.774 48.4553H201.568ZM210.822 41.0275H215.174C218.809 41.0275 221.493 40.2022 223.228 38.5516C224.995 36.901 225.879 34.3755 225.879 30.9752C225.879 27.542 224.995 25.0165 223.228 23.3989C221.493 21.7483 218.809 20.923 215.174 20.923H210.822V41.0275Z" fill="url(#paint10_linear_4934_10868)"/>
<path d="M235.417 48.4553L251.924 13.5447H259.427L276.035 48.4553H266.781L262.529 38.8487L266.08 41.3741H245.371L248.873 38.8487L244.671 48.4553H235.417ZM255.626 22.9532L249.773 36.7689L248.373 34.4415H263.029L261.779 36.7689L255.876 22.9532H255.626Z" fill="url(#paint11_linear_4934_10868)"/>
<path d="M276.384 30.9752C276.384 27.3439 277.101 24.1912 278.535 21.5172C279.969 18.8102 282.02 16.7139 284.688 15.2283C287.356 13.7428 290.507 13 294.142 13C297.81 13 300.978 13.7428 303.646 15.2283C306.314 16.7139 308.365 18.8102 309.799 21.5172C311.266 24.1912 312 27.3439 312 30.9752C312 34.5736 311.266 37.7263 309.799 40.4333C308.365 43.1403 306.314 45.2531 303.646 46.7717C300.978 48.2572 297.81 49 294.142 49C290.507 49 287.356 48.2572 284.688 46.7717C282.053 45.2531 280.002 43.1403 278.535 40.4333C277.101 37.7263 276.384 34.5736 276.384 30.9752ZM286.038 30.9752C286.038 34.2435 286.705 36.8019 288.039 38.6506C289.373 40.4663 291.407 41.3741 294.142 41.3741C296.877 41.3741 298.927 40.4663 300.295 38.6506C301.662 36.8019 302.346 34.2435 302.346 30.9752C302.346 27.707 301.662 25.1651 300.295 23.3494C298.927 21.5337 296.877 20.6259 294.142 20.6259C291.407 20.6259 289.373 21.5337 288.039 23.3494C286.705 25.132 286.038 27.674 286.038 30.9752Z" fill="url(#paint12_linear_4934_10868)"/>
<defs>
<linearGradient id="paint0_linear_4934_10868" x1="14.2534" y1="22.5108" x2="23.9213" y2="22.4332" gradientUnits="userSpaceOnUse">
<stop offset="0.651042" stop-color="#E70808"/>
<stop offset="1" stop-color="#FC541E"/>
</linearGradient>
<linearGradient id="paint1_linear_4934_10868" x1="29.5308" y1="22.5368" x2="39.1577" y2="22.4602" gradientUnits="userSpaceOnUse">
<stop offset="0.651042" stop-color="#E70808"/>
<stop offset="1" stop-color="#FC541E"/>
</linearGradient>
<linearGradient id="paint2_linear_4934_10868" x1="0.0415038" y1="14.6394" x2="19.9101" y2="14.5029" gradientUnits="userSpaceOnUse">
<stop offset="0.651042" stop-color="#E70808"/>
<stop offset="1" stop-color="#FC541E"/>
</linearGradient>
<linearGradient id="paint3_linear_4934_10868" x1="0.0415038" y1="46.9058" x2="16.1416" y2="46.8266" gradientUnits="userSpaceOnUse">
<stop offset="0.651042" stop-color="#E70808"/>
<stop offset="1" stop-color="#FC541E"/>
</linearGradient>
<linearGradient id="paint4_linear_4934_10868" x1="26.5" y1="35.5343" x2="53.006" y2="35.4342" gradientUnits="userSpaceOnUse">
<stop offset="0.651042" stop-color="#E70808"/>
<stop offset="1" stop-color="#FC541E"/>
</linearGradient>
<linearGradient id="paint5_linear_4934_10868" x1="-2.22667e-07" y1="55.9111" x2="52.9839" y2="54.6732" gradientUnits="userSpaceOnUse">
<stop offset="0.651042" stop-color="#E70808"/>
<stop offset="1" stop-color="#FC541E"/>
</linearGradient>
<linearGradient id="paint6_linear_4934_10868" x1="77" y1="35.2632" x2="311.387" y2="22.7329" gradientUnits="userSpaceOnUse">
<stop offset="0.651042" stop-color="#E70808"/>
<stop offset="1" stop-color="#FC541E"/>
</linearGradient>
<linearGradient id="paint7_linear_4934_10868" x1="77" y1="35.2632" x2="311.387" y2="22.7329" gradientUnits="userSpaceOnUse">
<stop offset="0.651042" stop-color="#E70808"/>
<stop offset="1" stop-color="#FC541E"/>
</linearGradient>
<linearGradient id="paint8_linear_4934_10868" x1="77" y1="35.2632" x2="311.387" y2="22.7329" gradientUnits="userSpaceOnUse">
<stop offset="0.651042" stop-color="#E70808"/>
<stop offset="1" stop-color="#FC541E"/>
</linearGradient>
<linearGradient id="paint9_linear_4934_10868" x1="77" y1="35.2632" x2="311.387" y2="22.7329" gradientUnits="userSpaceOnUse">
<stop offset="0.651042" stop-color="#E70808"/>
<stop offset="1" stop-color="#FC541E"/>
</linearGradient>
<linearGradient id="paint10_linear_4934_10868" x1="77" y1="35.2632" x2="311.387" y2="22.7329" gradientUnits="userSpaceOnUse">
<stop offset="0.651042" stop-color="#E70808"/>
<stop offset="1" stop-color="#FC541E"/>
</linearGradient>
<linearGradient id="paint11_linear_4934_10868" x1="77" y1="35.2632" x2="311.387" y2="22.7329" gradientUnits="userSpaceOnUse">
<stop offset="0.651042" stop-color="#E70808"/>
<stop offset="1" stop-color="#FC541E"/>
</linearGradient>
<linearGradient id="paint12_linear_4934_10868" x1="77" y1="35.2632" x2="311.387" y2="22.7329" gradientUnits="userSpaceOnUse">
<stop offset="0.651042" stop-color="#E70808"/>
<stop offset="1" stop-color="#FC541E"/>
</linearGradient>
</defs>
</svg>
