<svg width="188" height="40" viewBox="0 0 188 40" fill="none" xmlns="http://www.w3.org/2000/svg">
<path d="M9.33603 10.4197L15.6223 16.6822H12.439C10.727 16.6822 9.30928 15.2965 9.30928 13.5643V10.4197H9.33603Z" fill="white"/>
<path d="M19.2867 16.6822L25.5729 10.4197V13.591C25.5729 15.2965 24.1819 16.7089 22.4432 16.7089H19.2867V16.6822Z" fill="white"/>
<path d="M13.0008 0V5.32978H11.0213C7.75778 5.32978 5.13627 7.96802 5.13627 11.1925V15.03H0.0269928V10.6596C0.0269928 4.77015 4.81527 0 10.727 0H13.0008Z" fill="white"/>
<path d="M10.5398 19.2672V21.5057C10.5398 23.0779 9.25579 24.3571 7.67753 24.3571H5.35027V31.8721L5.13627 32.0586L0.0269928 36.2691V19.2672H10.5398Z" fill="white"/>
<path d="M34.6147 10.6596V36.4823L29.5055 32.1652V11.1925C29.5055 7.94137 26.8572 5.32978 23.5937 5.32978H22.4167V7.16855C22.4167 8.82079 21.0792 10.1532 19.4207 10.1532H17.3074V0H23.9147C29.8265 0 34.6147 4.77015 34.6147 10.6596Z" fill="white"/>
<path d="M34.6147 34.7235V40L34.2402 39.7069L25.9744 33.0447L17.6818 39.7069L17.3073 40L16.9328 39.7069L8.7473 33.2579L0 39.9201V34.5104L5.10928 30.2998L5.32328 30.1133L6.52703 29.1006C7.75754 27.9814 9.63005 27.9281 10.9408 28.994L17.3073 34.1906L23.4866 28.994C24.7439 27.9281 26.5896 27.9547 27.8469 28.994L29.5054 30.3798L34.6147 34.7235Z" fill="white"/>
<path d="M50.0229 9.30048H64.7889V14.1772H55.8544V18.5743H63.7457V23.451H55.8544V30.966H50.0496V9.30048H50.0229Z" fill="white"/>
<path d="M76.8533 31.2325C75.4891 31.2325 74.2318 31.046 73.0816 30.6995C71.9313 30.3265 70.9416 29.7935 70.0855 29.074C69.2563 28.3544 68.5875 27.4484 68.1328 26.3824C67.6513 25.2898 67.4373 24.0373 67.4373 22.5716V9.30048H73.2421V22.4917C73.2421 23.7175 73.5363 24.6769 74.1248 25.3431C74.7133 26.0093 75.6228 26.3558 76.8533 26.3558C78.0838 26.3558 78.9933 26.0093 79.5818 25.3431C80.1704 24.6769 80.4646 23.7175 80.4646 22.4917V9.30048H86.2694V22.5716C86.2694 24.0373 86.0286 25.3165 85.5739 26.3824C85.0924 27.475 84.4504 28.3544 83.6211 29.074C82.7919 29.7935 81.7754 30.3265 80.6251 30.6995C79.4481 31.0726 78.2176 31.2325 76.8533 31.2325Z" fill="white"/>
<path d="M89.8004 9.30048H95.6319V26.0626H104.861V30.9394H89.8271V9.30048H89.8004Z" fill="white"/>
<path d="M107.535 9.30048H113.34V26.0626H122.569V30.9394H107.535V9.30048Z" fill="white"/>
<path d="M125.271 9.30048H133.644C135.195 9.30048 136.64 9.54032 137.977 10.0466C139.315 10.553 140.492 11.2725 141.481 12.2052C142.471 13.1379 143.247 14.2838 143.782 15.6163C144.344 16.9487 144.611 18.4677 144.611 20.1466C144.611 21.8255 144.344 23.3178 143.782 24.6769C143.22 26.0093 142.471 27.1552 141.481 28.0879C140.492 29.0207 139.341 29.7402 137.977 30.2465C136.64 30.7528 135.195 30.9927 133.644 30.9927H125.271V9.30048ZM133.028 25.9827C134.794 25.9827 136.185 25.4497 137.201 24.3838C138.218 23.3178 138.726 21.8788 138.726 20.0933C138.726 18.3078 138.218 16.8688 137.201 15.8028C136.185 14.7369 134.794 14.2039 133.028 14.2039H131.076V25.9827H133.028Z" fill="white"/>
<path d="M158.387 28.3278H150.817L149.72 30.9394H144.049L154.616 8.92741C154.669 8.82081 154.723 8.76752 154.803 8.76752C154.883 8.76752 154.963 8.82081 154.99 8.92741L165.53 30.9394H159.538L158.387 28.3278ZM152.583 24.1173H156.515L154.535 19.5337L152.583 24.1173Z" fill="white"/>
<path d="M176.364 31.2059C174.785 31.2059 173.314 30.9394 171.896 30.4064C170.505 29.8734 169.248 29.1006 168.205 28.1146C167.135 27.1286 166.305 25.956 165.663 24.5969C165.048 23.2378 164.727 21.7455 164.727 20.1199C164.727 18.4943 165.048 17.002 165.663 15.6429C166.279 14.2838 167.135 13.1113 168.205 12.1519C169.275 11.1659 170.505 10.4197 171.896 9.88675C173.287 9.35377 174.785 9.08728 176.364 9.08728C177.915 9.08728 179.386 9.35377 180.804 9.88675C182.222 10.4197 183.452 11.1925 184.522 12.1519C185.592 13.1379 186.422 14.2838 187.064 15.6429C187.679 17.002 188 18.4943 188 20.1199C188 21.7455 187.679 23.2378 187.064 24.5969C186.448 25.956 185.592 27.1286 184.522 28.1146C183.452 29.1006 182.222 29.8734 180.804 30.4064C179.413 30.9394 177.915 31.2059 176.364 31.2059ZM176.364 26.1959C177.273 26.1959 178.102 26.036 178.798 25.7162C179.493 25.3964 180.109 24.97 180.59 24.437C181.072 23.9041 181.446 23.2645 181.714 22.5183C181.981 21.7722 182.088 20.9727 182.088 20.1199C182.088 19.2672 181.954 18.4677 181.714 17.7215C181.446 16.9754 181.072 16.3358 180.59 15.8028C180.109 15.2698 179.493 14.8434 178.798 14.5237C178.102 14.2039 177.273 14.0706 176.364 14.0706C175.454 14.0706 174.625 14.2305 173.929 14.5237C173.234 14.8434 172.619 15.2432 172.137 15.8028C171.656 16.3358 171.281 16.9754 171.014 17.7215C170.746 18.4677 170.639 19.2672 170.639 20.1199C170.639 20.9727 170.773 21.7722 171.014 22.5183C171.281 23.2645 171.656 23.9041 172.137 24.437C172.619 24.97 173.234 25.3964 173.929 25.7162C174.652 26.036 175.454 26.1959 176.364 26.1959Z" fill="white"/>
</svg>
