<svg width="478" height="49" viewBox="0 0 478 49" fill="none" xmlns="http://www.w3.org/2000/svg">
<path d="M4.68519 37H8.71719V4.84H13.4692V0.999997H0.0771876V4.84H4.68519V37ZM17.1813 37H21.0213V22.216C21.0213 20.296 21.5493 17.848 24.0933 17.848C26.3013 17.848 27.0693 19.672 27.0693 22.216V37H30.9093V21.112C30.9093 16.456 28.7013 14.104 25.1973 14.104C22.5573 14.104 21.2613 15.688 21.0213 16.072V0.999997H17.1813V37ZM42.1679 37.24C46.4879 37.24 49.0319 34.936 49.0319 30.808V29.224H45.1919V29.944C45.1919 31.96 44.1359 33.496 42.1679 33.496C40.1519 33.496 39.0959 32.152 39.0959 29.032V26.536H49.0319V21.112C49.0319 16.648 46.4879 14.104 42.1679 14.104C37.8479 14.104 35.2559 16.648 35.2559 21.112V30.184C35.2559 34.6 37.8479 37.24 42.1679 37.24ZM39.0959 23.416V21.736C39.0959 19.144 40.1999 17.848 42.1679 17.848C44.0879 17.848 45.1439 19.144 45.1439 21.736V23.416H39.0959ZM62.1813 37H66.0213V29.848L68.2773 26.392L72.4053 37H76.2453L70.6773 22.6L76.1493 14.344H72.1173L66.0213 23.416V0.999997H62.1813V37ZM85.0117 37.24C89.3317 37.24 91.8757 34.936 91.8757 30.808V29.224H88.0357V29.944C88.0357 31.96 86.9797 33.496 85.0117 33.496C82.9957 33.496 81.9397 32.152 81.9397 29.032V26.536H91.8757V21.112C91.8757 16.648 89.3317 14.104 85.0117 14.104C80.6917 14.104 78.0997 16.648 78.0997 21.112V30.184C78.0997 34.6 80.6917 37.24 85.0117 37.24ZM81.9397 23.416V21.736C81.9397 19.144 83.0437 17.848 85.0117 17.848C86.9317 17.848 87.9877 19.144 87.9877 21.736V23.416H81.9397ZM96.1679 49H100.2L108.696 14.344H104.808L101.4 29.896L97.9439 14.344H94.0559L99.3839 36.232L96.1679 49ZM126.73 37.24C131.05 37.24 133.594 34.696 133.594 30.232V21.112C133.594 16.648 131.05 14.104 126.73 14.104C122.41 14.104 119.818 16.648 119.818 21.112V30.232C119.818 34.696 122.41 37.24 126.73 37.24ZM126.73 33.496C124.714 33.496 123.658 32.2 123.658 29.128V22.216C123.658 19.144 124.714 17.848 126.73 17.848C128.746 17.848 129.754 19.144 129.754 22.216V29.128C129.754 32.2 128.746 33.496 126.73 33.496ZM137.971 49H141.811V35.128C141.955 35.464 143.155 37.24 145.891 37.24C149.347 37.24 151.699 34.888 151.699 30.232V21.112C151.699 16.456 149.203 14.104 145.651 14.104C143.059 14.104 141.667 15.832 141.427 16.216V14.344H137.971V49ZM144.883 33.496C142.339 33.496 141.811 31.096 141.811 29.176V22.216C141.811 20.296 142.339 17.848 144.883 17.848C147.091 17.848 147.859 19.672 147.859 22.216V29.176C147.859 31.672 147.091 33.496 144.883 33.496ZM162.496 37.24C166.816 37.24 169.36 34.936 169.36 30.808V29.224H165.52V29.944C165.52 31.96 164.464 33.496 162.496 33.496C160.48 33.496 159.424 32.152 159.424 29.032V26.536H169.36V21.112C169.36 16.648 166.816 14.104 162.496 14.104C158.176 14.104 155.584 16.648 155.584 21.112V30.184C155.584 34.6 158.176 37.24 162.496 37.24ZM159.424 23.416V21.736C159.424 19.144 160.528 17.848 162.496 17.848C164.416 17.848 165.472 19.144 165.472 21.736V23.416H159.424ZM173.737 37H177.577V22.216C177.577 20.296 178.105 17.848 180.649 17.848C182.857 17.848 183.625 19.672 183.625 22.216V37H187.465V21.112C187.465 16.456 185.113 14.104 181.609 14.104C178.921 14.104 177.433 15.832 177.193 16.216V14.344H173.737V37ZM207.215 49C211.535 49 214.079 46.456 214.079 41.992V14.344H210.623V16.216C210.431 15.88 209.087 14.104 206.351 14.104C202.847 14.104 200.303 16.456 200.303 21.112V30.232C200.303 34.888 202.511 37.24 206.063 37.24C208.703 37.24 209.999 35.656 210.239 35.272V40.888C210.239 43.96 209.231 45.256 207.215 45.256C205.199 45.256 204.143 44.056 204.143 41.032V40.312H200.303V41.992C200.303 46.456 202.895 49 207.215 49ZM207.167 33.496C204.959 33.496 204.143 31.672 204.143 29.176V22.216C204.143 19.672 204.959 17.848 207.167 17.848C209.711 17.848 210.239 20.296 210.239 22.216V29.176C210.239 31.096 209.711 33.496 207.167 33.496ZM224.491 37.24C227.131 37.24 228.523 35.56 228.763 35.128V37H232.219V14.344H228.763V16.216C228.523 15.928 227.227 14.104 224.491 14.104C220.987 14.104 218.443 16.456 218.443 21.112V30.232C218.443 34.888 220.987 37.24 224.491 37.24ZM225.307 33.496C223.099 33.496 222.283 31.672 222.283 29.176V22.216C222.283 19.672 223.099 17.848 225.307 17.848C227.851 17.848 228.379 20.296 228.379 22.216V29.176C228.379 31.096 227.851 33.496 225.307 33.496ZM235.432 14.344V17.848H238.408V29.944C238.408 34.36 241 37 245.32 37H246.04V33.256H245.32C243.304 33.256 242.248 31.912 242.248 28.792V17.848H245.8V14.344H242.248V8.728H238.408V14.344H235.432ZM255.965 37.24C260.285 37.24 262.829 34.936 262.829 30.808V29.224H258.989V29.944C258.989 31.96 257.933 33.496 255.965 33.496C253.949 33.496 252.893 32.152 252.893 29.032V26.536H262.829V21.112C262.829 16.648 260.285 14.104 255.965 14.104C251.645 14.104 249.053 16.648 249.053 21.112V30.184C249.053 34.6 251.645 37.24 255.965 37.24ZM252.893 23.416V21.736C252.893 19.144 253.997 17.848 255.965 17.848C257.885 17.848 258.941 19.144 258.941 21.736V23.416H252.893ZM270.049 37H273.505L276.481 23.224L279.505 37H282.961L288.001 14.344H283.921L281.233 28.6L278.305 14.344H274.705L271.777 28.6L269.089 14.344H265.009L270.049 37ZM296.21 37.24C298.85 37.24 300.242 35.56 300.482 35.128V37H303.938V14.344H300.482V16.216C300.242 15.928 298.946 14.104 296.21 14.104C292.706 14.104 290.162 16.456 290.162 21.112V30.232C290.162 34.888 292.706 37.24 296.21 37.24ZM297.026 33.496C294.818 33.496 294.002 31.672 294.002 29.176V22.216C294.002 19.672 294.818 17.848 297.026 17.848C299.57 17.848 300.098 20.296 300.098 22.216V29.176C300.098 31.096 299.57 33.496 297.026 33.496ZM309.215 49H313.247L321.743 14.344H317.855L314.447 29.896L310.991 14.344H307.103L312.431 36.232L309.215 49ZM331.713 14.344V17.848H334.689V29.944C334.689 34.36 337.281 37 341.601 37H342.321V33.256H341.601C339.585 33.256 338.529 31.912 338.529 28.792V17.848H342.081V14.344H338.529V8.728H334.689V14.344H331.713ZM352.246 37.24C356.566 37.24 359.11 34.696 359.11 30.232V21.112C359.11 16.648 356.566 14.104 352.246 14.104C347.926 14.104 345.334 16.648 345.334 21.112V30.232C345.334 34.696 347.926 37.24 352.246 37.24ZM352.246 33.496C350.23 33.496 349.174 32.2 349.174 29.128V22.216C349.174 19.144 350.23 17.848 352.246 17.848C354.262 17.848 355.27 19.144 355.27 22.216V29.128C355.27 32.2 354.262 33.496 352.246 33.496Z" fill="white"/>
<path d="M371.443 37H385.363V32.488H376.915L385.363 18.568V13.96H371.683V18.472H379.939L371.443 32.392V37ZM389.689 37H394.489V30.424L396.553 27.064L400.345 37H405.097L399.577 22.36L405.049 13.96H400.009L394.489 22.408V0.999997H389.689V37ZM415.363 37.24C420.019 37.24 423.523 34.264 423.523 29.608V27.352C423.523 22.696 419.779 19.912 417.043 17.176C414.307 14.44 412.243 13.048 412.243 10.648V9.544C412.243 6.76 413.635 5.56 415.363 5.56C417.091 5.56 418.483 6.76 418.483 9.544V11.368H423.523V8.392C423.523 3.736 420.019 0.759997 415.363 0.759997C410.707 0.759997 407.203 3.736 407.203 8.392V10.648C407.203 15.304 410.947 18.088 413.683 20.824C416.419 23.56 418.483 24.952 418.483 27.352V28.456C418.483 31.24 417.091 32.44 415.363 32.44C413.635 32.44 412.243 31.24 412.243 28.456V26.632H407.203V29.608C407.203 34.264 410.707 37.24 415.363 37.24ZM427.43 49H432.47L441.158 13.96H436.358L433.19 28.792L430.022 13.96H425.222L430.694 36.232L427.43 49ZM443.825 37H448.625V22.36C448.625 20.44 449.105 18.424 451.265 18.424C453.425 18.424 453.905 20.44 453.905 22.36V37H458.705V21.112C458.705 16.168 456.209 13.72 452.609 13.72C449.921 13.72 448.385 15.448 448.145 15.784V13.96H443.825V37ZM470.002 37.24C474.658 37.24 477.442 34.504 477.442 29.848V27.832H472.642V28.552C472.642 31.432 471.778 32.536 470.002 32.536C468.178 32.536 467.362 31.336 467.362 28.552V22.408C467.362 19.624 468.178 18.424 470.002 18.424C471.778 18.424 472.642 19.528 472.642 22.408V23.128H477.442V21.112C477.442 16.456 474.658 13.72 470.002 13.72C465.346 13.72 462.562 16.456 462.562 21.112V29.848C462.562 34.504 465.346 37.24 470.002 37.24Z" fill="#8B8DFC"/>
</svg>
