<svg width="64" height="47" viewBox="0 0 64 47" fill="none" xmlns="http://www.w3.org/2000/svg">
<path d="M29.7905 0H34.1279V3.85717C34.1279 4.09717 34.3188 4.28575 34.5617 4.28575H38.4653V8.57149H36.2966C35.0995 8.57149 34.1279 7.61148 34.1279 6.42862V4.71432C34.1279 4.47432 33.9371 4.28575 33.6942 4.28575H30.2243C29.9814 4.28575 29.7905 4.47432 29.7905 4.71432V8.14292C29.7905 8.38292 29.9814 8.57149 30.2243 8.57149H31.9592C33.1563 8.57149 34.1279 9.5315 34.1279 10.7144V12.4287C34.1279 12.6687 34.3188 12.8572 34.5617 12.8572H38.4653V17.143H34.5617C34.3188 17.143 34.1279 17.3316 34.1279 17.5716V21.4287H29.7905V17.5716C29.7905 17.3316 29.5997 17.143 29.3568 17.143H25.4531V12.8572H27.6218C28.8189 12.8572 29.7905 13.8172 29.7905 15.0001V16.7144C29.7905 16.9544 29.9814 17.143 30.2243 17.143H33.6942C33.9371 17.143 34.1279 16.9544 34.1279 16.7144V13.2858C34.1279 13.0458 33.9371 12.8572 33.6942 12.8572H31.9592C30.7621 12.8572 29.7905 11.8972 29.7905 10.7144V9.00006C29.7905 8.76006 29.5997 8.57149 29.3568 8.57149H25.4531V4.28575H29.3568C29.5997 4.28575 29.7905 4.09717 29.7905 3.85717V0Z" fill="#121112"/>
<path d="M3.74752 35.5029C3.05353 35.5029 2.42894 35.4 1.8564 35.1943C1.30122 34.9886 0.85013 34.6629 0.503137 34.2514C0.173495 33.84 0 33.3429 0 32.76L0.0173507 32.4686H1.92581L1.90846 32.6743C1.90846 33.0514 2.08195 33.36 2.41159 33.5657C2.74124 33.7714 3.22703 33.9086 3.83426 33.9086C4.4762 33.9086 4.94464 33.8229 5.22223 33.6686C5.51718 33.4972 5.65597 33.2743 5.65597 32.9829C5.65597 32.7429 5.55187 32.5371 5.36103 32.3657C5.17018 32.1943 4.94464 32.0571 4.6497 31.9714C4.3721 31.8686 3.99041 31.7486 3.48727 31.6114C2.77594 31.4228 2.22075 31.2343 1.78701 31.0457C1.35327 30.8571 0.971577 30.6 0.676634 30.2571C0.364341 29.8971 0.208197 29.4171 0.208197 28.8514C0.208197 28.0457 0.537837 27.4285 1.19712 27.0171C1.85641 26.5885 2.72389 26.3828 3.83426 26.3828C4.85789 26.3828 5.70802 26.6057 6.34996 27.0342C7.00924 27.4628 7.33889 28.1143 7.33889 28.9714V29.1257H5.46513V29.0057C5.46513 28.68 5.30898 28.4228 5.01403 28.2343C4.71909 28.0457 4.32005 27.96 3.79956 27.96C3.24438 27.96 2.82799 28.0285 2.53304 28.1828C2.2381 28.3371 2.0993 28.5257 2.0993 28.7828C2.0993 28.9714 2.18605 29.1428 2.35955 29.2971C2.53304 29.4343 2.74124 29.5543 3.01883 29.64C3.27907 29.7257 3.64342 29.8286 4.12921 29.9657C4.84054 30.1543 5.41308 30.3428 5.86417 30.5314C6.33261 30.72 6.7143 30.9771 7.04394 31.3371C7.37358 31.6971 7.52973 32.1771 7.52973 32.7429C7.52973 33.6857 7.18274 34.3714 6.50611 34.8172C5.84682 35.28 4.92729 35.5029 3.74752 35.5029Z" fill="#121112"/>
<path d="M8.58789 26.5374H10.479V30.7888L14.5908 26.5374H16.881L13.3937 30.1202L16.933 35.3488H14.6949L12.1446 31.4231L10.479 32.7945V35.3488H8.58789V26.5374Z" fill="#121112"/>
<path d="M20.0919 31.7831L16.6914 26.5374H18.8428L21.0635 30.1374H21.1329L23.319 26.5374H25.3662L21.983 31.7831V35.3488H20.0919V31.7831Z" fill="#121112"/>
<path d="M29.4255 35.5029C26.5455 35.5029 25.1055 33.9772 25.1055 30.9428C25.1055 29.4171 25.4872 28.2857 26.2332 27.5314C26.9792 26.76 28.0549 26.3828 29.4255 26.3828C30.1716 26.3828 30.8482 26.52 31.4554 26.76C32.0627 27.0171 32.5311 27.3942 32.8781 27.9257C33.2424 28.44 33.4159 29.0743 33.4159 29.8114H31.4728C31.4728 29.2457 31.2819 28.7828 30.9176 28.4571C30.5359 28.1143 30.0675 27.96 29.4602 27.96C28.6448 27.96 28.0376 28.2 27.6385 28.68C27.2395 29.16 27.0486 29.8457 27.0486 30.7543V31.1314C27.0486 33 27.8641 33.9257 29.4602 33.9257C30.1022 33.9257 30.6053 33.7543 30.9696 33.4286C31.3513 33.1029 31.5422 32.6571 31.5422 32.0743H33.4159C33.4159 32.8286 33.2424 33.4629 32.8954 33.9772C32.5485 34.4743 32.08 34.8686 31.4728 35.1257C30.8829 35.3829 30.2063 35.5029 29.4255 35.5029Z" fill="#121112"/>
<path d="M34.4043 26.5374H36.2954V30.0345H40.1644V26.5374H42.0555V35.3488H40.1644V31.6288H36.2954V35.3488H34.4043V26.5374Z" fill="#121112"/>
<path d="M48.5787 32.1088L47.7286 29.8802C47.6245 29.6059 47.4336 29.0231 47.1734 28.1488H47.104C46.8437 29.0231 46.6529 29.6059 46.5488 29.8802L45.6986 32.1088H48.5787ZM46.0283 26.5374H48.4052L51.8925 35.3488H49.8452L49.2033 33.6688H45.1261L44.4842 35.3488H42.541L46.0283 26.5374Z" fill="#121112"/>
<path d="M54.2524 26.5374H52.3613V35.3488H54.2524V26.5374Z" fill="#121112"/>
<path d="M55.5527 26.5374H57.3918L60.827 31.3374C60.9311 31.4917 61.1046 31.766 61.3475 32.1945L61.4169 32.1603L61.3822 31.406V26.5374H63.2213V35.3488H61.3822L57.9296 30.5145C57.7561 30.2745 57.6 30.0002 57.4265 29.6574L57.3571 29.6917C57.3918 30.0517 57.3918 30.3088 57.3918 30.4631V35.3317H55.5527V26.5374Z" fill="#121112"/>
<path d="M10.2712 46.2173C7.39118 46.2173 5.95117 44.6916 5.95117 41.6573C5.95117 40.1315 6.33286 38.9829 7.0789 38.2287C7.82493 37.4744 8.9006 37.0801 10.2712 37.0801C11.0173 37.0801 11.6939 37.2172 12.3011 37.4572C12.9084 37.6972 13.3768 38.0915 13.7238 38.6229C14.0881 39.1372 14.2616 39.7715 14.2616 40.5087H12.3358C12.3358 39.9258 12.145 39.4801 11.7806 39.1544C11.3989 38.8115 10.9305 38.6572 10.3233 38.6572C9.50784 38.6572 8.90061 38.8972 8.50157 39.3772C8.10253 39.8572 7.91168 40.543 7.91168 41.4515V41.8287C7.91168 43.6801 8.72711 44.623 10.3233 44.623C10.9652 44.623 11.4683 44.4516 11.8327 44.1258C12.2144 43.8001 12.4052 43.3544 12.4052 42.7715H14.279C14.279 43.5258 14.1055 44.1601 13.7585 44.6744C13.4115 45.1887 12.9431 45.5659 12.3358 45.823C11.7286 46.0973 11.0519 46.2173 10.2712 46.2173Z" fill="#121112"/>
<path d="M20.3343 42.8234L19.4842 40.5948C19.3801 40.3205 19.1892 39.7377 18.929 38.8634H18.8596C18.5993 39.7377 18.4085 40.3205 18.3044 40.5948L17.4543 42.8234H20.3343ZM17.7666 37.252H20.1435L23.6307 46.0634H21.5661L20.9242 44.3834H16.8644L16.2225 46.0634H14.2793L17.7666 37.252Z" fill="#121112"/>
<path d="M28.1939 41.452C28.5929 41.452 28.9226 41.332 29.1308 41.1091C29.339 40.8863 29.4604 40.5605 29.4604 40.132C29.4604 39.7205 29.3563 39.412 29.1308 39.1891C28.9226 38.9491 28.5929 38.8463 28.1939 38.8463H25.9905V41.4691H28.1939V41.452ZM24.0994 37.252H28.35C29.3563 37.252 30.1023 37.5091 30.6055 38.0062C31.1086 38.5034 31.3515 39.2063 31.3515 40.132C31.3515 41.0577 31.0913 41.7606 30.5534 42.2748C30.0329 42.7891 29.2522 43.0291 28.2112 43.0291H25.9731V46.0634H24.082V37.252H24.0994Z" fill="#121112"/>
<path d="M34.2485 37.252H32.3574V46.0634H34.2485V37.252Z" fill="#121112"/>
<path d="M37.7352 38.8463H34.9766V37.252H42.3675V38.8463H39.6089V46.0634H37.7352V38.8463Z" fill="#121112"/>
<path d="M47.2774 42.8234L46.4273 40.5948C46.3232 40.3205 46.1324 39.7377 45.8721 38.8634H45.8027C45.5425 39.7377 45.3516 40.3205 45.2475 40.5948L44.3974 42.8234H47.2774ZM44.7097 37.252H47.0692L50.5565 46.0634H48.4919L47.85 44.3834H43.7902L43.1482 46.0634H41.2051L44.7097 37.252Z" fill="#121112"/>
<path d="M51.043 37.252H52.9341V44.452H57.7399V46.0634H51.043V37.252Z" fill="#121112"/>
</svg>
