<svg width="318" height="318" viewBox="0 0 318 318" fill="none" xmlns="http://www.w3.org/2000/svg">
<circle cx="159" cy="159" r="159" fill="url(#paint0_radial_1_400)"/>
<mask id="mask0_1_400" style="mask-type:alpha" maskUnits="userSpaceOnUse" x="98" y="111" width="120" height="121">
<path d="M217.952 111.53H98.1262V231.356H217.952V111.53Z" fill="#C4C4C4"/>
</mask>
<g mask="url(#mask0_1_400)">
<path d="M159.617 165.237C158.972 165.237 158.455 165.237 157.777 165.237C157.777 164.846 157.777 164.487 157.777 164.129C157.777 159.368 157.777 154.64 157.777 149.879C157.777 149.26 157.648 148.901 157.003 148.673C147.481 145.119 137.991 141.5 128.469 137.913C128.243 137.815 128.018 137.782 127.695 137.684C127.695 138.108 127.695 138.434 127.695 138.793C127.695 149.749 127.695 160.738 127.662 171.694C127.662 172.476 127.888 172.835 128.599 173.161C133.44 175.28 138.249 177.498 143.091 179.617C143.898 179.976 144.285 180.367 144.285 181.28C144.285 182.095 144.544 182.91 144.705 183.889C142.93 183.139 141.283 182.421 139.637 181.704C134.925 179.65 130.18 177.595 125.435 175.574C124.758 175.28 124.499 174.954 124.499 174.204C124.532 161.39 124.532 148.575 124.499 135.728C124.499 134.978 124.725 134.652 125.435 134.391C136.151 130.25 146.835 126.109 157.551 121.968C158.003 121.805 158.649 121.772 159.101 121.935C169.817 126.044 180.501 130.217 191.217 134.358C191.959 134.652 192.185 134.978 192.185 135.793C192.153 148.575 192.153 161.357 192.185 174.139C192.185 174.693 192.217 175.183 191.507 175.476C185.181 178.182 178.887 180.921 172.561 183.661C172.431 183.726 172.302 183.726 172.076 183.791C172.238 182.617 172.335 181.508 172.561 180.4C172.625 180.139 173.077 179.878 173.4 179.748C178.241 177.563 183.115 175.378 187.989 173.226C188.344 173.063 188.667 172.9 189.022 172.77C189.022 161.194 189.022 149.619 189.022 137.945C187.763 138.402 186.633 138.858 185.471 139.282C177.176 142.38 168.913 145.51 160.618 148.608C159.843 148.901 159.585 149.26 159.585 150.108C159.649 154.738 159.617 159.401 159.617 164.031C159.617 164.357 159.617 164.748 159.617 165.237ZM129.502 136.217C129.89 136.38 130.083 136.478 130.277 136.543C139.541 140.032 148.772 143.488 158.036 146.945C158.488 147.108 159.133 147.043 159.585 146.88C166.783 144.206 173.948 141.532 181.146 138.826C183.341 138.011 185.568 137.163 187.892 136.282C187.57 136.119 187.408 136.054 187.279 135.989C177.983 132.337 168.687 128.717 159.359 125.098C158.939 124.935 158.326 125 157.907 125.163C152.484 127.25 147.094 129.37 141.671 131.489C137.668 133.022 133.666 134.554 129.502 136.217Z" fill="white"/>
<path d="M168.653 180.823C168.653 178.377 168.104 177.595 165.844 176.845C165.264 171.171 162.907 168.302 158.646 168.204C156.871 168.171 155.257 168.758 153.87 169.932C151.739 171.758 151.126 174.171 151.287 176.845C149.092 177.432 148.415 178.345 148.415 180.529C148.415 183.008 148.415 185.486 148.415 187.964C148.415 190.442 149.512 191.551 151.965 191.551C156.355 191.551 160.745 191.583 165.134 191.551C167.523 191.551 168.62 190.409 168.653 188.029C168.685 185.649 168.653 183.236 168.653 180.823ZM162.972 177.138C160.002 177.138 157.13 177.138 154.192 177.138C153.902 174.856 154.418 172.964 156.419 171.856C157.937 170.976 159.55 171.041 161.035 172.052C162.81 173.258 163.101 175.084 162.972 177.138Z" fill="white"/>
</g>
<defs>
<radialGradient id="paint0_radial_1_400" cx="0" cy="0" r="1" gradientUnits="userSpaceOnUse" gradientTransform="translate(159 159) rotate(90) scale(159)">
<stop stop-color="#8B8DFC" stop-opacity="0.75"/>
<stop offset="1" stop-opacity="0"/>
</radialGradient>
</defs>
</svg>
