<svg width="789" height="896" viewBox="0 0 789 896" fill="none" xmlns="http://www.w3.org/2000/svg">
<ellipse cx="477.339" cy="447.859" rx="398.556" ry="356.865" transform="rotate(-15 477.339 447.859)" fill="url(#paint0_radial_1_2)"/>
<path d="M425.508 452.39H478.322L453.035 500.084H397.98L425.508 452.39Z" fill="url(#paint1_linear_1_2)"/>
<path d="M397.898 500.084H453.035L484.404 554.499H431.589L397.898 500.084Z" fill="url(#paint2_linear_1_2)"/>
<path d="M453.035 500.084L478.322 452.39L512.892 511.287L484.404 554.499L453.035 500.084Z" fill="url(#paint3_linear_1_2)"/>
<path d="M331.611 522.204L381.655 432.865H417.185L343.981 561.754C343.224 563.088 344.187 564.742 345.72 564.742H417.185V595.151H374.361C336.923 595.151 313.315 554.866 331.611 522.204Z" fill="url(#paint4_linear_1_2)"/>
<path d="M579.581 476.364L529.537 565.703L494.007 565.703L567.211 436.813C567.969 435.48 567.006 433.826 565.472 433.826L494.007 433.826L494.007 403.417L536.831 403.417C574.269 403.417 597.877 443.701 579.581 476.364Z" fill="url(#paint5_linear_1_2)"/>
<path d="M400.22 564.743H417.412L408.862 579.787L391.578 579.467L400.22 564.743Z" fill="url(#paint6_linear_1_2)"/>
<path d="M391.577 579.467L408.862 579.787L417.185 595.151H400.22L391.577 579.467Z" fill="url(#paint7_linear_1_2)"/>
<path d="M417.412 564.742L426.467 579.787L417.185 595.151L408.862 579.787L417.412 564.742Z" fill="#8B8DFC"/>
<path d="M493.687 403.417H510.651L502.329 418.461L485.044 418.141L493.687 403.417Z" fill="url(#paint8_linear_1_2)"/>
<path d="M485.044 418.141L502.329 418.461L510.651 433.826H493.686L485.044 418.141Z" fill="url(#paint9_linear_1_2)"/>
<path d="M510.651 403.417L519.546 418.461L510.651 433.826L501.941 418.461L510.651 403.417Z" fill="#8B8DFC"/>
<g opacity="0.8">
<path d="M319.039 420.588L298.631 455.24L314.316 481.488L344.472 428.523C372.926 378.55 426.009 347.69 483.514 347.69H704.825V322.083H491.373C420.537 322.083 354.986 359.552 319.039 420.588Z" fill="url(#paint10_linear_1_2)"/>
<path d="M321.337 468.26L313.675 481.488L306.429 468.286L314.044 455.531L321.337 468.26Z" fill="url(#paint11_linear_1_2)"/>
<path d="M314.044 455.531L306.429 468.286L291.909 468.044L298.658 455.284L314.044 455.531Z" fill="url(#paint12_linear_1_2)"/>
<path d="M313.676 481.488L298.951 481.488L291.909 468.044L306.634 468.044L313.676 481.488Z" fill="#8B8DFC"/>
</g>
<g opacity="0.8">
<path d="M589.695 569.529L617.646 521.45L594.599 508.966L564.385 562.286C535.976 612.419 482.804 643.404 425.181 643.404L204.09 643.404L204.09 669.011L416.79 669.011C488.03 669.011 553.891 631.117 589.695 569.529Z" fill="url(#paint13_linear_1_2)"/>
<path d="M617.626 521.345L610.251 534.253L602.718 521.371L610.332 508.617L617.626 521.345Z" fill="url(#paint14_linear_1_2)"/>
<path d="M610.332 508.617L602.718 521.372L587.557 521.13L594.947 508.37L610.332 508.617Z" fill="url(#paint15_linear_1_2)"/>
<path d="M610.29 534.168L595.206 534.502L587.557 521.13L602.718 521.372L610.29 534.168Z" fill="#8B8DFC"/>
</g>
<g opacity="0.6">
<path opacity="0.7" d="M650.674 280.879H564.815V302.325H668.866C713.521 302.325 741.425 350.67 719.089 389.336L557.453 669.148H584.34L728.875 415.427C763.054 355.428 719.725 280.879 650.674 280.879Z" fill="url(#paint16_linear_1_2)"/>
<path d="M564.737 280.878H576.523L570.741 291.33L558.733 291.108L564.737 280.878Z" fill="url(#paint17_linear_1_2)"/>
<path d="M558.733 291.107L570.741 291.33L576.523 302.004H564.737L558.733 291.107Z" fill="url(#paint18_linear_1_2)"/>
<path d="M576.338 280.878L582.972 291.33L576.658 302.324L570.741 291.33L576.338 280.878Z" fill="#8284F5"/>
</g>
<g opacity="0.6">
<path opacity="0.7" d="M266.291 700.363L351.15 700.363L351.15 678.917L247.098 678.917C202.444 678.917 174.539 630.572 196.876 591.905L358.512 312.094L334.505 312.094L188.339 565.379C153.714 625.379 197.017 700.363 266.291 700.363Z" fill="url(#paint19_linear_1_2)"/>
<path d="M339.869 678.917H351.655L345.873 689.369L333.865 689.147L339.869 678.917Z" fill="url(#paint20_linear_1_2)"/>
<path d="M333.865 689.146L345.873 689.369L351.655 700.043H339.869L333.865 689.146Z" fill="url(#paint21_linear_1_2)"/>
<path d="M351.47 678.917L358.104 689.369L351.79 700.363L345.873 689.369L351.47 678.917Z" fill="#8284F5"/>
</g>
<path opacity="0.5" d="M687.515 576.96L734.394 494.921L719.03 486.278L673.249 567.396C620.053 661.65 520.215 719.944 411.986 719.944L182.239 719.944L182.239 734.668L415.755 734.668C528.077 734.668 631.788 674.483 687.515 576.96Z" fill="url(#paint22_linear_1_2)"/>
<g opacity="0.5">
<path opacity="0.8" d="M258.632 368.663L211.752 450.702L227.117 459.344L272.898 378.227C326.093 283.973 425.932 225.679 534.16 225.679H763.907V210.955H530.392C418.07 210.955 314.359 271.14 258.632 368.663Z" fill="url(#paint23_linear_1_2)"/>
<path d="M232.042 451.398L227.117 459.665L221.355 451.022L226.797 442.38L232.042 451.398Z" fill="url(#paint24_linear_1_2)"/>
<path d="M226.797 442.38L221.675 450.702L211.112 450.702L216.234 442.38L226.797 442.38Z" fill="url(#paint25_linear_1_2)"/>
<path d="M227.117 459.665L216.36 459.665L211.112 450.702L221.65 450.702L227.117 459.665Z" fill="#5E60C5"/>
</g>
<path d="M721.147 510.061L726.072 501.794L731.834 510.437L726.392 519.079L721.147 510.061Z" fill="url(#paint26_linear_1_2)"/>
<path d="M726.393 519.079L731.514 510.757L742.077 510.757L736.956 519.079L726.393 519.079Z" fill="url(#paint27_linear_1_2)"/>
<path d="M726.072 501.794L736.829 501.794L742.077 510.757L731.539 510.757L726.072 501.794Z" fill="#5E60C5"/>
<path fill-rule="evenodd" clip-rule="evenodd" d="M443.681 481.284V476.508L436.6 476.508L443.681 470.327V464.427L451.007 472.574L443.681 481.284ZM432.205 464.427V469.203H439.286L432.205 475.384V481.284L424.879 473.136L432.205 464.427Z" fill="white"/>
<defs>
<radialGradient id="paint0_radial_1_2" cx="0" cy="0" r="1" gradientUnits="userSpaceOnUse" gradientTransform="translate(477.371 448.423) rotate(162.058) scale(409.205 441.22)">
<stop stop-color="#8B8DFC" stop-opacity="0.68"/>
<stop offset="1" stop-opacity="0"/>
</radialGradient>
<linearGradient id="paint1_linear_1_2" x1="438.151" y1="452.39" x2="453.355" y2="503.285" gradientUnits="userSpaceOnUse">
<stop stop-color="#8B8DFC"/>
<stop offset="0.794113" stop-color="#DBDCFF"/>
</linearGradient>
<linearGradient id="paint2_linear_1_2" x1="461.038" y1="554.499" x2="451.635" y2="500.383" gradientUnits="userSpaceOnUse">
<stop stop-color="#36399E" stop-opacity="0"/>
<stop offset="0.472934" stop-color="#686AC2"/>
<stop offset="1" stop-color="#EDEEFF"/>
</linearGradient>
<linearGradient id="paint3_linear_1_2" x1="499.768" y1="537.214" x2="445.19" y2="522.732" gradientUnits="userSpaceOnUse">
<stop stop-color="#36399E" stop-opacity="0"/>
<stop offset="0.472934" stop-color="#686AC2"/>
<stop offset="1" stop-color="#EDEEFF"/>
</linearGradient>
<linearGradient id="paint4_linear_1_2" x1="403.101" y1="432.865" x2="367.571" y2="603.153" gradientUnits="userSpaceOnUse">
<stop offset="0.063074" stop-color="#8B8DFC" stop-opacity="0"/>
<stop offset="1" stop-color="#8B8DFC"/>
</linearGradient>
<linearGradient id="paint5_linear_1_2" x1="525.056" y1="545.857" x2="518.014" y2="400.856" gradientUnits="userSpaceOnUse">
<stop stop-color="#8B8DFC" stop-opacity="0"/>
<stop offset="1" stop-color="#8B8DFC"/>
</linearGradient>
<linearGradient id="paint6_linear_1_2" x1="405.342" y1="585.549" x2="391.578" y2="569.544" gradientUnits="userSpaceOnUse">
<stop stop-color="#795FFE"/>
<stop offset="1" stop-color="#8974F5"/>
</linearGradient>
<linearGradient id="paint7_linear_1_2" x1="407.262" y1="580.747" x2="403.206" y2="595.674" gradientUnits="userSpaceOnUse">
<stop stop-color="#795FFE"/>
<stop offset="1" stop-color="#8974F5"/>
</linearGradient>
<linearGradient id="paint8_linear_1_2" x1="498.687" y1="424.223" x2="484.905" y2="408.339" gradientUnits="userSpaceOnUse">
<stop stop-color="#795FFE"/>
<stop offset="1" stop-color="#8974F5"/>
</linearGradient>
<linearGradient id="paint9_linear_1_2" x1="500.728" y1="419.422" x2="496.673" y2="434.348" gradientUnits="userSpaceOnUse">
<stop stop-color="#795FFE"/>
<stop offset="1" stop-color="#8974F5"/>
</linearGradient>
<linearGradient id="paint10_linear_1_2" x1="754.033" y1="307.62" x2="742.021" y2="491.56" gradientUnits="userSpaceOnUse">
<stop offset="0.0102449" stop-opacity="0"/>
<stop offset="1" stop-color="#8385FF"/>
</linearGradient>
<linearGradient id="paint11_linear_1_2" x1="305.32" y1="468.044" x2="320.779" y2="465.211" gradientUnits="userSpaceOnUse">
<stop stop-color="#795FFE"/>
<stop offset="1" stop-color="#8974F5"/>
</linearGradient>
<linearGradient id="paint12_linear_1_2" x1="296.038" y1="459.722" x2="305.646" y2="468.654" gradientUnits="userSpaceOnUse">
<stop stop-color="#795FFE"/>
<stop offset="1" stop-color="#8974F5"/>
</linearGradient>
<linearGradient id="paint13_linear_1_2" x1="154.882" y1="683.474" x2="166.894" y2="499.534" gradientUnits="userSpaceOnUse">
<stop offset="0.0102449" stop-opacity="0"/>
<stop offset="1" stop-color="#8385FF"/>
</linearGradient>
<linearGradient id="paint14_linear_1_2" x1="601.609" y1="521.129" x2="617.067" y2="518.297" gradientUnits="userSpaceOnUse">
<stop stop-color="#795FFE"/>
<stop offset="1" stop-color="#8974F5"/>
</linearGradient>
<linearGradient id="paint15_linear_1_2" x1="592.326" y1="512.807" x2="601.934" y2="521.74" gradientUnits="userSpaceOnUse">
<stop stop-color="#795FFE"/>
<stop offset="1" stop-color="#8974F5"/>
</linearGradient>
<linearGradient id="paint16_linear_1_2" x1="526.404" y1="695.395" x2="603.141" y2="287.242" gradientUnits="userSpaceOnUse">
<stop offset="0.0102449" stop-opacity="0"/>
<stop offset="1" stop-color="#8385FF"/>
</linearGradient>
<linearGradient id="paint17_linear_1_2" x1="564.174" y1="283.439" x2="569.936" y2="291.121" gradientUnits="userSpaceOnUse">
<stop stop-color="#5F61CF"/>
<stop offset="1" stop-color="#8688D8"/>
</linearGradient>
<linearGradient id="paint18_linear_1_2" x1="571.216" y1="289.841" x2="564.995" y2="303.197" gradientUnits="userSpaceOnUse">
<stop stop-color="#5F61CF"/>
<stop offset="1" stop-color="#8B8DDD"/>
</linearGradient>
<linearGradient id="paint19_linear_1_2" x1="366.834" y1="334.5" x2="316.676" y2="696.204" gradientUnits="userSpaceOnUse">
<stop offset="0.0102449" stop-opacity="0"/>
<stop offset="1" stop-color="#8385FF"/>
</linearGradient>
<linearGradient id="paint20_linear_1_2" x1="339.306" y1="681.478" x2="345.068" y2="689.16" gradientUnits="userSpaceOnUse">
<stop stop-color="#5F61CF"/>
<stop offset="1" stop-color="#8688D8"/>
</linearGradient>
<linearGradient id="paint21_linear_1_2" x1="346.348" y1="687.879" x2="340.127" y2="701.236" gradientUnits="userSpaceOnUse">
<stop stop-color="#5F61CF"/>
<stop offset="1" stop-color="#8B8DDD"/>
</linearGradient>
<linearGradient id="paint22_linear_1_2" x1="187.04" y1="731.787" x2="513.837" y2="256.267" gradientUnits="userSpaceOnUse">
<stop offset="0.0102449" stop-opacity="0"/>
<stop offset="0.976724" stop-color="#8385FF"/>
</linearGradient>
<linearGradient id="paint23_linear_1_2" x1="759.106" y1="213.835" x2="432.31" y2="689.356" gradientUnits="userSpaceOnUse">
<stop offset="0.0102449" stop-opacity="0"/>
<stop offset="0.976724" stop-color="#8385FF"/>
</linearGradient>
<linearGradient id="paint24_linear_1_2" x1="230.367" y1="449.87" x2="222.12" y2="450.863" gradientUnits="userSpaceOnUse">
<stop stop-color="#5F61CF"/>
<stop offset="1" stop-color="#8688D8"/>
</linearGradient>
<linearGradient id="paint25_linear_1_2" x1="222.56" y1="452.093" x2="215.245" y2="441.655" gradientUnits="userSpaceOnUse">
<stop stop-color="#5F61CF"/>
<stop offset="1" stop-color="#8B8DDD"/>
</linearGradient>
<linearGradient id="paint26_linear_1_2" x1="722.822" y1="511.589" x2="731.069" y2="510.596" gradientUnits="userSpaceOnUse">
<stop stop-color="#5F61CF"/>
<stop offset="1" stop-color="#8688D8"/>
</linearGradient>
<linearGradient id="paint27_linear_1_2" x1="730.629" y1="509.366" x2="737.944" y2="519.804" gradientUnits="userSpaceOnUse">
<stop stop-color="#5F61CF"/>
<stop offset="1" stop-color="#8B8DDD"/>
</linearGradient>
</defs>
</svg>
