<svg width="346" height="59" viewBox="0 0 346 59" fill="none" xmlns="http://www.w3.org/2000/svg">
<path d="M0 41.0533L8.83536 26.5841H0.249469V21.8927H14.4692V26.6811L5.68928 41.1503H14.4692V45.8417H0V41.0533Z" fill="white"/>
<path d="M17.4628 12.4127H22.4522V30.6725L28.19 21.8925H33.4288L27.7396 30.624L33.4773 45.8416H28.5365L24.5935 35.5094L22.4453 39.002V45.8416H17.4559V12.4127H17.4628Z" fill="#8B8DFC"/>
<path d="M33.3801 38.4061V29.3282C33.3801 24.4844 36.2767 21.6432 41.1136 21.6432C45.9506 21.6432 48.8472 24.4844 48.8472 29.3282V35.066H38.3695V37.0618C38.3695 39.9584 39.2149 41.2057 41.1136 41.2057C43.0124 41.2057 43.8578 39.8059 43.8578 38.5586V37.8102H48.8472V39.404C48.8472 43.742 45.9506 46.0912 41.1136 46.0912C36.2767 46.0912 33.3801 43.25 33.3801 38.4061V38.4061ZM43.8093 31.1715V29.9242C43.8093 27.776 42.9084 26.5286 41.1136 26.5286C39.3188 26.5286 38.3695 27.776 38.3695 29.9242V31.1715H43.8093Z" fill="white"/>
<path d="M54.7309 45.0448L49.0416 21.8927H54.031L57.3226 37.3113L60.6142 21.8927H65.6036L56.5742 58.3152H51.3353L54.7309 45.0448V45.0448Z" fill="white"/>
<path d="M74.5914 8.42117H82.6229C87.2658 8.42117 90.6544 11.4633 90.6544 16.1547V24.4842C90.6544 29.2241 87.2589 32.2177 82.6229 32.2177H78.7838V45.8415H74.5914V8.42117V8.42117ZM82.6229 28.2332C84.8681 28.2332 86.4619 26.7364 86.4619 23.4448V17.208C86.4619 13.9164 84.8681 12.4196 82.6229 12.4196H78.7838V28.2401H82.6229V28.2332Z" fill="white"/>
<path d="M92.8996 22.2876H96.4892V24.3318C96.7387 23.9299 98.5335 22.2876 101.382 22.2876H102.13V26.5285C98.5404 25.7316 96.8911 26.875 96.8911 30.721V45.8416H92.8996V22.2876V22.2876Z" fill="white"/>
<path d="M103.329 38.8081V29.3282C103.329 24.6853 106.024 22.0451 110.515 22.0451C115.005 22.0451 117.652 24.6923 117.652 29.3282V38.8081C117.652 43.451 115.005 46.0912 110.515 46.0912C106.024 46.0912 103.329 43.444 103.329 38.8081ZM113.661 37.6577V30.4716C113.661 27.277 112.615 25.9327 110.515 25.9327C108.415 25.9327 107.32 27.277 107.32 30.4716V37.6577C107.32 40.8523 108.415 42.1967 110.515 42.1967C112.615 42.1967 113.661 40.8523 113.661 37.6577Z" fill="white"/>
<path d="M121.387 22.2876V16.4528H125.379V22.2876H129.072V25.9326H125.379V37.3112C125.379 40.5543 126.474 41.9541 128.573 41.9541H129.322V45.8486H128.573C124.083 45.8486 121.387 43.1044 121.387 38.517V25.9396H118.297V22.2945H121.387V22.2876Z" fill="white"/>
<path d="M130.971 38.8081V29.3282C130.971 24.6853 133.667 22.0451 138.157 22.0451C142.648 22.0451 145.295 24.6923 145.295 29.3282V38.8081C145.295 43.451 142.648 46.0912 138.157 46.0912C133.667 46.0912 130.971 43.444 130.971 38.8081ZM141.303 37.6577V30.4716C141.303 27.277 140.257 25.9327 138.157 25.9327C136.058 25.9327 134.963 27.277 134.963 30.4716V37.6577C134.963 40.8523 136.058 42.1967 138.157 42.1967C140.257 42.1967 141.303 40.8523 141.303 37.6577Z" fill="white"/>
<path d="M147.783 38.8081V29.3282C147.783 24.6853 150.478 22.0451 154.969 22.0451C159.459 22.0451 162.106 24.6923 162.106 29.3282V31.324H158.115V30.5756C158.115 27.284 157.02 25.9327 154.969 25.9327C152.918 25.9327 151.774 27.277 151.774 30.4716V37.6577C151.774 40.8523 152.869 42.1967 154.969 42.1967C157.069 42.1967 158.115 40.8523 158.115 37.5538V36.8054H162.106V38.8011C162.106 43.444 159.459 46.0842 154.969 46.0842C150.478 46.0842 147.783 43.4371 147.783 38.8011V38.8081Z" fill="white"/>
<path d="M164.352 38.8081V29.3282C164.352 24.6853 167.047 22.0451 171.538 22.0451C176.028 22.0451 178.675 24.6923 178.675 29.3282V38.8081C178.675 43.451 176.028 46.0912 171.538 46.0912C167.047 46.0912 164.352 43.444 164.352 38.8081V38.8081ZM174.684 37.6577V30.4716C174.684 27.277 173.637 25.9327 171.538 25.9327C169.438 25.9327 168.343 27.277 168.343 30.4716V37.6577C168.343 40.8523 169.438 42.1967 171.538 42.1967C173.637 42.1967 174.684 40.8523 174.684 37.6577Z" fill="white"/>
<path d="M182.008 8.42117H186V45.8415H182.008V8.42117Z" fill="white"/>
<path d="M19.999 16.4875C15.5502 16.4875 11.9329 12.8702 11.9329 8.4213C11.9329 3.97243 15.5571 0.362061 19.999 0.362061C24.441 0.362061 28.0652 3.97936 28.0652 8.42823C28.0652 12.8771 24.4479 16.4944 19.999 16.4944V16.4875ZM19.999 4.51988C17.8439 4.51988 16.0907 6.27309 16.0907 8.42823C16.0907 10.5834 17.8439 12.3366 19.999 12.3366C22.1542 12.3366 23.9074 10.5834 23.9074 8.42823C23.9074 6.27309 22.1542 4.51988 19.999 4.51988V4.51988Z" fill="#8B8DFC"/>
<path d="M200.64 45H205.68V9H200.64V45ZM210.521 45H215.321V30.36C215.321 28.44 215.801 26.424 217.961 26.424C220.121 26.424 220.601 28.44 220.601 30.36V45H225.401V29.112C225.401 24.168 222.905 21.72 219.305 21.72C216.617 21.72 215.081 23.448 214.841 23.784V21.96H210.521V45ZM228.297 21.96V26.28H231.225V37.608C231.225 42.264 234.009 45 238.665 45H239.385V40.296H238.665C236.841 40.296 236.025 39.096 236.025 36.312V26.28H239.049V21.96H236.025V16.296H231.225V21.96H228.297ZM243.052 45H247.852V30.6C247.852 27.144 249.436 26.184 252.796 27.096V21.96H252.076C249.388 21.96 247.612 23.544 247.372 23.88V21.96H243.052V45ZM262.431 45.24C267.087 45.24 269.871 42.504 269.871 37.848V29.112C269.871 24.456 267.087 21.72 262.431 21.72C257.775 21.72 254.991 24.456 254.991 29.112V37.848C254.991 42.504 257.775 45.24 262.431 45.24ZM262.431 40.536C260.607 40.536 259.791 39.336 259.791 36.552V30.408C259.791 27.624 260.607 26.424 262.431 26.424C264.255 26.424 265.071 27.624 265.071 30.408V36.552C265.071 39.336 264.255 40.536 262.431 40.536ZM288.012 45V9H283.212V23.784C282.972 23.496 281.628 21.72 279.228 21.72C275.628 21.72 273.132 24.168 273.132 29.112V37.848C273.132 42.792 275.868 45.24 279.468 45.24C282.204 45.24 283.5 43.464 283.692 43.176V45H288.012ZM280.572 40.536C278.412 40.536 277.932 38.52 277.932 36.6V30.36C277.932 28.44 278.412 26.424 280.572 26.424C282.732 26.424 283.212 28.44 283.212 30.36V36.6C283.212 38.52 282.732 40.536 280.572 40.536ZM298.695 45.24C301.383 45.24 302.919 43.512 303.159 43.176V45H307.479V21.96H302.679V36.6C302.679 38.52 302.199 40.536 300.039 40.536C297.879 40.536 297.399 38.52 297.399 36.6V21.96H292.599V37.848C292.599 42.792 295.095 45.24 298.695 45.24ZM318.775 45.24C323.431 45.24 326.215 42.504 326.215 37.848V35.832H321.415V36.552C321.415 39.432 320.551 40.536 318.775 40.536C316.951 40.536 316.135 39.336 316.135 36.552V30.408C316.135 27.624 316.951 26.424 318.775 26.424C320.551 26.424 321.415 27.528 321.415 30.408V31.128H326.215V29.112C326.215 24.456 323.431 21.72 318.775 21.72C314.119 21.72 311.335 24.456 311.335 29.112V37.848C311.335 42.504 314.119 45.24 318.775 45.24ZM336.728 45.24C341.384 45.24 344.168 42.984 344.168 38.808V37.272H339.368V37.992C339.368 39.192 338.504 40.536 336.728 40.536C334.904 40.536 334.088 39.336 334.088 36.552V34.632H344.168V29.112C344.168 24.456 341.384 21.72 336.728 21.72C332.072 21.72 329.288 24.456 329.288 29.112V37.848C329.288 42.504 332.072 45.24 336.728 45.24ZM334.088 30.888V29.688C334.088 27.624 335 26.424 336.728 26.424C338.456 26.424 339.32 27.624 339.32 29.688V30.888H334.088Z" fill="white"/>
</svg>
