<svg width="1170" height="200" viewBox="0 0 1170 200" fill="none" xmlns="http://www.w3.org/2000/svg">
<rect x="-23" width="1204" height="176" fill="url(#paint0_linear_5039_12579)"/>
<g filter="url(#filter0_f_5039_12579)">
<path d="M1180.17 129.549C725.101 94.1788 188.444 108.188 -23 119.613V214H1180.17C1180.8 213.669 1181.67 196.315 1180.17 129.549Z" fill="url(#paint1_linear_5039_12579)"/>
</g>
<path d="M707.943 126.191C703.489 126.488 702.128 124.83 702.004 123.964C702.623 122.232 705.79 116.243 713.511 106.147C729.101 102.806 733.556 116.169 735.412 121.366C726.503 118.767 713.511 125.82 707.943 126.191Z" fill="#F8AE63"/>
<path d="M728.359 111.715C721.232 103.697 714.253 107.137 711.655 109.859V107.632C720.193 105.157 747.587 97.3865 788.864 86.1021C821.158 84.9885 833.037 97.9804 854.938 135.1C880.179 173.334 917.67 154.774 936.601 138.812C876.838 222.332 731.328 209.711 702.375 207.855C714.625 203.03 727.245 188.924 733.556 161.827C739.866 134.729 732.071 117.654 728.359 111.715Z" fill="#FDEAD0"/>
<path d="M730.585 111.715C723.458 103.697 716.48 107.137 713.882 109.859V107.632C722.419 105.157 749.814 97.3865 791.091 86.1021C823.385 84.9885 835.263 97.9804 857.164 135.1C882.406 173.334 919.897 154.774 938.828 138.812C879.065 222.332 733.555 209.711 704.602 207.855C716.851 203.03 729.472 188.924 735.782 161.827C742.093 134.729 734.297 117.654 730.585 111.715Z" fill="url(#paint2_linear_5039_12579)"/>
<path d="M678.764 118.025C674.31 108.374 674.309 0.231239 675.794 -32.3105H770.821C744.466 45.27 789.381 82.761 796.063 87.2154C789.381 87.2154 721.823 107.26 716.997 108.003C712.172 108.745 711.058 114.313 705.119 122.479C699.18 130.646 682.949 127.094 678.764 118.025Z" fill="url(#paint3_linear_5039_12579)"/>
<path d="M682.33 116.912C677.876 107.26 677.876 -0.882103 679.361 -33.4238H774.388C748.032 44.1566 792.948 81.6477 799.629 86.1021C792.948 86.1021 725.389 106.147 720.564 106.889C715.738 107.632 714.625 113.2 708.685 121.366C702.746 129.532 686.516 125.98 682.33 116.912Z" fill="url(#paint4_linear_5039_12579)"/>
<g filter="url(#filter1_f_5039_12579)">
<ellipse cx="859.763" cy="172.517" rx="49.5328" ry="13.681" transform="rotate(0.96959 859.763 172.517)" fill="#F2E3BC"/>
</g>
<path d="M810.395 167.587V144.751L965.927 143.637L965.325 162.589C965.235 165.412 963.997 168.111 961.644 169.673C952.573 175.694 931.602 184.625 882.407 185.583C837.099 186.466 817.499 177.887 811.814 171.915C810.724 170.77 810.395 169.168 810.395 167.587Z" fill="#F6C286"/>
<ellipse cx="888.346" cy="143.638" rx="77.5805" ry="14.8479" fill="url(#paint5_linear_5039_12579)"/>
<ellipse cx="888.344" cy="143.267" rx="70.1565" ry="11.5072" fill="#FFBD81"/>
<g filter="url(#filter2_f_5039_12579)">
<ellipse cx="887.976" cy="146.607" rx="66.8157" ry="8.16637" fill="url(#paint6_radial_5039_12579)"/>
</g>
<path d="M775.721 157.012C778.135 162.411 766.873 172.697 750.567 179.988C734.261 187.279 719.086 188.814 716.672 183.415C709.332 173.222 725.52 167.73 741.826 160.439C758.132 153.148 772.807 144.639 775.721 157.012Z" fill="url(#paint7_linear_5039_12579)"/>
<ellipse cx="743.895" cy="165.976" rx="32.3415" ry="10.7072" transform="rotate(-24.0914 743.895 165.976)" fill="#F2EF91"/>
<ellipse cx="743.894" cy="165.977" rx="27.3798" ry="9.06457" transform="rotate(-24.0914 743.894 165.977)" fill="#E8AB52"/>
<ellipse cx="744.43" cy="167.173" rx="27.3798" ry="7.75412" transform="rotate(-24.0914 744.43 167.173)" fill="url(#paint8_linear_5039_12579)"/>
<path d="M1105.65 149.035C1104.02 154.72 1088.78 155.34 1071.61 150.421C1054.44 145.502 1041.84 136.906 1043.47 131.221C1044.41 118.695 1060.33 124.916 1077.51 129.835C1094.68 134.754 1111.38 137.691 1105.65 149.035Z" fill="url(#paint9_linear_5039_12579)"/>
<ellipse cx="1075.52" cy="135.403" rx="32.3415" ry="10.7072" transform="rotate(15.9861 1075.52 135.403)" fill="#F2EF91"/>
<ellipse cx="1075.52" cy="135.404" rx="27.3798" ry="9.06457" transform="rotate(15.9861 1075.52 135.404)" fill="#E8AB52"/>
<ellipse cx="1075.16" cy="136.663" rx="27.3798" ry="7.75412" transform="rotate(15.9861 1075.16 136.663)" fill="url(#paint10_linear_5039_12579)"/>
<path d="M626.721 71.0115C629.135 76.4098 617.873 86.6966 601.567 93.9877C585.261 101.279 570.086 102.813 567.672 97.4147C560.332 87.2209 576.52 81.7296 592.826 74.4385C609.132 67.1474 623.807 58.6381 626.721 71.0115Z" fill="url(#paint11_linear_5039_12579)"/>
<ellipse cx="594.895" cy="79.976" rx="32.3415" ry="10.7072" transform="rotate(-24.0914 594.895 79.976)" fill="#F2EF91"/>
<ellipse cx="594.894" cy="79.9759" rx="27.3798" ry="9.06457" transform="rotate(-24.0914 594.894 79.9759)" fill="#E8AB52"/>
<ellipse cx="595.43" cy="81.1723" rx="27.3798" ry="7.75412" transform="rotate(-24.0914 595.43 81.1723)" fill="url(#paint12_linear_5039_12579)"/>
<path d="M939.94 134.729C908.759 176.304 838.85 201.298 807.793 208.598L982.999 202.659C974.709 188.677 954.491 155.516 939.94 134.729Z" fill="#FDEAD0"/>
<path d="M939.94 135.843C908.759 177.417 838.85 202.411 807.793 209.711L982.999 203.772C974.709 189.79 954.491 156.63 939.94 135.843Z" fill="url(#paint13_linear_5039_12579)"/>
<path d="M924.543 136.81C924.211 140.843 909.296 139.712 891.076 136.412C872.856 133.112 858.161 128.913 858.494 124.88C858.826 120.847 873.867 120.269 892.125 123.524C910.345 126.824 924.875 132.777 924.543 136.81Z" fill="#FDDFB7"/>
<path d="M913.787 102.589C915.869 102.459 917.952 102.329 920.052 102.571C925.058 103.145 929.545 104.818 932.893 108.862C935.309 111.784 935.981 115.03 935.486 118.367C935.221 120.202 934.531 121.848 933.617 123.462C932.829 123.993 932.034 124.483 932.088 125.599C931.758 125.987 931.392 126.417 931.062 126.804C930.409 126.832 929.705 126.82 929.059 126.889C926.555 127.12 924.106 126.893 921.694 125.836C919.477 124.894 918.115 123.294 917.41 121.169C917.391 120.797 917.666 120.868 917.964 120.814C919.062 120.56 919.273 119.722 919.151 118.732C919.051 117.866 918.462 117.228 917.631 116.973C916.337 116.573 914.959 118.828 915.3 119.56C915.435 119.844 915.738 120.08 915.575 120.418C915.444 120.424 915.314 120.43 915.19 120.476C913.444 121.048 911.614 121.375 909.737 121.165C907.195 120.9 904.675 120.51 902.286 119.328C899.659 118.03 897.455 116.384 895.715 114.095C895.951 113.671 896.46 113.566 896.861 113.342C897.692 112.809 897.917 112.053 897.354 111.041C897.42 110.914 897.386 110.708 897.503 110.62C898.536 109.457 899.577 108.335 900.876 107.451C902.365 106.392 904.033 105.617 905.63 104.678C905.855 104.71 906.029 104.703 906.233 104.611C908.547 103.766 910.868 102.963 913.48 102.851C913.654 102.844 913.727 102.758 913.787 102.589ZM923.971 106.092C923.109 105.922 922.255 105.792 921.455 105.992C921.034 106.093 920.418 106.078 920.514 106.654C920.653 107.229 921.249 107.12 921.705 107.225C921.748 107.223 921.748 107.223 921.792 107.221C923.242 107.243 924.564 107.808 925.716 108.671C928.12 110.475 929.251 112.789 929.132 115.488C929.118 116.193 929.147 116.897 929.765 117.45C930.233 117.886 930.819 117.986 931.394 117.754C932.086 117.434 932.432 116.881 932.352 116.138C932.236 114.651 931.945 113.171 931.227 111.751C929.731 108.831 927.423 106.815 923.971 106.092ZM930.846 120.513C930.851 120.015 930.571 119.654 930.028 119.553C929.579 119.489 929.135 119.716 929.08 120.174C929.031 120.673 929.318 121.076 929.948 121.173C930.527 121.231 930.798 121.012 930.846 120.513Z" fill="#F5CF90"/>
<path d="M857.991 116.352C856.312 113.898 854.923 111.349 854.406 108.514C853.277 102.269 856.99 97.4729 863.477 96.4509C868.136 95.7553 872.721 96.7191 877.232 98.5556C877.564 98.707 877.933 98.8155 878.258 98.9259C878.379 99.1278 878.573 99.2437 878.761 99.3185C880.176 99.9206 881.531 100.691 882.769 101.549C883.661 102.173 884.604 102.837 885.497 103.462C885.751 104.196 886.501 104.495 886.982 105.013C888.437 106.649 889.813 108.329 891.028 110.099C891.485 110.742 891.746 111.518 892.4 112.028C892.371 112.112 892.384 112.194 892.348 112.237C891.148 113.448 891.417 114.803 893.081 115.85C892.229 117.045 890.897 117.723 889.507 118.321C886.684 119.518 883.617 119.773 880.369 119.207C878.698 118.906 877.13 118.435 875.557 117.674C873.891 116.875 872.532 115.815 871.159 114.673C871.182 114.548 871.211 114.464 871.378 114.415C872.244 114.088 872.8 113.485 872.643 112.539C872.499 111.676 872.034 110.992 871.009 110.622C869.89 110.214 868.807 110.55 868.202 111.652C867.84 112.372 868.192 113.433 869.035 114.018C869.279 114.173 869.765 114.194 869.783 114.566C868.936 115.265 867.734 115.937 866.665 116.355C864.199 117.33 861.605 117.275 858.893 116.769C858.575 116.7 858.22 116.674 857.991 116.352ZM872.662 100.572C870.181 100.14 868.348 100.177 867.278 100.595C866.951 100.733 866.624 100.871 866.736 101.281C866.891 101.688 867.276 101.63 867.58 101.617C871.742 101.357 875.219 103.03 878.345 105.754C879.056 106.345 879.615 107.066 879.976 107.92C880.429 109.06 881.381 109.517 882.377 109.184C883.286 108.856 883.55 107.809 882.943 106.8C882.28 105.71 881.383 104.796 880.369 103.97C877.975 101.961 875.084 101.173 872.662 100.572ZM884.618 110.538C883.938 110.401 883.224 110.846 883.116 111.513C883.045 112.137 883.502 112.78 884.182 112.917C884.905 113.051 885.656 112.564 885.728 111.94C885.842 111.314 885.341 110.673 884.618 110.538Z" fill="#F5CF90"/>
<path d="M870.182 112.481C871.584 113.679 872.979 114.834 874.673 115.628C876.278 116.426 877.923 116.918 879.585 117.236C882.901 117.829 886.032 117.561 888.913 116.304C890.332 115.677 891.648 114.968 892.561 113.712C893.115 113.818 893.662 113.88 894.216 113.986C895.947 116.386 898.239 118.109 900.92 119.468C903.401 120.705 905.972 121.114 908.521 121.392C910.428 121.569 912.302 121.269 914.083 120.67C914.209 120.621 914.349 120.658 914.475 120.609C915.169 120.752 915.849 120.809 916.347 121.395C917.067 123.622 918.457 125.299 920.719 126.285C923.179 127.393 925.677 127.63 928.231 127.388C928.89 127.315 929.563 127.329 930.274 127.298C930.711 127.235 931.148 127.172 931.585 127.11C932.01 127.525 932.405 128.029 933.017 128.219C933.113 128.259 933.045 128.392 933.015 128.48C932.678 128.886 932.393 129.333 931.991 129.611C930.465 130.677 929.615 132.322 928.346 133.594C927.771 134.184 927.453 134.979 926.988 135.695C926.502 135.456 926.165 135.036 925.635 134.799C924.036 134.044 922.506 133.156 920.908 132.401C919.552 131.765 918.204 131.173 916.818 130.626C915.337 130.04 913.862 129.497 912.351 128.998C911.259 128.612 910.212 128.224 909.091 127.926C907.689 127.553 906.287 127.18 904.922 126.763C902.613 126.039 900.326 125.445 898.015 124.982C892.698 123.913 887.331 122.802 881.973 122.3C879.704 122.096 877.435 121.891 875.142 121.818C874.063 121.779 872.932 121.699 871.859 121.702C871.009 121.696 870.158 121.69 869.314 121.727C867.361 121.813 865.349 121.815 863.393 122.162C861.481 122.506 859.504 122.724 857.635 123.327C856.401 119.863 854.796 116.589 852.189 113.751C852.481 113.347 852.941 113.153 853.394 112.916C854.418 113.435 855.425 114.129 856.638 114.163C856.872 114.5 857.241 114.571 857.61 114.641C860.379 115.171 863.071 115.226 865.543 114.206C866.635 113.767 867.661 113.2 868.525 112.467C869.105 112.181 869.628 112.375 870.182 112.481Z" fill="#F4E3C8"/>
<path d="M857.091 122.685C858.92 122.078 860.901 121.858 862.861 121.508C864.777 121.16 866.793 121.159 868.795 121.07C869.641 121.032 870.493 121.038 871.346 121.044C872.42 121.04 873.554 121.122 874.636 121.161C876.888 121.237 879.207 121.441 881.48 121.647C886.85 122.154 892.229 123.274 897.556 124.353C899.872 124.82 902.165 125.42 904.478 126.15C905.846 126.572 907.251 126.948 908.656 127.324C909.736 127.627 910.829 128.017 911.923 128.407C913.445 128.953 914.915 129.457 916.4 130.049C917.789 130.601 919.133 131.155 920.498 131.84C922.1 132.602 923.627 133.455 925.235 134.26C925.722 134.502 926.104 134.923 926.591 135.165C927.488 136.834 927.373 138.067 926.388 138.9C925.678 139.501 924.833 139.539 923.924 139.184C922.587 138.674 921.266 137.987 919.959 137.388C918.653 136.788 917.316 136.277 915.986 135.81C913.843 135.029 911.639 134.425 909.473 133.776C909.192 133.701 908.949 133.58 908.668 133.505C902.729 131.971 892.43 128.964 880.867 127.285C869.301 125.87 860.684 127.172 859.166 126.933C858.522 126.83 857.916 126.682 857.319 126.313C856.625 125.906 856.11 125.49 856.035 124.748C855.888 123.834 856.162 123.033 857.091 122.685Z" fill="#FAF0DD"/>
<path d="M887.027 103.152C886.127 102.52 885.177 101.847 884.277 101.215C882.985 100.347 881.662 99.5649 880.236 98.9549C880.047 98.8791 879.851 98.7617 879.729 98.5572C881.299 94.7145 884.295 92.2788 888.277 90.7238C895.991 87.7083 906.257 91.2949 911.1 97.5892C912.572 99.5396 913.788 101.543 914.262 103.872C914.29 104.038 914.405 104.201 914.477 104.366C914.417 104.536 914.343 104.623 914.168 104.631C911.536 104.744 909.198 105.557 906.867 106.412C906.662 106.505 906.486 106.512 906.26 106.48C906.203 106.399 906.145 106.317 906.043 106.238C904.486 104.836 903.969 103.055 903.848 101.256C903.744 99.8344 903.825 99.7889 902.272 99.478C901.215 99.2297 900.329 98.6804 899.634 97.9552C898.296 96.5444 897.544 94.9406 897.992 93.1176C898.092 92.6519 897.928 92.1975 897.374 92.0535C896.827 91.9511 896.677 92.377 896.571 92.8011C896.548 92.9279 896.568 93.0528 896.545 93.1797C896.321 95.2867 894.285 97.3876 892.005 97.4854C890.908 97.5324 890.684 98.0454 890.421 98.8537C889.938 100.468 889.215 101.968 887.477 102.671C887.265 102.722 887.073 102.898 887.027 103.152Z" fill="#F9CF8C"/>
<path d="M853.508 115.631C853.235 116.049 852.885 116.267 852.351 116.412C850.752 116.602 849.409 116.01 849.105 114.438C848.8 112.867 849.446 112.108 850.855 111.804C851.971 111.554 853.381 112.55 853.74 113.672C853.903 114.396 853.614 114.977 853.508 115.631Z" fill="#FAF0DD"/>
<path d="M933.662 126.662C933.691 126.579 933.799 126.453 933.664 126.418C933.078 126.24 932.699 125.769 932.292 125.381C932.402 125.011 932.092 124.699 932.075 124.335C932.021 123.241 932.411 122.493 933.569 122.241C935.229 122.17 936.703 123.812 936.628 124.911C936.554 126.01 935.49 126.827 934.271 126.717C934.052 126.686 933.875 126.653 933.662 126.662Z" fill="#FAF0DD"/>
<path d="M887.027 102.874C887.072 102.63 887.214 102.462 887.491 102.329C889.167 101.65 889.865 100.204 890.33 98.6472C890.584 97.8677 890.758 97.3749 891.858 97.3277C894.058 97.2334 896.022 95.2075 896.239 93.1757C896.261 93.0534 896.241 92.9328 896.263 92.8105C896.323 92.4034 896.51 91.9909 897.038 92.0896C897.566 92.1884 897.773 92.6649 897.635 93.1158C897.244 94.8719 897.963 96.3783 899.219 97.7807C899.895 98.5202 900.75 99.0499 901.763 99.2492C903.226 99.5909 903.184 99.5928 903.283 100.964C903.408 102.738 903.899 104.416 905.402 105.768C905.5 105.844 905.555 105.923 905.611 106.001C904.052 106.877 902.438 107.675 900.99 108.707C899.728 109.571 898.717 110.666 897.712 111.801C897.641 111.885 897.632 112.088 897.567 112.212C896.57 111.081 895.432 110.645 894.088 111.269C894.01 111.312 893.869 111.238 893.785 111.241C893.141 110.702 892.894 109.985 892.449 109.357C891.261 107.587 889.93 105.986 888.514 104.388C888.047 103.882 887.274 103.592 887.027 102.874Z" fill="#F4E3C8"/>
<path d="M924.72 105.987C928.017 106.692 930.251 108.654 931.746 111.536C932.441 112.919 932.765 114.358 932.835 115.808C932.871 116.532 932.584 117.11 931.909 117.381C931.394 117.605 930.82 117.468 930.333 117.085C929.693 116.548 929.706 115.861 929.72 115.175C929.793 112.548 928.699 110.295 926.415 108.537C925.3 107.697 924.022 107.147 922.619 107.126C922.577 107.128 922.577 107.128 922.535 107.13C922.094 107.028 921.518 107.133 921.382 106.574C921.247 106.015 921.886 106.028 922.293 105.93C923.06 105.695 923.887 105.821 924.72 105.987Z" fill="#F4E3C8"/>
<path d="M914.924 119.468C914.47 118.552 914.419 117.985 914.731 117.28C915.181 116.366 916.316 115.951 917.579 116.304C918.395 116.554 919.246 117.535 919.345 118.385C919.463 119.356 918.735 120.404 917.658 120.653C916.917 120.848 915.411 120.587 914.924 119.468Z" fill="#FAF0DD"/>
<path d="M893.072 110.854C894.434 110.225 895.656 110.826 896.665 111.965C897.269 112.999 897.219 113.735 896.52 114.458C896.11 114.843 895.837 115.017 895.215 115.166C894.5 115.278 893.788 115.146 893.306 114.84C891.667 113.809 891.417 112.311 892.635 111.077C892.678 111.075 892.993 110.898 893.072 110.854Z" fill="#FAF0DD"/>
<path d="M930.994 119.687C930.947 120.177 930.682 120.392 930.156 120.333C929.538 120.237 929.257 119.842 929.305 119.352C929.316 118.904 929.795 118.681 930.235 118.743C930.725 118.844 931.042 119.197 930.994 119.687Z" fill="#F4E3C8"/>
<path d="M872.983 100.643C875.408 101.245 878.304 102.035 880.738 104.006C881.754 104.834 882.652 105.75 883.317 106.842C883.924 107.853 883.66 108.902 882.75 109.232C881.752 109.565 880.755 109.109 880.345 107.965C879.983 107.109 879.431 106.427 878.711 105.794C875.58 103.064 872.054 101.389 867.929 101.648C867.624 101.661 867.195 101.72 867.083 101.31C866.927 100.902 867.299 100.762 867.627 100.623C868.661 100.247 870.541 100.208 872.983 100.643Z" fill="#F4E3C8"/>
<path d="M868.837 114.256C868.011 113.681 867.427 112.242 867.825 111.534C868.419 110.451 869.438 110.123 870.579 110.521C871.586 110.885 872.041 111.557 872.183 112.405C872.337 113.334 871.769 114.049 870.926 114.411C870.241 114.684 869.473 114.717 868.837 114.256Z" fill="#FAF0DD"/>
<path d="M884.795 109.931C885.463 110.065 885.956 110.696 885.886 111.309C885.822 111.963 885.042 112.444 884.367 112.27C883.699 112.135 883.249 111.503 883.319 110.89C883.425 110.234 884.127 109.797 884.795 109.931Z" fill="#F4E3C8"/>
<path d="M899.388 104.781C899.272 106.644 898.668 108.124 896.695 108.774C894.925 109.375 892.746 108.015 892.229 106.179C891.725 104.424 892.167 102.991 892.869 101.588C893.378 100.556 895.036 99.7981 896.433 100.021C897.611 100.213 898.719 101.256 899.136 102.49C899.389 103.246 899.473 104.01 899.388 104.781ZM893.83 104.05C893.719 104.661 893.796 105.385 894.169 106.096C894.77 107.16 895.569 107.368 896.469 106.643C897.581 105.666 897.79 104.365 897.509 102.923C897.347 102.203 897.058 101.488 896.097 101.328C895.094 101.169 894.674 101.712 894.232 102.377C893.932 102.875 893.85 103.403 893.83 104.05Z" fill="#FAF0DD"/>
<path d="M893.876 104.06C893.896 103.417 893.977 102.891 894.266 102.357C894.654 101.658 895.109 101.116 896.105 101.314C897.052 101.473 897.378 102.182 897.497 102.899C897.774 104.333 897.568 105.627 896.472 106.598C895.633 107.357 894.845 107.15 894.204 106.054C893.843 105.387 893.773 104.707 893.876 104.06ZM896.089 103.764C896.691 103.858 896.971 103.525 897.011 103.001C897.037 102.397 896.674 101.972 896.03 101.879C895.47 101.783 895.1 102.08 895.109 102.642C895.117 103.203 895.439 103.631 896.089 103.764Z" fill="#F5CF90"/>
<path d="M896.224 103.787C895.559 103.653 895.23 103.221 895.221 102.653C895.219 102.125 895.597 101.825 896.164 101.882C896.823 101.975 897.194 102.406 897.167 103.016C897.127 103.545 896.84 103.882 896.224 103.787Z" fill="#FDFAF4"/>
<path d="M997.316 89.7685C995.725 92.8091 985.98 91.2474 974.745 87.9034C963.509 84.5594 954.977 80.6811 956.569 77.6406C958.161 74.6001 968.588 74.8586 979.823 78.2026C991.058 81.5467 998.889 86.7642 997.316 89.7685Z" fill="#FBF2E1"/>
<path d="M999.962 70.7677C999.801 71.0025 999.663 70.9636 999.469 70.9092C997.344 70.242 995.87 68.9172 995.1 66.9501C994.996 66.6756 994.987 66.1127 994.783 65.8453C995.087 65.7559 995.53 66.0552 995.796 65.9199C997.747 65.4527 999.5 64.2998 1001.24 63.1087C1001.41 62.9804 1001.5 62.8669 1001.41 62.699C1000.98 61.8445 1001.24 60.903 1002.07 59.9802C1002.92 59.027 1003.93 58.6453 1005 58.6671C1006.43 58.6834 1007.36 59.9593 1006.99 61.3261C1006.61 62.7613 1005.18 63.9011 1003.61 63.9827C1003.02 63.9943 1002.77 64.2742 1002.52 64.729C1001.5 66.6471 1000.57 68.5581 1000.02 70.5399C1000.02 70.6083 999.985 70.6689 999.962 70.7677Z" fill="#FED799"/>
<path d="M970.543 61.0799C970.437 61.3302 970.575 61.3691 970.768 61.4235C972.932 61.9615 975.291 61.6794 977.731 60.6145C978.069 60.4645 978.613 60.0572 979.018 59.9608C978.88 59.747 978.271 59.7509 978.205 59.5223C977.223 58.2311 977.04 56.5342 976.902 54.8147C976.902 54.6398 976.941 54.5107 977.174 54.4361C978.3 54.0172 979.005 53.2002 979.28 52.122C979.571 51.0135 979.197 50.2432 978.39 49.7363C977.329 49.053 975.434 49.5357 974.401 50.7157C973.306 51.9485 973.263 53.4768 974.34 54.3047C974.754 54.5962 974.67 54.9227 974.419 55.3774C973.339 57.2795 972.193 59.128 970.704 60.8451C970.626 60.9283 970.593 60.989 970.543 61.0799Z" fill="#FED799"/>
<path d="M996.389 49.4802C996.022 50.5838 995.655 51.6873 995.288 52.7908C994.049 56.4772 993.478 60.0121 993.986 63.398C994.074 63.9883 994.374 65.1287 994.486 65.4242C995.314 67.5425 996.721 69.1074 999.007 69.8259C999.186 69.8761 1000.51 70.0235 1001.03 70.0185C1005.13 69.888 1008.8 67.8301 1012.26 64.8043C1012.52 64.5765 1012.83 64.3245 1013.02 64.039C1013.31 64.4585 1013.62 64.8864 1014.24 64.9475C1014.47 64.9735 1014.66 65.0647 1014.45 65.3829C1012.84 67.6828 1011.01 69.8094 1009.17 71.9687C1006.69 74.853 1004.1 77.6301 1001.22 80.1762C1000.01 81.2336 998.79 82.209 997.548 83.217C997.447 82.9625 997.376 82.7164 997.198 82.4777C996.866 82.0825 996.486 81.7116 996.219 81.2595C995.448 80.0999 994.414 79.1679 993.326 78.334C992.209 77.4917 991.008 76.739 989.77 76.0515C988.593 75.3809 987.331 74.7998 986.064 74.2923C984.624 73.661 983.064 73.1846 981.534 72.7165C979.963 72.199 974.573 71.2486 973.596 71.2754C972.559 71.2854 971.577 71.0091 970.534 71.0928C969.217 71.1748 967.954 71.1588 966.631 71.3145C964.568 71.564 961.218 72.2806 959.112 73.0458C960.53 71.0314 960.928 63.9406 961.749 60.5137C962.195 58.6407 962.672 56.7762 963.392 54.9049C963.754 53.6867 964.192 52.4526 964.988 51.3189C965.216 50.9681 965.443 50.8057 965.794 50.9798C966.115 51.1456 966.478 51.1724 966.926 51.1097C967.128 51.0536 967.486 50.9657 967.503 51.3098C967.453 53.8978 967.767 56.3242 968.792 58.4601C969.763 60.5055 971.385 61.867 973.875 62.1525C975.733 62.3359 977.671 61.7499 979.623 60.8281C982.785 59.2667 985.456 57.0388 987.978 54.5807C989.753 52.8551 991.415 51.0224 992.904 49.0657C993.006 48.9435 993.137 48.8296 993.269 48.7157C993.478 48.3976 993.622 48.1364 993.991 48.4663C994.502 48.9117 995.192 49.219 996.074 49.0524C996.539 48.957 996.509 49.137 996.389 49.4802ZM966.44 55.8C966.368 55.9306 966.315 56.0286 966.308 56.1023C966.1 58.0422 966.398 59.7477 967.138 61.2757C967.488 62.015 968.028 62.6572 968.652 63.2099C968.937 63.4409 969.324 63.7382 969.837 63.2417C970.304 62.7695 970.09 62.4078 969.763 62.1273C969.395 61.7974 969.009 61.5002 968.688 61.146C967.59 59.8943 966.987 58.3671 966.772 56.572C966.701 56.3258 966.744 55.9984 966.44 55.8ZM1004.47 74.9459C1004.95 75.0798 1005.31 74.7299 1005.65 74.3715C1006.82 73.1173 1008.12 72.0114 1009.21 70.6584C1009.77 69.9492 1010.32 69.199 1010.87 68.4489C1010.97 68.3266 1011.03 68.155 1010.93 68.0888C1010.8 68.0143 1010.68 68.1692 1010.59 68.2588C1010.24 68.6498 1009.9 69.0818 1009.55 69.4728C1008.45 70.5964 1007.38 71.7283 1006.08 72.6459C1005.52 73.052 1004.97 73.5401 1004.46 74.0366C1004 74.4351 1004.03 74.8203 1004.47 74.9459ZM971.461 64.2264C971.641 63.8998 971.606 63.5884 971.279 63.4963C970.981 63.4125 970.599 63.6068 970.39 63.9249C970.18 64.2431 970.245 64.5629 970.602 64.6634C970.911 64.7882 971.216 64.6098 971.461 64.2264ZM1002.84 76.5986C1003 76.3047 1002.97 76.108 1002.71 76.0326C1002.41 75.9489 1002.23 76.2017 1002.13 76.3976C1002.02 76.5935 1001.86 76.8874 1002.2 76.9469C1002.47 77.0222 1002.7 76.8598 1002.84 76.5986Z" fill="#FBE1AD"/>
<path d="M956.623 76.9452C957.492 75.4966 958.373 74.0933 958.93 72.5521C959.03 72.4986 959.149 72.4091 959.25 72.3556C961.454 71.8024 963.67 71.2944 965.886 70.9942C967.519 70.7712 969.146 70.6294 970.678 70.6677C971.779 70.7028 972.892 70.7833 973.955 70.8904C976.225 71.1058 978.362 71.5732 980.462 72.1126C983.093 72.8095 985.591 73.7585 987.919 75.0316C989.205 75.7459 990.453 76.5321 991.72 77.2824C992.787 77.9318 993.627 78.8054 994.607 79.5536C996.247 80.8307 997.51 82.4123 998.893 83.9044C999.229 84.2954 999.427 84.8119 999.97 85.0147C999.121 86.2194 998.647 87.5354 998.129 88.7967C998.041 88.8955 998.04 89.1033 997.878 88.9304C996.869 87.7574 995.616 86.8445 994.393 85.941C993.171 85.0374 991.842 84.2687 990.493 83.5359C990.019 83.2704 989.62 82.8608 989.039 82.7301C988.177 82.5159 987.466 82.0137 986.729 81.6288C985.487 80.9691 984.169 80.4534 982.814 80.0098C979.247 78.8271 975.698 77.6084 971.86 77.0111C970.897 76.8504 969.904 76.6805 968.922 76.5559C967.672 76.3932 966.415 76.3117 965.126 76.221C963.582 76.1374 961.98 76.1619 960.385 76.3129C959.127 76.4393 957.817 77.0081 956.623 76.9452Z" fill="#FBE1AD"/>
<path d="M957.256 75.6152C958.481 75.6433 959.785 75.0955 961.023 74.9563C962.634 74.8014 964.251 74.7767 965.81 74.8632C967.079 74.9475 968.379 75.0412 969.641 75.2091C970.632 75.3377 971.636 75.5128 972.607 75.6784C976.513 76.3038 980.095 77.5591 983.664 78.7677C985 79.2151 986.362 79.7557 987.616 80.4349C988.359 80.8312 989.077 81.3482 989.947 81.5688C990.515 81.7406 990.905 82.1156 991.415 82.3985C992.776 83.1529 994.117 83.9444 995.351 84.8746C996.584 85.8047 997.85 86.7444 998.867 87.9518C999.043 88.1763 999.595 89.157 998.857 90.3043C998.449 91.1659 996.598 92.7045 995.757 91.7216C994.928 90.5714 994.16 90.0819 993.014 89.264C991.453 88.1919 989.783 87.2584 988.057 86.436C986.116 85.4632 984.01 84.7401 981.974 83.9525C980.391 83.3452 978.828 82.7007 977.131 82.3156C974.488 81.6442 971.807 81.0469 969.069 80.5607C967.762 80.3367 966.444 80.0661 965.061 79.9903C963.533 79.9134 962.012 79.7528 960.446 79.7499C959.108 79.7303 957.762 79.7942 956.417 79.8582C955.362 79.9244 954.859 79.344 954.838 78.3953C954.835 77.6235 955.528 76.6339 956.408 76.1293C956.743 75.9738 956.984 75.7897 957.256 75.6152Z" fill="#FED799"/>
<path d="M999.409 86.0344C998.844 85.8654 998.664 85.3056 998.326 84.9095C996.957 83.3613 995.657 81.7496 994.022 80.5016C993.039 79.7436 992.194 78.8585 991.123 78.2005C989.85 77.4404 988.597 76.6437 987.306 75.92C984.967 74.6301 982.458 73.6685 979.816 72.9621C977.707 72.4154 975.56 71.9416 973.28 71.7231C972.181 71.605 971.095 71.5328 969.989 71.4971C968.418 71.4487 966.784 71.592 965.175 71.8271C963 72.1038 960.754 72.6545 958.509 73.2052C958.396 73.2135 958.307 73.3135 958.187 73.4042C958.031 73.3572 957.874 73.3103 957.717 73.2633C957.202 73.0673 957.211 72.5639 957.684 72.0731C958.372 71.3093 959.234 70.9771 960.04 70.5437C960.494 70.3 960.954 69.9739 961.457 69.9136C963.666 69.0147 965.815 68.8569 967.972 68.6167C969.367 68.4441 970.718 68.4268 972.088 68.373C973.219 68.2899 974.204 68.6268 975.317 68.5802C976.347 68.5514 982.06 69.6286 983.685 70.1991C985.279 70.7603 986.923 71.2944 988.459 71.965C989.776 72.5699 991.106 73.2206 992.366 73.9349C993.669 74.7045 994.935 75.547 996.112 76.4895C997.258 77.4226 998.347 78.4652 999.159 79.762C999.458 80.2311 999.859 80.646 1000.19 81.1245C1000.38 81.3914 1000.45 81.6666 1000.56 81.9511C1001 82.6318 1001.19 83.448 1001.23 84.3454C1001.34 85.1792 1000.3 86.1326 999.409 86.0344Z" fill="#FED799"/>
<path d="M993.711 51.94C993.853 51.623 993.854 51.4447 993.439 51.543C992.582 51.7317 991.97 51.4179 991.455 50.9883C991.075 50.6682 990.967 50.9234 990.767 51.2246C990.99 50.8227 991.048 50.4819 990.873 50.1475C990.331 48.9968 991.917 46.3702 993.745 46.0246C994.381 45.8811 994.984 45.6211 995.596 45.7566C996.98 46.0363 997.386 47.0776 997.258 48.077C997.084 49.456 995.877 50.6893 994.626 51.2322C994.28 51.3852 993.933 51.5382 993.711 51.94ZM994.743 48.4806C995.253 48.6232 996.151 48.3029 996.362 47.8623C996.584 47.4605 996.132 46.7987 995.565 46.6403C995.14 46.5214 994.509 46.7735 994.287 47.1753C993.979 47.7317 994.175 48.3221 994.743 48.4806Z" fill="#FBE1AD"/>
<path d="M964.006 50.2313C963.989 49.9046 963.647 49.9881 963.454 50.0414C963.038 50.14 962.679 50.0756 962.372 49.9182C962.037 49.7529 961.82 49.9071 961.602 50.2402C961.826 49.8372 961.769 49.6424 961.503 49.3531C960.85 48.6338 960.755 47.8555 961.385 46.7784C961.9 45.8483 962.91 45.2711 964.02 45.2233C964.18 45.2321 964.345 45.1709 964.493 45.1406C965.616 44.953 966.212 45.4776 966.643 46.2422C967.096 47.0848 966.654 47.9998 965.997 48.8901C965.654 49.3314 965.169 49.554 964.702 49.7456C964.474 49.8609 964.149 49.9133 964.006 50.2313ZM965.587 47.0213C965.879 46.4943 965.595 46.0571 964.969 45.8823C964.514 45.7551 963.91 46.0159 963.687 46.4189C963.475 46.8609 963.746 47.438 964.287 47.589C964.799 47.732 965.329 47.4864 965.587 47.0213Z" fill="#FBE1AD"/>
<path d="M1015.55 68.5205C1015.79 68.1979 1015.56 68.1349 1015.35 68.1104C1014.76 68.0529 1014.49 67.6578 1014.2 67.2549C1013.95 66.0499 1014.36 65.0263 1015.32 64.2298C1016.05 63.617 1017.63 63.5262 1018.17 63.7841C1018.8 64.1042 1019.09 65.1783 1018.75 65.9708C1018.26 67.1482 1017.48 67.7838 1016.32 68.0623C1016.01 68.153 1015.8 68.306 1015.55 68.5205ZM1017.12 66.1539C1017.34 66.2169 1017.73 66.1112 1017.98 65.6499C1018.21 65.2887 1017.92 64.5309 1017.51 64.3819C1017.23 64.303 1016.6 64.6232 1016.38 64.9537C1016.14 65.3842 1016.41 65.9567 1017.12 66.1539Z" fill="#FBE1AD"/>
<path d="M985.49 60.8016C986.112 60.3109 987.104 60.1345 987.847 60.0629C989.731 59.8919 990.728 61.5031 990.363 63.3265C990.07 64.7853 989.562 66.1134 988.433 67.4073C986.599 69.5184 984.474 70.5323 982.384 69.4545C981.88 69.208 981.407 68.0945 981.448 67.4405C981.502 66.1248 982.314 63.2011 985.49 60.8016ZM988.102 65.4579C988.709 64.2977 988.889 63.3327 988.698 62.4035C988.55 61.8016 987.837 61.3561 987.294 61.5886C985.491 62.3078 983.14 64.8341 983.56 66.9134C983.773 67.9188 984.587 68.1824 985.735 67.6646C986.783 67.1537 987.484 66.23 988.102 65.4579Z" fill="#FED799"/>
<path d="M965 54.1493C965.276 54.3711 965.252 54.6541 965.274 54.9137C965.482 56.637 966.066 58.1031 967.128 59.3047C967.438 59.6447 967.794 59.9614 968.168 60.2467C968.484 60.516 968.69 60.8632 968.24 61.3166C967.76 61.7619 967.369 61.5079 967.093 61.2861C966.49 60.7557 965.979 60.1786 965.63 59.4294C964.931 57.9312 964.642 56.2939 964.826 54.4628C964.878 54.3687 964.93 54.2747 965 54.1493Z" fill="#FFE9B8"/>
<path d="M993.254 58.9607C993.25 59.9854 992.842 60.9628 992.712 61.8827C992.635 62.4762 992.463 63.0766 992.535 63.6785C992.655 64.5332 992.603 65.4759 992.979 66.1986C993.132 66.4817 993.035 66.8301 992.635 67.0577C992.193 67.3072 992.034 67.0909 991.907 66.8153C991.749 66.4282 991.633 66.019 991.645 65.5439C991.635 63.8657 991.939 62.1747 992.573 60.4413C992.761 59.9822 992.773 59.507 993.254 58.9607Z" fill="#FFE9B8"/>
<path d="M1007.13 76.2679C1006.73 76.1843 1006.72 75.8092 1007.1 75.4441C1007.57 75.0062 1008.02 74.5607 1008.52 74.1964C1009.65 73.3732 1010.59 72.3575 1011.55 71.3493C1011.89 71.006 1012.17 70.6476 1012.47 70.26C1012.56 70.1503 1012.65 70.0406 1012.76 70.1075C1012.85 70.167 1012.8 70.321 1012.71 70.4307C1012.22 71.1039 1011.76 71.7478 1011.25 72.4135C1010.31 73.5983 1009.19 74.6274 1008.14 75.7453C1007.87 76.0744 1007.55 76.3884 1007.13 76.2679Z" fill="#FFE9B8"/>
<path d="M970.841 62.3652C970.608 62.7281 970.318 62.8969 970.023 62.7788C969.711 62.6917 969.65 62.389 969.821 62.08C970.003 61.8098 970.384 61.5951 970.667 61.6743C970.979 61.7614 970.984 62.0483 970.841 62.3652Z" fill="#FFE9B8"/>
<path d="M994.435 68.5298C994.314 68.7491 994.089 68.795 993.831 68.7227C993.543 68.6424 993.44 68.469 993.642 68.1637C993.816 67.8504 994.081 67.852 994.311 67.9162C994.541 67.9804 994.673 68.1619 994.435 68.5298Z" fill="#FFE9B8"/>
<path d="M1005.79 77.265C1005.66 77.5095 1005.42 77.6537 1005.18 77.6216C1004.88 77.5739 1005 77.291 1005.11 77.1076C1005.22 76.8937 1005.39 76.6571 1005.65 76.766C1005.92 76.8059 1005.94 76.99 1005.79 77.265Z" fill="#FFE9B8"/>
<path d="M994.64 48.6922C994.061 48.5304 993.859 47.9277 994.192 47.3281C994.419 46.9179 995.092 46.6686 995.498 46.7818C996.077 46.9436 996.492 47.6426 996.311 48.0294C996.078 48.5108 995.161 48.8378 994.64 48.6922Z" fill="#FFE9B8"/>
<path d="M965.488 47.1692C965.226 47.6429 964.685 47.8932 964.164 47.7475C963.642 47.6018 963.336 47.0058 963.552 46.5556C963.751 46.1369 964.367 45.8712 964.859 46.0088C965.497 46.1869 965.739 46.6557 965.488 47.1692Z" fill="#FFE9B8"/>
<path d="M1017.05 66.2945C1016.36 66.102 1016.09 65.5198 1016.33 65.0819C1016.51 64.7691 1017.2 64.4201 1017.48 64.5003C1017.87 64.6438 1018.19 65.3832 1017.96 65.7899C1017.64 66.2431 1017.28 66.3586 1017.05 66.2945Z" fill="#FFE9B8"/>
<path d="M988.056 65.4761C987.446 66.2422 986.753 67.1588 985.689 67.6579C984.581 68.1794 983.75 67.91 983.539 66.9124C983.124 64.8491 985.598 61.7245 987.23 61.629C987.795 61.406 988.642 61.8189 988.788 62.4161C988.977 63.3382 988.656 64.325 988.056 65.4761ZM986.14 63.4413C985.881 64.0284 985.869 64.5114 986.416 64.6658C986.946 64.8503 987.451 64.5062 987.748 63.9646C988.062 63.3929 987.943 62.977 987.413 62.7925C986.904 62.6837 986.487 62.983 986.14 63.4413Z" fill="#FAF0DD"/>
<path d="M986.025 63.5348C986.355 63.0573 986.803 62.7197 987.323 62.9007C987.86 63.0509 987.994 63.5157 987.67 64.1015C987.363 64.6564 986.841 65.009 986.293 64.8201C985.745 64.6313 985.74 64.1672 986.025 63.5348Z" fill="#F9EED8"/>
<path d="M869.945 52.9946C870.433 55.9355 859.708 60.0682 846.283 63.7946C832.858 67.521 821.764 69.4116 821.276 66.4707C820.787 63.5298 831.316 58.1479 844.742 54.4215C858.167 50.6952 869.493 50.0558 869.945 52.9946Z" fill="#FEE7BC"/>
<path d="M813.071 50.3794C814.515 48.2815 816.392 46.5587 818.595 45.2049C820.16 44.4833 821.695 43.5494 823.377 43.1502C824.067 42.9775 824.772 43.0865 825.476 42.8443C825.864 42.7251 826.05 42.5247 826.121 42.1774C826.847 38.7758 828.712 35.8583 831.369 33.3356C833.397 31.4103 835.75 30.0297 838.299 28.9409C838.725 29.175 839.193 29.2007 839.717 29.1242C840.58 28.9961 841.225 28.3292 842.008 28.0562C843.337 27.7782 844.69 27.7472 845.999 27.749C847.596 27.7666 849.008 28.1603 850.391 28.6929C852.755 29.5955 854.696 30.9665 856.035 32.9716C856.289 33.3367 856.598 33.424 857.108 33.2414C859.249 32.5514 861.375 31.7553 863.597 31.5615C865.913 31.6187 868.252 31.7473 870.292 32.6321C870.328 32.8097 870.365 32.9873 870.395 33.1996C870.51 34.9618 871.938 35.6373 873.734 35.2094C876.965 38.653 876.794 43.9814 874.467 48.1026C873.06 50.5537 871.112 52.6238 868.847 54.4658C868.405 53.5986 855.873 51.8909 843.076 55.4362C830.28 58.9815 821.495 65.3462 821.146 67.7852C816.602 66.6924 813.397 64.1984 811.553 60.1989C810.696 58.3257 810.658 56.3571 811.153 54.2772C812.252 53.8811 812.91 53.1448 813.165 52.0701C813.406 51.4162 813.102 50.943 813.071 50.3794ZM822.367 45.7987C821.418 45.9923 820.385 46.6027 819.352 47.2131C817.823 48.1123 816.54 49.2358 815.489 50.6529C815.289 50.9228 815.183 51.2681 815.435 51.4576C815.724 51.649 815.996 51.3831 816.189 51.1479C817.22 50.0106 818.468 49.2365 819.84 48.5744C821.85 47.6315 823.904 46.8314 826.099 47.1277C826.804 47.2368 827.393 46.8477 827.541 46.294C827.69 45.7403 827.278 45.2611 826.551 45.2563C825.22 45.1831 823.912 45.3569 822.367 45.7987ZM872.781 40.9864C872.403 38.367 870.764 36.9423 868.759 35.8839C868.298 35.6478 867.758 35.6181 867.211 35.6232C867.067 35.6153 866.888 35.6054 866.809 35.8118C866.738 35.9835 866.775 36.1611 866.898 36.2732C867.02 36.3853 867.193 36.4299 867.359 36.5092C868.692 36.9337 869.516 37.8921 870.125 39.0143C870.778 40.2793 870.842 41.7577 870.611 43.2551C870.52 43.8822 870.724 44.3148 871.35 44.4546C872.056 44.5636 872.413 44.0565 872.67 43.5088C873.033 42.6157 872.993 41.7356 872.781 40.9864ZM854.695 34.1973C854.616 34.0524 854.55 33.8381 854.448 33.6218C853.83 32.1831 852.326 31.8897 850.957 31.4632C850.719 31.3799 850.41 31.2926 850.245 31.5645C850.031 31.9039 850.37 32.0279 850.557 32.1787C851.611 32.9038 852.592 33.6251 852.943 34.9437C853.061 35.4418 853.551 35.7146 854.233 35.4009C854.793 35.1508 854.734 34.7261 854.695 34.1973ZM828.966 46.267C828.42 46.4477 828.062 46.9548 828.179 47.4529C828.283 48.0204 828.816 48.2605 829.441 48.049C830.059 47.8723 830.416 47.3652 830.306 46.8324C830.218 46.371 829.547 46.0883 828.966 46.267ZM872.33 46.4399C872.212 45.7662 871.88 45.6075 871.298 45.7862C870.645 45.9609 870.517 46.4104 870.598 46.9066C870.687 47.3679 870.94 47.7331 871.529 47.5196C872.197 47.2754 872.389 46.8646 872.33 46.4399Z" fill="#FFE7B3"/>
<path d="M862.389 32.2245C860.145 32.4551 858.013 33.2235 855.859 33.9198C855.309 34.1022 855.034 34.0161 854.779 33.6476C853.402 31.5868 851.448 30.203 849.099 29.3291C847.706 28.7915 846.25 28.3921 844.679 28.3763C843.325 28.3725 842 28.4057 840.662 28.6863C840.257 28.6993 840.256 28.5221 840.435 28.1776C841.003 27.181 840.695 26.3489 840.048 25.7461C839.496 25.2194 838.728 25.0352 837.781 25.3729C837.109 25.6193 836.923 26.1761 836.613 26.6198C835.757 27.7776 835.854 28.5627 836.661 29.2807C836.755 29.3568 836.922 29.4369 836.93 29.5791C834.394 30.715 831.989 32.1064 829.956 34.0144C827.281 36.5605 825.404 39.505 824.673 42.9381C824.595 43.3236 824.379 43.4889 824.025 43.6111C823.316 43.8556 822.606 43.7455 821.912 43.9199C820.213 44.3577 818.711 45.2672 817.099 45.9935C816.941 44.6025 817.406 43.2104 817.798 41.8144C818.626 38.9892 820.07 36.3752 821.912 33.9604C823.669 31.6118 825.774 29.5305 828.271 27.8607C831.361 25.7983 834.626 24.1355 838.207 23.447C841.787 22.7585 845.378 22.744 848.841 23.3605C852.899 24.116 856.259 25.9672 859.201 28.4334C860.444 29.5298 861.499 30.8286 862.389 32.2245ZM851.73 26.8161C851.665 26.777 851.564 26.736 851.505 26.6619C851.068 25.9289 850.198 25.7037 849.465 25.3442C848.297 24.7836 847.029 24.5364 845.627 25.1325C845.389 25.2256 844.954 25.2016 845.021 25.5952C845.095 25.9537 845.443 26.0438 845.797 25.9216C846.925 25.5939 847.846 25.9283 848.702 26.4009C849.334 26.7193 849.915 27.1057 850.51 27.4221C850.771 27.5783 851.06 27.5943 851.371 27.3279C851.609 27.2347 851.681 27.0614 851.73 26.8161ZM853.509 27.9775C853.01 28.0918 852.932 28.4773 852.934 28.8318C852.935 29.1863 853.864 29.6629 854.225 29.5056C854.623 29.3504 854.838 29.0078 854.772 28.6143C854.683 28.1486 854.015 27.8282 853.509 27.9775Z" fill="#F8DDA9"/>
<path d="M821.978 67.3388C822.334 64.8158 830.045 57.001 845.42 53.1029C860.796 49.2048 869.721 51.4483 870.557 53.5659C870.013 54.8069 868.983 55.5121 867.798 56.0634C867.148 56.3539 861.641 53.3209 846.147 57.0671C830.42 60.8728 825.344 68.2902 824.589 68.1753C824.157 68.1147 823.747 68.3098 823.322 68.2133C822.75 68.1086 822.229 67.9342 821.978 67.3388Z" fill="#F8DDA9"/>
<path d="M873.797 37.4245C872.047 37.8095 870.608 37.1801 870.53 35.4563C870.53 35.2843 870.465 35.0744 870.429 34.9005C870.729 34.298 870.945 33.5876 871.597 33.1765C872.411 32.6711 873.311 32.4456 874.191 32.494C875.141 32.5464 875.837 33.8571 875.665 34.8794C875.473 36.0036 874.716 36.7529 873.797 37.4245Z" fill="#FCD598"/>
<path d="M811.727 48.6489C811.799 49.1674 812.053 49.6617 811.937 50.2384C811.696 51.2542 811.054 51.9734 809.976 52.3942C808.946 52.5775 808.056 52.4254 807.582 51.6104C807.088 50.7256 807.161 49.8377 807.963 48.8529C809.093 47.4745 810.263 47.299 811.389 48.3902C811.474 48.4977 811.6 48.5733 811.727 48.6489Z" fill="#FCD598"/>
<path d="M848.451 39.5909C848.953 43.436 846.877 46.6577 842.8 47.8088C838.534 49.0182 835.858 47.1169 834.978 43.7324C834.584 42.1631 835.048 40.4002 836.21 38.8822C837.42 37.2981 839.012 35.9413 840.868 35.3901C844.537 34.3197 847.697 36.1102 848.451 39.5909ZM845.205 40.8565C845.119 40.4047 844.85 40.1492 844.526 39.9937C843.581 39.5634 842.741 38.9668 841.803 38.5025C840.964 38.0779 840.739 38.1343 840.074 38.9575C839.402 39.8147 838.793 40.7097 838.185 41.6048C837.43 42.6981 837.48 42.976 838.552 43.4822C838.749 43.5618 838.898 43.7076 839.088 43.8212C839.681 44.2322 840.232 44.6752 840.874 45.0201C841.608 45.4388 841.917 45.3183 842.554 44.6312C843.374 43.7478 843.911 42.6768 844.858 41.8692C845.117 41.6427 845.305 41.2404 845.205 40.8565ZM845.616 38.1278C845.479 37.398 843.758 36.581 842.971 36.7784C842.556 36.8931 842.375 37.4335 842.728 37.6248C843.37 37.9697 843.872 38.4789 844.514 38.8237C844.803 38.9772 845.154 38.8246 845.477 38.6361C845.723 38.4776 845.659 38.2677 845.616 38.1278ZM845.968 39.9012C846.033 40.2831 846.21 40.4648 846.66 40.352C847.004 40.2334 847.207 39.935 847.079 39.6873C846.987 39.4414 846.795 39.1558 846.345 39.2685C845.931 39.3833 845.883 39.6214 845.968 39.9012Z" fill="#F8DDA9"/>
<path d="M821.282 44.7219C822.832 44.2778 824.182 44.105 825.489 44.1417C826.248 44.1835 826.632 44.6284 826.483 45.185C826.334 45.7417 825.743 46.1328 825.035 46.0232C822.831 45.7252 820.77 46.5296 818.752 47.4776C817.418 48.1103 816.122 48.9215 815.087 50.0649C814.9 50.2664 814.62 50.5687 814.33 50.3762C814.04 50.1837 814.147 49.8366 814.384 49.5672C815.404 48.1405 816.728 47.013 818.262 46.109C819.292 45.5302 820.329 44.9166 821.282 44.7219Z" fill="#FFCE61"/>
<path d="M873.191 42.6746C873.396 43.4033 873.441 44.2256 873.055 45.0924C872.807 45.6252 872.496 46.1204 871.778 46.0124C871.166 45.9101 870.976 45.4555 871.064 44.8455C871.252 43.3871 871.225 41.9509 870.594 40.7203C870.039 39.6307 869.242 38.6984 867.917 38.2835C867.75 38.2401 867.59 38.1629 867.471 38.0538C867.352 37.9448 867.317 37.772 867.386 37.605C867.454 37.438 867.628 37.4477 867.775 37.4216C868.297 37.4505 868.826 37.4456 869.272 37.6753C871.205 38.7387 872.791 40.1246 873.191 42.6746Z" fill="#FFCE61"/>
<path d="M836.176 29.8866C836.133 29.7466 836.006 29.6708 835.914 29.5969C835.129 28.8999 835.034 28.1377 835.868 27.0137C836.204 26.5849 836.384 26.0443 837.003 25.8031C837.924 25.4753 838.672 25.6541 839.209 26.1654C839.832 26.7847 840.131 27.5925 839.586 28.526C839.411 28.8604 839.419 28.9985 839.806 29.0198C839.039 29.2873 838.408 29.9407 837.564 30.0663C837.05 30.1412 836.592 30.116 836.176 29.8866Z" fill="#FCD598"/>
<path d="M853.736 35.4578C853.774 35.9819 853.833 36.4029 853.234 36.6832C852.558 36.9941 852.071 36.7237 851.955 36.2301C851.606 34.9231 850.597 34.2063 849.587 33.4895C849.401 33.3401 849.065 33.2172 849.277 32.8808C849.441 32.6113 849.784 32.6998 849.984 32.7804C851.342 33.2031 852.835 33.4939 853.448 34.9199C853.556 35.0998 853.657 35.3142 853.736 35.4578Z" fill="#FFCE61"/>
<path d="M828.151 45.6595C828.688 45.4819 829.383 45.7618 829.47 46.2153C829.578 46.7391 829.226 47.2376 828.619 47.4114C828.004 47.6192 827.451 47.3472 827.378 46.8253C827.298 46.3376 827.615 45.8371 828.151 45.6595Z" fill="#FFCE61"/>
<path d="M873.514 47.8637C873.572 48.278 873.385 48.6788 872.777 48.885C872.169 49.0913 871.958 48.737 871.872 48.2869C871.793 47.8029 871.91 47.3983 872.553 47.1939C873.077 47.0516 873.399 47.2064 873.514 47.8637Z" fill="#FFCE61"/>
<path d="M851.318 27.8052C851.267 28.0598 851.158 28.2376 850.982 28.3748C850.674 28.6148 850.379 28.5982 850.107 28.4724C849.473 28.1055 848.875 27.7407 848.271 27.4123C847.393 26.958 846.458 26.6109 845.319 26.9143C844.966 27.0047 844.605 26.9476 844.53 26.5755C844.462 26.167 844.904 26.192 845.146 26.0953C846.571 25.4769 847.859 25.7337 849.046 26.3158C849.791 26.6889 850.638 26.9207 851.119 27.6836C851.148 27.722 851.252 27.7647 851.318 27.8052Z" fill="#FFE5BE"/>
<path d="M853.517 29.0436C854.014 28.8975 854.663 29.2453 854.757 29.6667C854.851 30.0882 854.646 30.3891 854.221 30.5392C853.866 30.6931 852.954 30.2267 852.952 29.8798C852.951 29.5328 853.034 29.1211 853.517 29.0436Z" fill="#FFE5BE"/>
<path d="M845.21 40.8372C845.317 41.1873 845.157 41.626 844.82 41.8829C843.872 42.6913 843.369 43.7652 842.513 44.6476C841.875 45.3354 841.565 45.456 840.83 45.0369C840.195 44.6576 839.636 44.2482 839.042 43.8368C838.851 43.7231 838.703 43.5772 838.505 43.4975C837.432 42.9908 837.381 42.7126 838.138 41.6183C838.782 40.7243 839.391 39.8283 840.029 38.9684C840.66 38.1425 840.885 38.086 841.761 38.5129C842.7 38.9777 843.506 39.5729 844.487 40.0056C844.854 40.1291 845.123 40.3849 845.21 40.8372Z" fill="#FFE9BE"/>
<path d="M845.469 38.3978C845.476 38.5394 845.578 38.7567 845.334 38.8844C845.045 39.045 844.678 39.2364 844.345 39.077C843.68 38.758 843.172 38.2008 842.514 37.8469C842.152 37.6506 842.337 37.0962 842.763 36.9785C843.563 36.8109 845.364 37.6511 845.469 38.3978Z" fill="#FFE5BE"/>
<path d="M846.146 40.2037C846.06 39.9235 846.109 39.6851 846.524 39.5702C846.974 39.4573 847.138 39.7073 847.259 39.9895C847.344 40.2697 847.183 40.5363 846.839 40.6551C846.416 40.804 846.246 40.5881 846.146 40.2037Z" fill="#FFE5BE"/>
<defs>
<filter id="filter0_f_5039_12579" x="-41" y="89" width="1240" height="143" filterUnits="userSpaceOnUse" color-interpolation-filters="sRGB">
<feFlood flood-opacity="0" result="BackgroundImageFix"/>
<feBlend mode="normal" in="SourceGraphic" in2="BackgroundImageFix" result="shape"/>
<feGaussianBlur stdDeviation="9" result="effect1_foregroundBlur_5039_12579"/>
</filter>
<filter id="filter1_f_5039_12579" x="793.238" y="141.812" width="133.051" height="61.4103" filterUnits="userSpaceOnUse" color-interpolation-filters="sRGB">
<feFlood flood-opacity="0" result="BackgroundImageFix"/>
<feBlend mode="normal" in="SourceGraphic" in2="BackgroundImageFix" result="shape"/>
<feGaussianBlur stdDeviation="8.5" result="effect1_foregroundBlur_5039_12579"/>
</filter>
<filter id="filter2_f_5039_12579" x="818.16" y="135.441" width="139.633" height="22.3327" filterUnits="userSpaceOnUse" color-interpolation-filters="sRGB">
<feFlood flood-opacity="0" result="BackgroundImageFix"/>
<feBlend mode="normal" in="SourceGraphic" in2="BackgroundImageFix" result="shape"/>
<feGaussianBlur stdDeviation="1.5" result="effect1_foregroundBlur_5039_12579"/>
</filter>
<linearGradient id="paint0_linear_5039_12579" x1="10.5" y1="24" x2="1160.87" y2="220.095" gradientUnits="userSpaceOnUse">
<stop stop-color="#FFE4BB"/>
<stop offset="1" stop-color="#FFECD1"/>
</linearGradient>
<linearGradient id="paint1_linear_5039_12579" x1="579" y1="107" x2="579" y2="214" gradientUnits="userSpaceOnUse">
<stop stop-color="#FEE8D3"/>
<stop offset="1" stop-color="#FFC96B"/>
</linearGradient>
<linearGradient id="paint2_linear_5039_12579" x1="779.955" y1="85.7308" x2="826.726" y2="209.711" gradientUnits="userSpaceOnUse">
<stop stop-color="#FFE8C1"/>
<stop offset="1" stop-color="#FCC98C"/>
</linearGradient>
<linearGradient id="paint3_linear_5039_12579" x1="715.367" y1="-26.7425" x2="748.775" y2="127.305" gradientUnits="userSpaceOnUse">
<stop offset="0.185848" stop-color="#FFE5C1" stop-opacity="0"/>
<stop offset="0.791667" stop-color="#FDEAD0"/>
</linearGradient>
<linearGradient id="paint4_linear_5039_12579" x1="721.306" y1="12.9759" x2="738.645" y2="125.33" gradientUnits="userSpaceOnUse">
<stop offset="0.0799465" stop-color="#F5D3A3" stop-opacity="0"/>
<stop offset="1" stop-color="#FFD5A2"/>
</linearGradient>
<linearGradient id="paint5_linear_5039_12579" x1="813.364" y1="143.638" x2="965.927" y2="141.782" gradientUnits="userSpaceOnUse">
<stop stop-color="#FED491"/>
<stop offset="0.536458" stop-color="#FDE8C6"/>
<stop offset="1" stop-color="#FFD28B"/>
</linearGradient>
<radialGradient id="paint6_radial_5039_12579" cx="0" cy="0" r="1" gradientUnits="userSpaceOnUse" gradientTransform="translate(887.976 146.607) rotate(90) scale(8.16637 66.8157)">
<stop stop-color="#F3BD7E"/>
<stop offset="1" stop-color="#FFF2E2"/>
</radialGradient>
<linearGradient id="paint7_linear_5039_12579" x1="720.097" y1="184.729" x2="778.375" y2="156.146" gradientUnits="userSpaceOnUse">
<stop stop-color="#F0AC56"/>
<stop offset="1" stop-color="#FFCD8E"/>
</linearGradient>
<linearGradient id="paint8_linear_5039_12579" x1="719.703" y1="165.589" x2="767.337" y2="168.184" gradientUnits="userSpaceOnUse">
<stop stop-color="#F1C251"/>
<stop offset="1" stop-color="#FFE599"/>
</linearGradient>
<linearGradient id="paint9_linear_5039_12579" x1="1045.24" y1="134.431" x2="1108.24" y2="150.081" gradientUnits="userSpaceOnUse">
<stop stop-color="#F0AC56"/>
<stop offset="1" stop-color="#FFCD8E"/>
</linearGradient>
<linearGradient id="paint10_linear_5039_12579" x1="1050.44" y1="135.079" x2="1098.07" y2="137.674" gradientUnits="userSpaceOnUse">
<stop stop-color="#F1C251"/>
<stop offset="1" stop-color="#FFE599"/>
</linearGradient>
<linearGradient id="paint11_linear_5039_12579" x1="571.097" y1="98.7281" x2="629.375" y2="70.1458" gradientUnits="userSpaceOnUse">
<stop stop-color="#F0AC56"/>
<stop offset="1" stop-color="#FFCD8E"/>
</linearGradient>
<linearGradient id="paint12_linear_5039_12579" x1="570.703" y1="79.5886" x2="618.337" y2="82.1833" gradientUnits="userSpaceOnUse">
<stop stop-color="#F1C251"/>
<stop offset="1" stop-color="#FFE599"/>
</linearGradient>
<linearGradient id="paint13_linear_5039_12579" x1="936.599" y1="125.82" x2="955.901" y2="209.711" gradientUnits="userSpaceOnUse">
<stop stop-color="#FDEAD0"/>
<stop offset="0.887272" stop-color="#FFB96F"/>
</linearGradient>
</defs>
</svg>
