<svg width="398" height="200" viewBox="0 0 398 200" fill="none" xmlns="http://www.w3.org/2000/svg">
<mask id="mask0_5106_17573" style="mask-type:alpha" maskUnits="userSpaceOnUse" x="0" y="0" width="398" height="200">
<rect x="1" y="1" width="396" height="198" rx="19" fill="#D9D9D9" stroke="#ECECEC" stroke-width="2"/>
</mask>
<g mask="url(#mask0_5106_17573)">
<rect x="-5" y="-3" width="426" height="163" fill="url(#paint0_linear_5106_17573)"/>
<g filter="url(#filter0_f_5106_17573)">
<path d="M419.708 94.9247C258.693 47.9849 68.8133 66.5762 -6 81.7394V207H419.708C419.928 206.561 420.237 183.53 419.708 94.9247Z" fill="url(#paint1_linear_5106_17573)"/>
</g>
<path d="M108.423 149.802C105.498 149.997 104.605 148.908 104.523 148.34C104.93 147.202 107.009 143.27 112.079 136.641C122.315 134.447 125.24 143.221 126.459 146.633C120.609 144.927 112.079 149.558 108.423 149.802Z" fill="#F8AE63"/>
<path d="M121.83 140.297C117.151 135.032 112.569 137.291 110.863 139.078V137.615C116.468 135.991 134.455 130.889 161.558 123.479C182.762 122.748 190.561 131.279 204.941 155.651C221.514 180.755 246.13 168.569 258.56 158.088C219.32 212.927 123.78 204.64 104.77 203.421C112.812 200.253 121.099 190.991 125.242 173.199C129.386 155.407 124.268 144.196 121.83 140.297Z" fill="#FDEAD0"/>
<path d="M123.291 140.297C118.612 135.032 114.03 137.291 112.324 139.078V137.615C117.929 135.991 135.916 130.889 163.018 123.479C184.223 122.748 192.022 131.279 206.402 155.651C222.975 180.755 247.591 168.569 260.021 158.088C220.781 212.927 125.241 204.64 106.23 203.421C114.273 200.253 122.56 190.991 126.703 173.199C130.847 155.407 125.729 144.196 123.291 140.297Z" fill="url(#paint2_linear_5106_17573)"/>
<path d="M89.2672 144.44C86.3426 138.103 86.3425 67.0976 87.3174 45.731H149.711C132.407 96.6696 161.897 121.286 166.285 124.211C161.897 124.211 117.539 137.372 114.371 137.859C111.203 138.347 110.471 142.003 106.572 147.364C102.672 152.726 92.0153 150.394 89.2672 144.44Z" fill="url(#paint3_linear_5106_17573)"/>
<path d="M91.6071 143.709C88.6825 137.372 88.6824 66.3666 89.6573 45H152.051C134.747 95.9386 164.237 120.555 168.624 123.48C164.237 123.48 119.879 136.641 116.711 137.128C113.542 137.616 112.811 141.272 108.912 146.634C105.012 151.995 94.3552 149.663 91.6071 143.709Z" fill="url(#paint4_linear_5106_17573)"/>
<g filter="url(#filter1_f_5106_17573)">
<ellipse cx="208.108" cy="180.219" rx="32.5227" ry="8.98283" transform="rotate(0.96959 208.108 180.219)" fill="#F2E3BC"/>
</g>
<path d="M175.691 176.156V161.988L277.812 161.257L277.466 172.177C277.376 175.001 276.138 177.72 273.709 179.161C267.136 183.059 253.133 188.21 222.974 188.798C194.641 189.35 181.619 184.267 177.219 180.394C176.032 179.35 175.691 177.737 175.691 176.156Z" fill="#F6C286"/>
<ellipse cx="226.872" cy="161.257" rx="50.9386" ry="9.74902" fill="url(#paint5_linear_5106_17573)"/>
<ellipse cx="226.873" cy="161.014" rx="46.0641" ry="7.55549" fill="#FFBD81"/>
<g filter="url(#filter2_f_5106_17573)">
<ellipse cx="226.632" cy="163.207" rx="43.8706" ry="5.36196" fill="url(#paint6_radial_5106_17573)"/>
</g>
<path d="M152.925 170.039C154.51 173.583 147.115 180.337 136.409 185.125C125.703 189.912 115.739 190.919 114.154 187.375C109.335 180.682 119.963 177.076 130.67 172.289C141.376 167.502 151.011 161.914 152.925 170.039Z" fill="url(#paint7_linear_5106_17573)"/>
<ellipse cx="132.029" cy="175.924" rx="21.2352" ry="7.03027" transform="rotate(-24.0914 132.029 175.924)" fill="#F2EF91"/>
<ellipse cx="132.028" cy="175.925" rx="17.9773" ry="5.95171" transform="rotate(-24.0914 132.028 175.925)" fill="#E8AB52"/>
<ellipse cx="132.38" cy="176.71" rx="17.9773" ry="5.09128" transform="rotate(-24.0914 132.38 176.71)" fill="url(#paint8_linear_5106_17573)"/>
<path d="M369.551 164.801C368.482 168.533 358.475 168.941 347.201 165.711C335.927 162.481 327.654 156.837 328.723 153.104C329.345 144.88 339.799 148.964 351.073 152.194C362.348 155.424 373.317 157.352 369.551 164.801Z" fill="url(#paint9_linear_5106_17573)"/>
<ellipse cx="349.775" cy="155.851" rx="21.2352" ry="7.03027" transform="rotate(15.9861 349.775 155.851)" fill="#F2EF91"/>
<ellipse cx="349.772" cy="155.851" rx="17.9773" ry="5.95171" transform="rotate(15.9861 349.772 155.851)" fill="#E8AB52"/>
<ellipse cx="349.536" cy="156.677" rx="17.9773" ry="5.09128" transform="rotate(15.9861 349.536 156.677)" fill="url(#paint10_linear_5106_17573)"/>
<path d="M55.0929 113.571C56.6778 117.116 49.2834 123.87 38.5771 128.657C27.8708 133.445 17.9068 134.452 16.3219 130.907C11.5025 124.214 22.1314 120.609 32.8377 115.821C43.544 111.034 53.1794 105.447 55.0929 113.571Z" fill="url(#paint11_linear_5106_17573)"/>
<ellipse cx="34.1966" cy="119.457" rx="21.2352" ry="7.03027" transform="rotate(-24.0914 34.1966 119.457)" fill="#F2EF91"/>
<ellipse cx="34.1963" cy="119.457" rx="17.9773" ry="5.95171" transform="rotate(-24.0914 34.1963 119.457)" fill="#E8AB52"/>
<ellipse cx="34.5482" cy="120.243" rx="17.9773" ry="5.09128" transform="rotate(-24.0914 34.5482 120.243)" fill="url(#paint12_linear_5106_17573)"/>
<path d="M260.751 155.408C240.278 182.705 194.376 199.116 173.984 203.909L289.023 200.009C283.58 190.829 270.305 169.056 260.751 155.408Z" fill="#FDEAD0"/>
<path d="M260.751 156.139C240.278 183.436 194.376 199.847 173.984 204.64L289.023 200.741C283.58 191.56 270.305 169.788 260.751 156.139Z" fill="url(#paint13_linear_5106_17573)"/>
<path d="M304.795 121.915C304.043 124.392 297.247 124.899 289.244 124.362C281.241 123.825 275.017 122.445 275.769 119.968C276.52 117.491 283.639 115.923 291.642 116.46C299.645 116.997 305.537 119.468 304.795 121.915Z" fill="#FBF2E1"/>
<path d="M304.22 110.295C304.137 110.468 304.041 110.464 303.907 110.458C302.432 110.354 301.323 109.737 300.616 108.608C300.52 108.45 300.457 108.096 300.295 107.958C300.489 107.856 300.812 107.979 300.975 107.853C302.221 107.267 303.269 106.276 304.305 105.264C304.403 105.158 304.454 105.072 304.372 104.98C304.005 104.504 304.086 103.869 304.543 103.162C305.008 102.434 305.639 102.042 306.353 101.895C307.302 101.693 308.043 102.361 307.934 103.28C307.829 104.243 306.997 105.176 305.958 105.463C305.574 105.558 305.436 105.772 305.315 106.097C304.827 107.462 304.404 108.808 304.238 110.142C304.241 110.186 304.225 110.23 304.22 110.295Z" fill="#FED799"/>
<path d="M283.071 107.576C283.026 107.75 283.122 107.754 283.255 107.759C284.743 107.776 286.279 107.246 287.79 106.209C287.999 106.063 288.319 105.725 288.577 105.603C288.465 105.489 288.061 105.582 287.995 105.448C287.216 104.778 286.925 103.733 286.661 102.667C286.644 102.556 286.657 102.469 286.804 102.387C287.508 101.954 287.895 101.333 287.969 100.61C288.052 99.8664 287.727 99.4354 287.142 99.2355C286.37 98.9621 285.162 99.55 284.595 100.45C283.992 101.392 284.116 102.365 284.912 102.727C285.216 102.85 285.193 103.068 285.072 103.393C284.546 104.757 283.971 106.096 283.155 107.403C283.112 107.467 283.095 107.511 283.071 107.576Z" fill="#FED799"/>
<path d="M299.499 96.3465C299.365 97.1327 299.232 97.9189 299.098 98.705C298.644 101.333 298.623 103.759 299.314 105.92C299.434 106.297 299.753 107.005 299.859 107.184C300.635 108.457 301.744 109.276 303.357 109.4C303.482 109.406 304.391 109.299 304.74 109.217C307.483 108.501 309.747 106.576 311.76 104.044C311.914 103.853 312.097 103.639 312.197 103.42C312.431 103.654 312.687 103.889 313.111 103.834C313.266 103.816 313.403 103.847 313.295 104.09C312.448 105.858 311.439 107.545 310.421 109.256C309.047 111.545 307.586 113.78 305.909 115.906C305.21 116.79 304.485 117.623 303.753 118.481C303.659 118.328 303.586 118.176 303.441 118.046C303.177 117.835 302.883 117.648 302.657 117.39C302.018 116.742 301.226 116.284 300.408 115.9C299.568 115.514 298.682 115.201 297.778 114.937C296.916 114.674 296.007 114.483 295.101 114.342C294.067 114.146 292.968 114.071 291.889 113.996C290.778 113.895 287.051 114.094 286.396 114.262C285.699 114.428 285.009 114.396 284.316 114.612C283.437 114.868 282.585 115.052 281.71 115.358C280.347 115.84 278.165 116.829 276.826 117.658C277.574 116.108 277.111 111.357 277.311 108.965C277.419 107.657 277.548 106.351 277.84 105.003C277.958 104.142 278.126 103.258 278.546 102.386C278.663 102.119 278.799 101.977 279.053 102.038C279.286 102.098 279.534 102.06 279.828 101.95C279.959 101.882 280.191 101.769 280.238 101.994C280.471 103.713 280.932 105.269 281.842 106.525C282.706 107.728 283.939 108.38 285.644 108.186C286.915 108.022 288.159 107.336 289.378 106.427C291.347 104.909 292.915 103.025 294.36 101.012C295.378 99.5979 296.308 98.1305 297.11 96.6076C297.166 96.5111 297.243 96.4156 297.319 96.3201C297.428 96.0775 297.498 95.8827 297.78 96.0442C298.17 96.2603 298.666 96.3575 299.243 96.1118C299.546 95.9773 299.544 96.101 299.499 96.3465ZM279.985 105.127C279.95 105.224 279.923 105.297 279.927 105.347C279.986 106.662 280.363 107.744 281.019 108.641C281.33 109.076 281.76 109.418 282.237 109.688C282.453 109.797 282.743 109.934 283.038 109.526C283.304 109.143 283.123 108.936 282.874 108.801C282.592 108.639 282.301 108.502 282.048 108.317C281.18 107.658 280.617 106.74 280.287 105.586C280.214 105.434 280.209 105.211 279.985 105.127ZM307.564 111.947C307.898 111.962 308.108 111.675 308.296 111.386C308.956 110.377 309.715 109.446 310.309 108.384C310.614 107.829 310.908 107.248 311.201 106.668C311.257 106.571 311.28 106.448 311.205 106.42C311.109 106.391 311.045 106.512 310.998 106.584C310.8 106.897 310.615 107.235 310.418 107.547C309.793 108.46 309.189 109.373 308.411 110.178C308.071 110.534 307.755 110.94 307.46 111.348C307.192 111.682 307.25 111.932 307.564 111.947ZM284.233 109.928C284.32 109.685 284.265 109.484 284.035 109.473C283.826 109.464 283.589 109.651 283.48 109.894C283.372 110.136 283.448 110.338 283.699 110.349C283.92 110.384 284.107 110.22 284.233 109.928ZM306.636 113.291C306.714 113.071 306.674 112.946 306.486 112.937C306.277 112.927 306.186 113.121 306.134 113.267C306.081 113.414 306.003 113.633 306.241 113.619C306.43 113.628 306.566 113.485 306.636 113.291Z" fill="#FBE1AD"/>
<path d="M275.66 120.101C276.093 118.909 276.54 117.748 276.751 116.542C276.814 116.487 276.885 116.402 276.947 116.347C278.386 115.578 279.837 114.84 281.311 114.253C282.397 113.818 283.487 113.443 284.533 113.214C285.285 113.055 286.05 112.927 286.785 112.827C288.351 112.602 289.854 112.582 291.34 112.62C293.204 112.683 295.005 112.95 296.725 113.479C297.677 113.78 298.61 114.139 299.553 114.468C300.349 114.759 301.015 115.249 301.762 115.625C303.015 116.273 304.045 117.204 305.147 118.05C305.418 118.276 305.609 118.616 306 118.671C305.553 119.683 305.374 120.713 305.158 121.711C305.109 121.797 305.131 121.947 305.002 121.849C304.19 121.171 303.238 120.722 302.31 120.274C301.381 119.826 300.394 119.493 299.398 119.19C299.047 119.077 298.731 118.848 298.322 118.851C297.712 118.841 297.175 118.597 296.632 118.443C295.716 118.174 294.765 118.023 293.795 117.929C291.242 117.672 288.698 117.386 286.024 117.597C285.353 117.643 284.659 117.686 283.978 117.761C283.11 117.852 282.247 118.004 281.361 118.154C280.302 118.353 279.216 118.638 278.148 119.015C277.307 119.316 276.478 119.946 275.66 120.101Z" fill="#FBE1AD"/>
<path d="M275.973 118.53C276.81 118.338 277.637 117.703 278.465 117.384C279.545 116.989 280.643 116.691 281.714 116.485C282.587 116.328 283.483 116.173 284.361 116.08C285.05 116.004 285.752 115.961 286.432 115.916C289.16 115.707 291.737 116.024 294.3 116.309C295.259 116.411 296.246 116.58 297.174 116.87C297.724 117.037 298.27 117.299 298.887 117.313C299.292 117.343 299.599 117.556 299.977 117.679C300.987 118.007 301.987 118.366 302.93 118.847C303.872 119.329 304.837 119.812 305.663 120.538C305.807 120.675 306.29 121.313 305.914 122.298C305.732 123.013 304.641 124.483 303.959 123.895C303.269 123.179 302.692 122.946 301.822 122.533C300.641 122.002 299.401 121.594 298.135 121.279C296.707 120.888 295.193 120.713 293.72 120.477C292.576 120.297 291.44 120.086 290.243 120.093C288.369 120.049 286.478 120.067 284.56 120.179C283.646 120.238 282.718 120.264 281.768 120.447C280.72 120.654 279.666 120.798 278.6 121.067C277.686 121.285 276.777 121.566 275.868 121.847C275.157 122.079 274.751 121.732 274.632 121.027C274.545 120.45 274.908 119.591 275.452 119.061C275.663 118.887 275.807 118.707 275.973 118.53Z" fill="#FED799"/>
<path d="M305.699 119.918C305.297 119.89 305.113 119.51 304.84 119.277C303.739 118.375 302.679 117.415 301.431 116.778C300.679 116.39 300.008 115.884 299.207 115.584C298.258 115.243 297.319 114.872 296.361 114.561C294.63 114.013 292.818 113.735 290.943 113.666C289.449 113.624 287.937 113.641 286.362 113.869C285.601 113.969 284.854 114.101 284.098 114.262C283.025 114.494 281.928 114.877 280.859 115.323C279.41 115.895 277.942 116.68 276.475 117.466C276.399 117.491 276.35 117.579 276.278 117.666C276.166 117.658 276.054 117.651 275.943 117.643C275.571 117.586 275.522 117.216 275.79 116.776C276.175 116.099 276.725 115.709 277.226 115.254C277.508 114.999 277.786 114.681 278.121 114.552C279.526 113.517 280.971 113.036 282.411 112.494C283.342 112.13 284.259 111.888 285.185 111.616C285.946 111.363 286.653 111.442 287.404 111.219C288.102 111.023 292.106 110.841 293.274 110.983C294.419 111.124 295.596 111.236 296.715 111.466C297.676 111.686 298.652 111.937 299.587 112.246C300.558 112.589 301.511 112.991 302.415 113.482C303.296 113.971 304.151 114.55 304.844 115.363C305.099 115.656 305.417 115.892 305.694 116.186C305.851 116.35 305.931 116.539 306.034 116.73C306.41 117.154 306.63 117.719 306.755 118.37C306.921 118.963 306.317 119.839 305.699 119.918Z" fill="#FED799"/>
<path d="M297.675 99.1276C297.739 98.9037 297.721 98.7898 297.454 98.9146C296.902 99.1635 296.462 99.0547 296.076 98.8575C295.791 98.7099 295.744 98.8891 295.641 99.1113C295.749 98.8214 295.753 98.5951 295.603 98.4077C295.126 97.7539 295.919 95.8393 297.103 95.3449C297.513 95.1581 297.888 94.9019 298.31 94.8967C299.261 94.8682 299.636 95.4724 299.651 96.1298C299.674 97.0365 298.993 98.0046 298.215 98.5385C297.999 98.6881 297.783 98.8377 297.675 99.1276ZM298.015 96.764C298.37 96.7787 298.936 96.4398 299.032 96.1268C299.14 95.8369 298.772 95.482 298.378 95.4657C298.083 95.4534 297.688 95.7088 297.58 95.9987C297.43 96.4001 297.621 96.7477 298.015 96.764Z" fill="#FBE1AD"/>
<path d="M277.205 101.218C277.161 101.011 276.941 101.116 276.817 101.179C276.55 101.304 276.304 101.317 276.083 101.262C275.843 101.206 275.714 101.338 275.602 101.583C275.711 101.292 275.653 101.176 275.446 101.031C274.938 100.668 274.797 100.185 275.109 99.4014C275.359 98.7293 275.974 98.2088 276.71 98.0119C276.817 97.9936 276.921 97.9297 277.017 97.8881C277.747 97.5999 278.198 97.8462 278.562 98.2708C278.949 98.7419 278.747 99.3933 278.398 100.061C278.214 100.395 277.913 100.61 277.62 100.803C277.48 100.91 277.268 100.993 277.205 101.218ZM277.936 98.9274C278.078 98.5465 277.845 98.3093 277.41 98.2912C277.093 98.2781 276.716 98.5354 276.608 98.8267C276.511 99.1412 276.75 99.4696 277.126 99.4852C277.482 99.5 277.811 99.2634 277.936 98.9274Z" fill="#FBE1AD"/>
<path d="M314.676 107.217C314.806 106.975 314.65 106.969 314.505 106.985C314.108 107.036 313.889 106.825 313.65 106.613C313.366 105.882 313.532 105.17 314.092 104.519C314.516 104.02 315.56 103.726 315.946 103.81C316.402 103.918 316.699 104.56 316.552 105.115C316.345 105.938 315.893 106.458 315.146 106.81C314.948 106.914 314.821 107.043 314.676 107.217ZM315.484 105.476C315.64 105.482 315.886 105.357 316.009 105.025C316.128 104.761 315.854 104.322 315.569 104.288C315.373 104.28 314.984 104.579 314.874 104.821C314.758 105.131 314.995 105.455 315.484 105.476Z" fill="#FBE1AD"/>
<path d="M293.37 105.547C293.734 105.144 294.374 104.884 294.859 104.728C296.091 104.339 296.913 105.208 296.853 106.415C296.804 107.381 296.6 108.296 295.981 109.282C294.976 110.89 293.668 111.848 292.174 111.479C291.816 111.398 291.391 110.765 291.353 110.346C291.257 109.506 291.504 107.537 293.37 105.547ZM295.566 108.1C295.853 107.276 295.876 106.639 295.657 106.08C295.499 105.722 294.982 105.547 294.644 105.775C293.521 106.498 292.215 108.446 292.701 109.697C292.942 110.301 293.508 110.346 294.218 109.848C294.862 109.368 295.234 108.68 295.566 108.1Z" fill="#FED799"/>
<path d="M278.551 103.566C278.758 103.667 278.77 103.853 278.812 104.017C279.125 105.095 279.664 105.951 280.496 106.565C280.738 106.738 281.008 106.888 281.287 107.015C281.525 107.141 281.698 107.334 281.443 107.693C281.167 108.052 280.88 107.948 280.673 107.846C280.216 107.595 279.816 107.301 279.506 106.871C278.888 106.011 278.529 105.001 278.466 103.794C278.492 103.726 278.517 103.657 278.551 103.566Z" fill="#FFE9B8"/>
<path d="M298.419 103.552C298.518 104.192 298.348 104.863 298.353 105.457C298.362 105.839 298.308 106.239 298.415 106.604C298.579 107.12 298.639 107.716 298.958 108.11C299.087 108.264 299.058 108.496 298.817 108.698C298.551 108.92 298.425 108.809 298.314 108.656C298.172 108.438 298.055 108.2 298.016 107.901C297.842 106.856 297.874 105.755 298.118 104.578C298.196 104.264 298.157 103.965 298.419 103.552Z" fill="#FFE9B8"/>
<path d="M309.949 113.025C309.675 113.034 309.632 112.803 309.842 112.52C310.11 112.176 310.36 111.832 310.649 111.531C311.31 110.849 311.822 110.078 312.352 109.307C312.538 109.044 312.687 108.779 312.844 108.493C312.891 108.411 312.939 108.33 313.02 108.354C313.084 108.378 313.065 108.481 313.017 108.563C312.769 109.053 312.528 109.523 312.261 110.013C311.765 110.89 311.131 111.698 310.554 112.55C310.412 112.794 310.234 113.037 309.949 113.025Z" fill="#FFE9B8"/>
<path d="M283.445 108.075C283.326 108.341 283.149 108.491 282.94 108.46C282.723 108.451 282.651 108.268 282.734 108.045C282.828 107.846 283.061 107.652 283.258 107.661C283.475 107.67 283.508 107.852 283.445 108.075Z" fill="#FFE9B8"/>
<path d="M300.317 109.421C300.259 109.58 300.112 109.642 299.931 109.635C299.729 109.626 299.641 109.531 299.745 109.305C299.829 109.079 300.007 109.041 300.169 109.048C300.33 109.054 300.438 109.151 300.317 109.421Z" fill="#FFE9B8"/>
<path d="M309.163 113.692C309.099 113.867 308.952 113.993 308.788 114.009C308.584 114.022 308.638 113.826 308.686 113.695C308.743 113.543 308.827 113.369 309.015 113.399C309.199 113.384 309.236 113.497 309.163 113.692Z" fill="#FFE9B8"/>
<path d="M297.958 96.9804C297.553 96.9632 297.357 96.6045 297.518 96.1676C297.629 95.8687 298.054 95.6066 298.338 95.6186C298.743 95.6359 299.093 96.0245 299.011 96.3013C298.904 96.647 298.323 96.9959 297.958 96.9804Z" fill="#FFE9B8"/>
<path d="M277.876 99.0785C277.748 99.4239 277.412 99.6668 277.047 99.6513C276.682 99.6357 276.416 99.2969 276.515 98.9737C276.605 98.6735 276.991 98.4092 277.335 98.4239C277.781 98.443 277.992 98.7092 277.876 99.0785Z" fill="#FFE9B8"/>
<path d="M315.454 105.618C314.973 105.598 314.73 105.265 314.848 104.947C314.932 104.72 315.359 104.393 315.559 104.401C315.831 104.436 316.121 104.862 316.011 105.157C315.845 105.496 315.614 105.624 315.454 105.618Z" fill="#FFE9B8"/>
<path d="M295.537 108.123C295.21 108.696 294.843 109.376 294.189 109.849C293.508 110.342 292.931 110.297 292.692 109.7C292.212 108.464 293.536 106.129 294.607 105.825C294.958 105.6 295.56 105.734 295.716 106.088C295.933 106.64 295.82 107.309 295.537 108.123ZM294.067 107.128C293.954 107.536 293.994 107.842 294.371 107.858C294.741 107.895 295.04 107.603 295.183 107.217C295.334 106.811 295.213 106.567 294.844 106.53C294.496 106.537 294.25 106.788 294.067 107.128Z" fill="#FAF0DD"/>
<path d="M293.983 107.229C294.155 106.876 294.419 106.594 294.784 106.632C295.158 106.647 295.294 106.923 295.138 107.345C294.989 107.744 294.677 108.046 294.292 108.008C293.907 107.969 293.857 107.675 293.983 107.229Z" fill="#F9EED8"/>
<path d="M220.683 101.004C220.948 102.97 213.895 105.944 205.092 108.695C196.289 111.445 189.036 112.92 188.771 110.953C188.505 108.987 195.453 105.177 204.256 102.427C213.059 99.6759 220.441 99.0377 220.683 101.004Z" fill="#FEE7BC"/>
<path d="M183.622 100.594C184.594 99.1921 185.84 98.029 187.29 97.1026C188.315 96.6022 189.325 95.9628 190.42 95.672C190.87 95.5468 191.324 95.6063 191.784 95.4353C192.037 95.3504 192.161 95.2156 192.213 94.9864C192.745 92.741 194.005 90.7938 195.77 89.0923C197.117 87.7937 198.664 86.8472 200.333 86.0887C200.604 86.2351 200.906 86.244 201.247 86.1848C201.807 86.086 202.236 85.6371 202.748 85.4445C203.613 85.2393 204.488 85.1958 205.335 85.1746C206.367 85.1588 207.273 85.3931 208.158 85.7191C209.671 86.2712 210.901 87.138 211.731 88.4314C211.888 88.6668 212.086 88.7188 212.42 88.5901C213.817 88.1006 215.207 87.5416 216.647 87.3763C218.145 87.3743 219.655 87.4187 220.958 87.9646C220.978 88.0806 220.999 88.1966 221.014 88.3355C221.057 89.4903 221.967 89.9094 223.137 89.5977C225.164 91.8031 224.955 95.3039 223.375 98.0492C222.42 99.6823 221.122 101.075 219.623 102.323C219.353 101.761 211.279 100.854 202.937 103.4C194.595 105.947 188.796 110.275 188.526 111.882C185.607 111.243 183.579 109.66 182.46 107.066C181.94 105.851 181.952 104.559 182.31 103.186C183.028 102.907 183.467 102.412 183.651 101.702C183.82 101.269 183.632 100.963 183.622 100.594ZM189.718 97.4279C189.101 97.5713 188.422 97.9896 187.742 98.408C186.737 99.0245 185.887 99.7839 185.181 100.732C185.046 100.913 184.971 101.141 185.131 101.261C185.314 101.382 185.495 101.203 185.625 101.045C186.312 100.281 187.134 99.7514 188.033 99.2933C189.35 98.6399 190.693 98.0796 192.108 98.2366C192.562 98.2961 192.95 98.0306 193.056 97.6646C193.163 97.2985 192.905 96.991 192.435 97.0003C191.575 96.975 190.726 97.1115 189.718 97.4279ZM222.415 93.4064C222.218 91.6933 221.184 90.7861 219.907 90.1256C219.613 89.9785 219.264 89.9682 218.911 89.9809C218.818 89.9782 218.702 89.9748 218.647 90.1116C218.598 90.2255 218.619 90.3415 218.696 90.413C218.773 90.4845 218.884 90.5108 218.99 90.5601C219.844 90.8159 220.36 91.431 220.733 92.1572C221.132 92.9765 221.147 93.9459 220.97 94.9328C220.9 95.3461 221.023 95.6266 221.426 95.7077C221.88 95.7672 222.121 95.4282 222.297 95.0642C222.548 94.4717 222.538 93.8946 222.415 93.4064ZM210.841 89.2589C210.792 89.1652 210.754 89.0256 210.692 88.8854C210.319 87.9515 209.351 87.7846 208.474 87.528C208.321 87.4774 208.123 87.4254 208.011 87.6067C207.867 87.8332 208.083 87.9088 208.202 88.0046C208.87 88.4626 209.492 88.9193 209.695 89.7789C209.761 90.1039 210.073 90.2746 210.52 90.057C210.887 89.8832 210.856 89.6055 210.841 89.2589ZM193.978 97.6225C193.621 97.7504 193.381 98.0894 193.448 98.4144C193.504 98.7852 193.845 98.9337 194.253 98.7842C194.656 98.6576 194.896 98.3186 194.835 97.9707C194.786 97.6693 194.358 97.4952 193.978 97.6225ZM222.023 96.9942C221.959 96.554 221.748 96.4554 221.368 96.5827C220.942 96.7086 220.851 97.0059 220.895 97.3302C220.943 97.6315 221.1 97.8669 221.485 97.7167C221.922 97.545 222.054 97.272 222.023 96.9942Z" fill="#FFE7B3"/>
<path d="M215.61 88.0349C214.152 88.2261 212.755 88.7704 211.346 89.2675C210.987 89.3975 210.81 89.3454 210.651 89.1066C209.796 87.7703 208.555 86.8909 207.049 86.3549C206.156 86.0243 205.219 85.786 204.201 85.803C203.324 85.824 202.464 85.869 201.592 86.0775C201.329 86.0932 201.332 85.9762 201.454 85.7456C201.84 85.078 201.656 84.534 201.248 84.1474C200.899 83.8094 200.405 83.7012 199.785 83.9405C199.345 84.1149 199.214 84.4857 199.005 84.7839C198.429 85.563 198.478 86.0796 198.988 86.5394C199.048 86.588 199.154 86.638 199.157 86.7317C197.492 87.5257 195.908 88.4859 194.556 89.7808C192.775 91.5079 191.505 93.4842 190.969 95.763C190.912 96.0188 190.768 96.1317 190.536 96.2185C190.073 96.3922 189.615 96.3319 189.161 96.4591C188.052 96.7777 187.062 97.4042 186.004 97.9116C185.927 96.9962 186.254 96.0692 186.533 95.1409C187.121 93.2616 188.105 91.5111 189.343 89.8851C190.524 88.3043 191.927 86.8938 193.576 85.7482C195.616 84.3331 197.763 83.1786 200.096 82.6619C202.429 82.1451 204.757 82.0731 206.99 82.4197C209.607 82.8478 211.751 84.0113 213.613 85.5879C214.398 86.29 215.059 87.1289 215.61 88.0349ZM208.8 84.6504C208.758 84.6257 208.693 84.6004 208.657 84.5525C208.387 84.0763 207.827 83.9428 207.359 83.7183C206.612 83.3685 205.795 83.2274 204.875 83.6453C204.719 83.7109 204.438 83.7026 204.474 83.9613C204.515 84.1966 204.739 84.25 204.971 84.1632C205.708 83.9273 206.299 84.132 206.845 84.429C207.248 84.6282 207.618 84.8732 207.998 85.0717C208.164 85.1702 208.352 85.1757 208.558 84.9945C208.714 84.9288 208.763 84.8132 208.8 84.6504ZM209.932 85.3861C209.606 85.4701 209.549 85.726 209.543 85.96C209.538 86.194 210.131 86.4924 210.368 86.3823C210.629 86.2729 210.775 86.043 210.738 85.7844C210.689 85.4786 210.263 85.2787 209.932 85.3861Z" fill="#F8DDA9"/>
<path d="M189.224 111.518C189.501 109.819 194.658 104.437 204.73 101.541C214.803 98.6446 220.569 99.9856 221.075 101.39C220.699 102.233 220.016 102.725 219.235 103.116C218.807 103.323 215.279 101.39 205.132 104.186C194.832 107.027 191.398 112.094 190.908 112.031C190.628 111.998 190.358 112.137 190.083 112.08C189.713 112.02 189.377 111.913 189.224 111.518Z" fill="#F8DDA9"/>
<path d="M223.182 91.8069C222.049 92.0854 221.135 91.7012 221.117 90.5854C221.119 90.474 221.082 90.3391 221.062 90.2269C221.266 89.8315 221.417 89.3676 221.844 89.0904C222.377 88.7494 222.96 88.5884 223.525 88.6052C224.135 88.6234 224.558 89.4613 224.43 90.1266C224.286 90.8584 223.785 91.3565 223.182 91.8069Z" fill="#FCD598"/>
<path d="M182.478 98.875C182.515 99.2093 182.669 99.5249 182.584 99.9C182.411 100.561 181.986 101.037 181.285 101.327C180.62 101.463 180.051 101.379 179.761 100.86C179.459 100.295 179.523 99.7195 180.056 99.0691C180.806 98.1585 181.561 98.0256 182.265 98.7131C182.318 98.7813 182.398 98.8281 182.478 98.875Z" fill="#FCD598"/>
<path d="M206.535 93.0297C206.788 95.5151 205.394 97.6388 202.754 98.453C199.99 99.3081 198.305 98.1194 197.802 95.9391C197.577 94.9279 197.908 93.7769 198.682 92.7732C199.489 91.7258 200.537 90.8194 201.739 90.4312C204.117 89.6761 206.115 90.7849 206.535 93.0297ZM204.426 93.9044C204.379 93.6128 204.211 93.4515 204.006 93.3561C203.406 93.0927 202.877 92.7197 202.283 92.4341C201.752 92.1727 201.606 92.213 201.164 92.7579C200.716 93.3249 200.309 93.9155 199.902 94.5061C199.396 95.2277 199.423 95.407 200.103 95.7175C200.228 95.7659 200.321 95.858 200.441 95.9285C200.815 96.1852 201.161 96.4634 201.567 96.6764C202.031 96.9358 202.232 96.8525 202.654 96.3963C203.197 95.8098 203.561 95.1063 204.185 94.5669C204.355 94.4157 204.484 94.1516 204.426 93.9044ZM204.74 92.1279C204.666 91.6569 203.575 91.1556 203.065 91.2967C202.797 91.378 202.671 91.7314 202.894 91.8496C203.3 92.0626 203.613 92.3845 204.019 92.5975C204.202 92.6923 204.431 92.5875 204.642 92.4598C204.803 92.353 204.765 92.218 204.74 92.1279ZM204.934 93.2722C204.969 93.5188 205.079 93.6337 205.37 93.553C205.594 93.4704 205.73 93.2736 205.652 93.115C205.597 92.9571 205.479 92.775 205.188 92.8556C204.92 92.9369 204.884 93.0921 204.934 93.2722Z" fill="#F8DDA9"/>
<path d="M188.791 96.3553C189.804 96.0361 190.681 95.8991 191.527 95.9007C192.018 95.9151 192.259 96.2014 192.152 96.5704C192.046 96.9395 191.656 97.2072 191.199 97.1472C189.777 96.9891 188.427 97.5542 187.102 98.2131C186.227 98.6527 185.373 99.2091 184.682 99.9797C184.557 100.116 184.37 100.319 184.186 100.198C184.001 100.076 184.077 99.8456 184.236 99.6641C184.922 98.7073 185.8 97.9422 186.81 97.3206C187.488 96.9218 188.171 96.4999 188.791 96.3553Z" fill="#FFCE61"/>
<path d="M222.776 95.0873C222.894 95.5546 222.908 96.085 222.645 96.6512C222.476 96.9995 222.268 97.3244 221.81 97.2665C221.419 97.2106 221.306 96.9201 221.373 96.5246C221.521 95.5795 221.529 94.6523 221.147 93.8678C220.811 93.1732 220.317 92.5841 219.476 92.338C219.37 92.3127 219.268 92.2655 219.194 92.197C219.12 92.1285 219.1 92.0175 219.147 91.9085C219.195 91.7995 219.306 91.8029 219.4 91.7836C219.734 91.7937 220.073 91.7818 220.355 91.9228C221.574 92.5778 222.565 93.4468 222.776 95.0873Z" fill="#FFCE61"/>
<path d="M198.516 87.0469C198.491 86.9569 198.411 86.9099 198.353 86.8635C197.861 86.4248 197.813 85.9324 198.37 85.1902C198.594 84.9068 198.72 84.5534 199.122 84.3869C199.721 84.1592 200.199 84.2628 200.536 84.5852C200.925 84.9762 201.103 85.4949 200.735 86.1088C200.617 86.3284 200.619 86.4178 200.868 86.4252C200.37 86.6112 199.952 87.0451 199.406 87.1404C199.074 87.1975 198.78 87.1887 198.516 87.0469Z" fill="#FCD598"/>
<path d="M210.028 90.5116C210.043 90.8529 210.073 91.1264 209.682 91.3193C209.239 91.5335 208.93 91.3653 208.863 91.0452C208.662 90.1986 208.023 89.7481 207.384 89.2975C207.266 89.2032 207.051 89.1287 207.195 88.9057C207.305 88.7272 207.525 88.7791 207.653 88.8283C208.522 89.0812 209.481 89.2459 209.852 90.1656C209.918 90.2812 209.979 90.4193 210.028 90.5116Z" fill="#FFCE61"/>
<path d="M193.284 97.0182C193.634 96.8941 194.077 97.0641 194.125 97.3569C194.185 97.6948 193.95 98.024 193.555 98.1467C193.155 98.2917 192.803 98.1244 192.765 97.7871C192.722 97.4721 192.935 97.1423 193.284 97.0182Z" fill="#FFCE61"/>
<path d="M223.043 98.4106C223.073 98.6771 222.945 98.9389 222.55 99.082C222.155 99.2251 222.025 98.9999 221.978 98.7107C221.936 98.3996 222.018 98.1365 222.435 97.994C222.775 97.8935 222.98 97.9882 223.043 98.4106Z" fill="#FFCE61"/>
<path d="M208.444 85.638C208.407 85.8109 208.333 85.933 208.215 86.0289C208.011 86.1969 207.819 86.1911 207.644 86.1113C207.237 85.8755 206.854 85.6403 206.465 85.4299C205.902 85.1396 205.298 84.9227 204.55 85.149C204.319 85.2167 204.085 85.1849 204.042 84.935C204.005 84.6605 204.292 84.669 204.452 84.5992C205.391 84.1549 206.227 84.3041 206.99 84.6749C207.469 84.9129 208.016 85.0535 208.317 85.5596C208.335 85.5851 208.402 85.6119 208.444 85.638Z" fill="#FFE5BE"/>
<path d="M209.94 86.4572C210.264 86.3541 210.678 86.5691 210.731 86.841C210.785 87.113 210.647 87.3116 210.369 87.416C210.137 87.5218 209.554 87.2342 209.559 87.0091C209.565 86.784 209.626 86.5155 209.94 86.4572Z" fill="#FFE5BE"/>
<path d="M204.433 93.8849C204.495 94.1102 204.384 94.3974 204.163 94.5696C203.538 95.1096 203.196 95.8144 202.629 96.4009C202.206 96.8575 202.004 96.9409 201.539 96.6812C201.137 96.4458 200.786 96.1895 200.411 95.9326C200.29 95.862 200.197 95.7698 200.072 95.7214C199.391 95.4106 199.363 95.231 199.87 94.5087C200.3 93.9182 200.709 93.3271 201.134 92.7588C201.555 92.2127 201.701 92.1723 202.256 92.4347C202.852 92.7206 203.36 93.0932 203.983 93.3576C204.217 93.4316 204.385 93.593 204.433 93.8849Z" fill="#FFE9BE"/>
<path d="M204.617 92.3892C204.619 92.4821 204.682 92.6232 204.521 92.7113C204.331 92.8218 204.089 92.9539 203.877 92.8548C203.451 92.6566 203.132 92.2991 202.711 92.0779C202.48 91.955 202.61 91.5875 202.888 91.5028C203.41 91.3789 204.563 91.9002 204.617 92.3892Z" fill="#FFE5BE"/>
<path d="M205.086 93.5669C205.036 93.3869 205.071 93.2317 205.341 93.1505C205.633 93.07 205.734 93.2292 205.807 93.4099C205.858 93.5899 205.749 93.7652 205.525 93.8478C205.25 93.9512 205.144 93.8141 205.086 93.5669Z" fill="#FFE5BE"/>
<path d="M256.719 155.726C256.588 158.679 246.834 157.594 234.877 154.862C222.919 152.13 213.243 148.8 213.374 145.847C213.505 142.895 223.305 142.728 235.286 145.428C247.243 148.16 256.85 152.774 256.719 155.726Z" fill="#FDDFB7"/>
<path d="M249.362 130.919C250.708 130.859 252.053 130.799 253.418 131.004C256.671 131.493 259.612 132.758 261.867 135.696C263.495 137.82 264 140.147 263.751 142.521C263.62 143.826 263.209 144.99 262.652 146.128C262.153 146.494 261.649 146.831 261.708 147.629C261.503 147.9 261.275 148.201 261.07 148.472C260.648 148.482 260.192 148.463 259.775 148.502C258.159 148.627 256.569 148.427 254.985 147.634C253.529 146.927 252.612 145.764 252.11 144.236C252.09 143.97 252.269 144.025 252.461 143.991C253.166 143.827 253.284 143.233 253.185 142.524C253.101 141.905 252.706 141.44 252.162 141.245C251.316 140.939 250.473 142.527 250.709 143.054C250.803 143.259 251.004 143.432 250.906 143.671C250.821 143.673 250.737 143.675 250.658 143.707C249.54 144.087 248.362 144.292 247.143 144.112C245.491 143.883 243.851 143.565 242.279 142.684C240.55 141.716 239.088 140.506 237.912 138.846C238.055 138.547 238.382 138.48 238.637 138.326C239.164 137.959 239.293 137.423 238.907 136.692C238.947 136.602 238.92 136.455 238.994 136.394C239.638 135.58 240.287 134.796 241.109 134.185C242.051 133.453 243.114 132.926 244.127 132.281C244.273 132.308 244.386 132.305 244.516 132.243C245.996 131.676 247.481 131.139 249.169 131.101C249.282 131.099 249.327 131.038 249.362 130.919ZM256.031 133.58C255.47 133.444 254.914 133.339 254.401 133.469C254.13 133.534 253.731 133.513 253.805 133.926C253.908 134.338 254.291 134.27 254.589 134.352C254.617 134.352 254.617 134.352 254.645 134.351C255.584 134.389 256.452 134.813 257.217 135.447C258.813 136.772 259.595 138.442 259.576 140.366C259.582 140.869 259.616 141.372 260.028 141.777C260.34 142.095 260.722 142.175 261.089 142.019C261.53 141.802 261.743 141.412 261.675 140.881C261.567 139.818 261.347 138.757 260.851 137.732C259.82 135.625 258.282 134.15 256.031 133.58ZM260.794 143.979C260.786 143.624 260.598 143.362 260.244 143.282C259.952 143.229 259.669 143.383 259.643 143.71C259.623 144.065 259.817 144.357 260.227 144.436C260.603 144.487 260.774 144.335 260.794 143.979Z" fill="#F5CF90"/>
<path d="M213.257 140.495C212.117 138.718 211.163 136.877 210.767 134.847C209.902 130.374 212.201 127.012 216.377 126.385C219.378 125.962 222.366 126.722 225.325 128.102C225.543 128.216 225.784 128.299 225.997 128.383C226.08 128.529 226.208 128.614 226.331 128.671C227.26 129.123 228.153 129.693 228.973 130.325C229.565 130.784 230.189 131.273 230.78 131.732C230.961 132.26 231.453 132.485 231.775 132.862C232.752 134.052 233.679 135.272 234.503 136.554C234.814 137.019 234.999 137.577 235.434 137.951C235.416 138.011 235.427 138.07 235.404 138.1C234.654 138.944 234.858 139.915 235.957 140.688C235.432 141.527 234.584 141.99 233.697 142.394C231.896 143.204 229.916 143.338 227.802 142.883C226.714 142.642 225.689 142.281 224.655 141.713C223.559 141.118 222.656 140.34 221.743 139.504C221.755 139.415 221.773 139.355 221.88 139.323C222.433 139.104 222.78 138.682 222.657 138.005C222.545 137.387 222.23 136.892 221.558 136.612C220.825 136.303 220.132 136.526 219.764 137.303C219.545 137.81 219.796 138.573 220.354 139.003C220.516 139.118 220.83 139.14 220.85 139.406C220.317 139.891 219.554 140.352 218.871 140.633C217.296 141.29 215.616 141.21 213.85 140.806C213.642 140.752 213.412 140.728 213.257 140.495ZM222.411 129.469C220.796 129.122 219.61 129.119 218.927 129.401C218.718 129.494 218.509 129.587 218.591 129.881C218.7 130.174 218.948 130.139 219.145 130.135C221.832 130.014 224.119 131.263 226.201 133.255C226.674 133.687 227.051 134.211 227.304 134.826C227.622 135.646 228.248 135.987 228.885 135.765C229.466 135.545 229.614 134.803 229.2 134.073C228.747 133.286 228.147 132.619 227.472 132.014C225.88 130.543 223.992 129.936 222.411 129.469ZM230.364 136.766C229.922 136.658 229.469 136.964 229.413 137.438C229.381 137.882 229.691 138.348 230.134 138.456C230.605 138.563 231.081 138.228 231.113 137.783C231.174 137.339 230.836 136.874 230.364 136.766Z" fill="#F5CF90"/>
<path d="M220.859 137.188C221.799 138.087 222.733 138.955 223.855 139.565C224.919 140.176 226.002 140.563 227.092 140.824C229.267 141.313 231.303 141.17 233.155 140.301C234.066 139.866 234.909 139.37 235.478 138.467C235.841 138.553 236.199 138.609 236.562 138.695C237.743 140.479 239.274 141.779 241.051 142.818C242.695 143.764 244.38 144.106 246.049 144.353C247.296 144.515 248.511 144.328 249.66 143.919C249.741 143.886 249.833 143.915 249.914 143.882C250.37 143.998 250.814 144.051 251.152 144.488C251.668 146.129 252.611 147.378 254.107 148.138C255.735 148.99 257.369 149.206 259.029 149.072C259.457 149.03 259.896 149.051 260.359 149.04C260.642 149.002 260.926 148.964 261.21 148.925C261.496 149.236 261.764 149.611 262.167 149.761C262.231 149.791 262.189 149.888 262.171 149.952C261.961 150.243 261.784 150.565 261.528 150.761C260.556 151.515 260.036 152.703 259.236 153.612C258.874 154.033 258.684 154.61 258.396 155.125C258.074 154.942 257.845 154.63 257.494 154.447C256.436 153.868 255.419 153.193 254.361 152.613C253.463 152.126 252.572 151.67 251.656 151.246C250.678 150.793 249.705 150.37 248.708 149.98C247.988 149.679 247.298 149.378 246.56 149.141C245.638 148.845 244.715 148.548 243.817 148.22C242.296 147.651 240.791 147.178 239.275 146.8C235.785 145.928 232.262 145.026 228.757 144.567C227.273 144.379 225.789 144.192 224.293 144.1C223.588 144.053 222.849 143.974 222.15 143.959C221.595 143.94 221.04 143.921 220.491 143.934C219.219 143.964 217.907 143.931 216.639 144.152C215.4 144.371 214.116 144.497 212.91 144.906C212.031 142.352 210.915 139.931 209.154 137.811C209.335 137.521 209.631 137.387 209.922 137.221C210.6 137.618 211.272 138.143 212.063 138.188C212.223 138.438 212.465 138.496 212.708 138.554C214.524 138.988 216.281 139.075 217.871 138.37C218.573 138.067 219.23 137.671 219.778 137.149C220.15 136.95 220.496 137.101 220.859 137.188Z" fill="#F4E3C8"/>
<path d="M212.404 144.197C213.584 143.783 214.872 143.656 216.144 143.432C217.387 143.209 218.702 143.243 220.007 143.212C220.558 143.199 221.114 143.218 221.671 143.237C222.372 143.252 223.113 143.332 223.82 143.379C225.292 143.474 226.809 143.663 228.297 143.854C231.812 144.319 235.346 145.235 238.846 146.119C240.367 146.502 241.876 146.983 243.402 147.559C244.303 147.892 245.228 148.193 246.153 148.493C246.864 148.735 247.586 149.04 248.308 149.345C249.313 149.773 250.283 150.169 251.265 150.629C252.183 151.059 253.071 151.489 253.977 152.016C255.038 152.604 256.053 153.257 257.12 153.876C257.443 154.062 257.701 154.378 258.024 154.564C258.645 155.807 258.596 156.711 257.971 157.306C257.52 157.736 256.97 157.749 256.369 157.473C255.486 157.075 254.609 156.547 253.744 156.084C252.878 155.621 251.995 155.223 251.117 154.856C249.702 154.245 248.251 153.764 246.824 153.249C246.639 153.189 246.477 153.096 246.292 153.036C242.384 151.807 235.599 149.42 228.017 147.987C220.439 146.748 214.843 147.557 213.848 147.355C213.426 147.268 213.027 147.149 212.629 146.868C212.168 146.557 211.823 146.242 211.758 145.696C211.643 145.022 211.804 144.437 212.404 144.197Z" fill="#FAF0DD"/>
<path d="M232.15 131.422C231.552 130.953 230.92 130.455 230.323 129.987C229.465 129.343 228.59 128.761 227.651 128.3C227.527 128.242 227.397 128.155 227.313 128.006C228.249 125.273 230.142 123.572 232.693 122.52C237.635 120.478 244.377 123.218 247.656 127.814C248.653 129.238 249.486 130.696 249.844 132.375C249.866 132.495 249.944 132.614 249.994 132.733C249.959 132.855 249.913 132.916 249.799 132.918C248.094 132.957 246.594 133.504 245.099 134.08C244.967 134.144 244.854 134.146 244.706 134.119C244.667 134.06 244.628 134.001 244.56 133.942C243.519 132.911 243.145 131.624 243.027 130.33C242.93 129.308 242.981 129.277 241.966 129.029C241.275 128.833 240.688 128.425 240.221 127.893C239.322 126.859 238.799 125.695 239.051 124.394C239.105 124.061 238.989 123.732 238.627 123.62C238.269 123.538 238.181 123.841 238.121 124.144C238.109 124.234 238.125 124.325 238.113 124.415C238.013 125.924 236.736 127.4 235.258 127.433C234.548 127.45 234.414 127.814 234.26 128.39C233.982 129.542 233.545 130.607 232.432 131.084C232.295 131.117 232.174 131.241 232.15 131.422Z" fill="#F9CF8C"/>
<path d="M210.012 140.065C209.845 140.356 209.624 140.505 209.284 140.599C208.261 140.709 207.384 140.269 207.155 139.154C206.926 138.039 207.325 137.513 208.223 137.32C208.936 137.16 209.864 137.885 210.118 138.684C210.239 139.198 210.065 139.604 210.012 140.065Z" fill="#FAF0DD"/>
<path d="M262.758 148.016C262.775 147.958 262.841 147.871 262.754 147.844C262.373 147.709 262.12 147.371 261.85 147.09C261.912 146.83 261.707 146.606 261.688 146.348C261.63 145.574 261.864 145.052 262.603 144.892C263.669 144.867 264.651 146.05 264.626 146.825C264.602 147.6 263.936 148.161 263.15 148.064C263.009 148.039 262.894 148.013 262.758 148.016Z" fill="#FAF0DD"/>
<path d="M232.142 131.147C232.166 130.975 232.253 130.859 232.427 130.769C233.487 130.316 233.903 129.306 234.168 128.215C234.314 127.668 234.415 127.323 235.119 127.307C236.526 127.274 237.742 125.874 237.837 124.444C237.848 124.358 237.833 124.273 237.844 124.187C237.874 123.9 237.985 123.612 238.326 123.69C238.666 123.768 238.809 124.107 238.73 124.423C238.518 125.656 239.011 126.73 239.845 127.739C240.295 128.272 240.854 128.659 241.508 128.815C242.452 129.078 242.425 129.079 242.519 130.048C242.637 131.302 242.988 132.494 243.98 133.471C244.044 133.526 244.081 133.583 244.119 133.639C243.139 134.233 242.121 134.771 241.216 135.478C240.425 136.067 239.801 136.825 239.182 137.61C239.138 137.669 239.136 137.811 239.098 137.898C238.434 137.085 237.696 136.759 236.847 137.179C236.798 137.209 236.707 137.154 236.653 137.155C236.229 136.765 236.055 136.255 235.756 135.805C234.957 134.538 234.069 133.387 233.128 132.238C232.817 131.874 232.316 131.657 232.142 131.147Z" fill="#F4E3C8"/>
<path d="M256.701 133.48C258.825 134.028 260.296 135.445 261.315 137.5C261.789 138.485 262.027 139.505 262.103 140.528C262.142 141.039 261.971 141.442 261.544 141.623C261.22 141.773 260.85 141.667 260.53 141.39C260.109 141.002 260.103 140.518 260.096 140.034C260.087 138.183 259.339 136.578 257.84 135.304C257.109 134.694 256.279 134.287 255.381 134.251C255.354 134.252 255.354 134.252 255.327 134.252C255.043 134.173 254.676 134.239 254.578 133.843C254.48 133.446 254.888 133.465 255.147 133.402C255.632 133.249 256.164 133.35 256.701 133.48Z" fill="#F4E3C8"/>
<path d="M250.417 142.906C250.106 142.251 250.061 141.849 250.247 141.356C250.516 140.716 251.238 140.44 252.058 140.709C252.588 140.899 253.157 141.605 253.238 142.208C253.336 142.896 252.889 143.626 252.202 143.786C251.729 143.912 250.755 143.704 250.417 142.906Z" fill="#FAF0DD"/>
<path d="M235.969 136.797C236.833 136.373 237.632 136.816 238.307 137.638C238.718 138.38 238.702 138.9 238.267 139.401C238.011 139.666 237.839 139.786 237.442 139.882C236.984 139.95 236.522 139.845 236.205 139.621C235.127 138.866 234.934 137.802 235.692 136.947C235.72 136.947 235.919 136.827 235.969 136.797Z" fill="#FAF0DD"/>
<path d="M260.924 143.141C260.904 143.486 260.738 143.634 260.398 143.584C259.997 143.507 259.808 143.224 259.828 142.879C259.826 142.562 260.13 142.412 260.415 142.463C260.733 142.542 260.945 142.795 260.924 143.141Z" fill="#F4E3C8"/>
<path d="M222.697 129.542C224.281 130.01 226.173 130.619 227.792 132.065C228.468 132.672 229.07 133.34 229.524 134.13C229.939 134.862 229.79 135.607 229.208 135.828C228.569 136.05 227.913 135.709 227.623 134.885C227.37 134.268 226.998 133.773 226.518 133.309C224.431 131.311 222.111 130.059 219.445 130.179C219.248 130.184 218.972 130.22 218.89 129.925C218.78 129.631 219.018 129.537 219.227 129.443C219.889 129.191 221.106 129.193 222.697 129.542Z" fill="#F4E3C8"/>
<path d="M220.128 139.124C219.584 138.705 219.178 137.679 219.419 137.184C219.777 136.428 220.427 136.212 221.17 136.511C221.825 136.784 222.132 137.266 222.242 137.867C222.361 138.526 222.01 139.023 221.476 139.266C221.041 139.448 220.547 139.46 220.128 139.124Z" fill="#FAF0DD"/>
<path d="M230.524 136.152C230.957 136.258 231.288 136.71 231.256 137.143C231.229 137.604 230.736 137.932 230.297 137.798C229.863 137.693 229.56 137.239 229.592 136.807C229.647 136.345 230.09 136.047 230.524 136.152Z" fill="#F4E3C8"/>
<path d="M240.061 132.665C240.027 133.977 239.671 135.011 238.421 135.439C237.301 135.836 235.875 134.843 235.505 133.541C235.145 132.296 235.398 131.293 235.817 130.314C236.121 129.595 237.167 129.086 238.066 129.264C238.825 129.417 239.557 130.17 239.85 131.046C240.028 131.583 240.099 132.123 240.061 132.665ZM236.485 132.065C236.427 132.494 236.492 133.005 236.746 133.512C237.154 134.272 237.67 134.431 238.231 133.933C238.922 133.262 239.028 132.348 238.817 131.327C238.698 130.817 238.498 130.308 237.879 130.18C237.233 130.053 236.976 130.429 236.707 130.892C236.526 131.238 236.484 131.609 236.485 132.065Z" fill="#FAF0DD"/>
<path d="M236.523 132.076C236.522 131.624 236.563 131.255 236.735 130.884C236.968 130.398 237.246 130.024 237.886 130.178C238.493 130.305 238.716 130.809 238.807 131.315C239.014 132.327 238.91 133.234 238.232 133.9C237.713 134.421 237.206 134.263 236.774 133.483C236.53 133.008 236.471 132.529 236.523 132.076ZM237.928 131.901C238.313 131.977 238.485 131.746 238.499 131.379C238.503 130.955 238.262 130.65 237.85 130.575C237.491 130.499 237.261 130.702 237.279 131.097C237.296 131.492 237.51 131.798 237.928 131.901Z" fill="#F5CF90"/>
<path d="M238.044 131.923C237.613 131.818 237.392 131.508 237.375 131.107C237.362 130.735 237.599 130.529 237.965 130.578C238.391 130.654 238.64 130.963 238.635 131.393C238.62 131.766 238.443 132 238.044 131.923Z" fill="#FDFAF4"/>
</g>
<path d="M112.722 62V44.5455H123.903V47.196H115.884V51.9347H123.136V54.5852H115.884V62H112.722ZM137.787 44.5455H140.949V55.9489C140.949 57.1989 140.653 58.2983 140.062 59.2472C139.477 60.196 138.653 60.9375 137.591 61.4716C136.528 62 135.287 62.2642 133.866 62.2642C132.44 62.2642 131.196 62 130.134 61.4716C129.071 60.9375 128.247 60.196 127.662 59.2472C127.077 58.2983 126.784 57.1989 126.784 55.9489V44.5455H129.946V55.6847C129.946 56.4119 130.105 57.0597 130.423 57.6278C130.747 58.196 131.202 58.642 131.787 58.9659C132.372 59.2841 133.065 59.4432 133.866 59.4432C134.668 59.4432 135.361 59.2841 135.946 58.9659C136.537 58.642 136.991 58.196 137.31 57.6278C137.628 57.0597 137.787 56.4119 137.787 55.6847V44.5455ZM144.386 62V44.5455H147.548V59.3494H155.235V62H144.386ZM157.979 62V44.5455H161.141V59.3494H168.829V62H157.979ZM177.488 62H171.573V44.5455H177.607C179.34 44.5455 180.829 44.8949 182.073 45.5938C183.323 46.2869 184.283 47.2841 184.954 48.5852C185.624 49.8864 185.96 51.4432 185.96 53.2557C185.96 55.0739 185.621 56.6364 184.945 57.9432C184.275 59.25 183.306 60.2528 182.039 60.9517C180.778 61.6506 179.261 62 177.488 62ZM174.735 59.2642H177.335C178.55 59.2642 179.565 59.0426 180.377 58.5994C181.19 58.1506 181.8 57.483 182.21 56.5966C182.619 55.7045 182.823 54.5909 182.823 53.2557C182.823 51.9205 182.619 50.8125 182.21 49.9318C181.8 49.0455 181.195 48.3835 180.394 47.946C179.599 47.5028 178.61 47.2812 177.428 47.2812H174.735V59.2642ZM190.268 62H186.893L193.038 44.5455H196.941L203.094 62H199.719L195.058 48.125H194.921L190.268 62ZM190.379 55.1562H199.583V57.696H190.379V55.1562ZM220.17 53.2727C220.17 55.1534 219.817 56.7642 219.113 58.1051C218.414 59.4403 217.46 60.4631 216.249 61.1733C215.045 61.8835 213.678 62.2386 212.15 62.2386C210.621 62.2386 209.252 61.8835 208.042 61.1733C206.837 60.4574 205.883 59.4318 205.178 58.0966C204.479 56.7557 204.13 55.1477 204.13 53.2727C204.13 51.392 204.479 49.7841 205.178 48.4489C205.883 47.108 206.837 46.0824 208.042 45.3722C209.252 44.6619 210.621 44.3068 212.15 44.3068C213.678 44.3068 215.045 44.6619 216.249 45.3722C217.46 46.0824 218.414 47.108 219.113 48.4489C219.817 49.7841 220.17 51.392 220.17 53.2727ZM216.991 53.2727C216.991 51.9489 216.783 50.8324 216.369 49.9233C215.96 49.0085 215.391 48.3182 214.664 47.8523C213.937 47.3807 213.099 47.1449 212.15 47.1449C211.201 47.1449 210.363 47.3807 209.636 47.8523C208.908 48.3182 208.337 49.0085 207.923 49.9233C207.513 50.8324 207.309 51.9489 207.309 53.2727C207.309 54.5966 207.513 55.7159 207.923 56.6307C208.337 57.5398 208.908 58.2301 209.636 58.7017C210.363 59.1676 211.201 59.4006 212.15 59.4006C213.099 59.4006 213.937 59.1676 214.664 58.7017C215.391 58.2301 215.96 57.5398 216.369 56.6307C216.783 55.7159 216.991 54.5966 216.991 53.2727ZM243.456 44.5455V62H240.643L232.419 50.1108H232.274V62H229.112V44.5455H231.942L240.158 56.4432H240.311V44.5455H243.456ZM246.901 62V44.5455H258.083V47.196H250.063V51.9347H257.316V54.5852H250.063V62H246.901ZM260.197 47.196V44.5455H274.123V47.196H268.728V62H265.592V47.196H260.197ZM285.237 52.3693L282.424 52.6761C282.344 52.392 282.205 52.125 282.006 51.875C281.813 51.625 281.552 51.4233 281.222 51.2699C280.893 51.1165 280.489 51.0398 280.012 51.0398C279.37 51.0398 278.83 51.179 278.393 51.4574C277.961 51.7358 277.748 52.0966 277.754 52.5398C277.748 52.9205 277.887 53.2301 278.171 53.4688C278.461 53.7074 278.938 53.9034 279.603 54.0568L281.836 54.5341C283.075 54.8011 283.995 55.2244 284.597 55.804C285.205 56.3835 285.512 57.142 285.518 58.0795C285.512 58.9034 285.271 59.6307 284.793 60.2614C284.322 60.8864 283.665 61.375 282.825 61.7273C281.984 62.0795 281.018 62.2557 279.927 62.2557C278.325 62.2557 277.035 61.9205 276.058 61.25C275.08 60.5739 274.498 59.6335 274.31 58.429L277.319 58.1392C277.455 58.7301 277.745 59.1761 278.188 59.4773C278.631 59.7784 279.208 59.929 279.918 59.929C280.651 59.929 281.239 59.7784 281.683 59.4773C282.131 59.1761 282.356 58.804 282.356 58.3608C282.356 57.9858 282.211 57.6761 281.921 57.4318C281.637 57.1875 281.194 57 280.592 56.8693L278.359 56.4006C277.103 56.1392 276.174 55.6989 275.572 55.0795C274.969 54.4545 274.671 53.6648 274.677 52.7102C274.671 51.9034 274.89 51.2045 275.333 50.6136C275.782 50.017 276.404 49.5568 277.2 49.233C278.001 48.9034 278.924 48.7386 279.969 48.7386C281.504 48.7386 282.711 49.0653 283.592 49.7188C284.478 50.3722 285.026 51.2557 285.237 52.3693Z" fill="#F2AB21"/>
<defs>
<filter id="filter0_f_5106_17573" x="-24" y="47" width="462" height="178" filterUnits="userSpaceOnUse" color-interpolation-filters="sRGB">
<feFlood flood-opacity="0" result="BackgroundImageFix"/>
<feBlend mode="normal" in="SourceGraphic" in2="BackgroundImageFix" result="shape"/>
<feGaussianBlur stdDeviation="9" result="effect1_foregroundBlur_5106_17573"/>
</filter>
<filter id="filter1_f_5106_17573" x="158.59" y="154.22" width="99.0352" height="51.9973" filterUnits="userSpaceOnUse" color-interpolation-filters="sRGB">
<feFlood flood-opacity="0" result="BackgroundImageFix"/>
<feBlend mode="normal" in="SourceGraphic" in2="BackgroundImageFix" result="shape"/>
<feGaussianBlur stdDeviation="8.5" result="effect1_foregroundBlur_5106_17573"/>
</filter>
<filter id="filter2_f_5106_17573" x="179.762" y="154.845" width="93.7422" height="16.7239" filterUnits="userSpaceOnUse" color-interpolation-filters="sRGB">
<feFlood flood-opacity="0" result="BackgroundImageFix"/>
<feBlend mode="normal" in="SourceGraphic" in2="BackgroundImageFix" result="shape"/>
<feGaussianBlur stdDeviation="1.5" result="effect1_foregroundBlur_5106_17573"/>
</filter>
<linearGradient id="paint0_linear_5106_17573" x1="6.85299" y1="19.2273" x2="423.936" y2="46.3891" gradientUnits="userSpaceOnUse">
<stop stop-color="#FFE4BB"/>
<stop offset="1" stop-color="#FFECD1"/>
</linearGradient>
<linearGradient id="paint1_linear_5106_17573" x1="207" y1="65" x2="207" y2="207" gradientUnits="userSpaceOnUse">
<stop stop-color="#FEE8D3"/>
<stop offset="1" stop-color="#FFC96B"/>
</linearGradient>
<linearGradient id="paint2_linear_5106_17573" x1="155.707" y1="123.236" x2="186.416" y2="204.64" gradientUnits="userSpaceOnUse">
<stop stop-color="#FFE8C1"/>
<stop offset="1" stop-color="#FCC98C"/>
</linearGradient>
<linearGradient id="paint3_linear_5106_17573" x1="113.3" y1="49.3868" x2="135.236" y2="150.533" gradientUnits="userSpaceOnUse">
<stop offset="0.185848" stop-color="#FFE5C1" stop-opacity="0"/>
<stop offset="0.791667" stop-color="#FDEAD0"/>
</linearGradient>
<linearGradient id="paint4_linear_5106_17573" x1="117.198" y1="75.4657" x2="128.583" y2="149.236" gradientUnits="userSpaceOnUse">
<stop offset="0.0799465" stop-color="#F5D3A3" stop-opacity="0"/>
<stop offset="1" stop-color="#FFD5A2"/>
</linearGradient>
<linearGradient id="paint5_linear_5106_17573" x1="177.64" y1="161.257" x2="277.811" y2="160.038" gradientUnits="userSpaceOnUse">
<stop stop-color="#FED491"/>
<stop offset="0.536458" stop-color="#FDE8C6"/>
<stop offset="1" stop-color="#FFD28B"/>
</linearGradient>
<radialGradient id="paint6_radial_5106_17573" cx="0" cy="0" r="1" gradientUnits="userSpaceOnUse" gradientTransform="translate(226.632 163.207) rotate(90) scale(5.36196 43.8706)">
<stop stop-color="#F3BD7E"/>
<stop offset="1" stop-color="#FFF2E2"/>
</radialGradient>
<linearGradient id="paint7_linear_5106_17573" x1="116.403" y1="188.237" x2="154.667" y2="169.47" gradientUnits="userSpaceOnUse">
<stop stop-color="#F0AC56"/>
<stop offset="1" stop-color="#FFCD8E"/>
</linearGradient>
<linearGradient id="paint8_linear_5106_17573" x1="116.145" y1="175.67" x2="147.421" y2="177.374" gradientUnits="userSpaceOnUse">
<stop stop-color="#F1C251"/>
<stop offset="1" stop-color="#FFE599"/>
</linearGradient>
<linearGradient id="paint9_linear_5106_17573" x1="329.889" y1="155.212" x2="371.25" y2="165.488" gradientUnits="userSpaceOnUse">
<stop stop-color="#F0AC56"/>
<stop offset="1" stop-color="#FFCD8E"/>
</linearGradient>
<linearGradient id="paint10_linear_5106_17573" x1="333.301" y1="155.638" x2="364.577" y2="157.341" gradientUnits="userSpaceOnUse">
<stop stop-color="#F1C251"/>
<stop offset="1" stop-color="#FFE599"/>
</linearGradient>
<linearGradient id="paint11_linear_5106_17573" x1="18.5705" y1="131.77" x2="56.8354" y2="113.003" gradientUnits="userSpaceOnUse">
<stop stop-color="#F0AC56"/>
<stop offset="1" stop-color="#FFCD8E"/>
</linearGradient>
<linearGradient id="paint12_linear_5106_17573" x1="18.3133" y1="119.203" x2="49.5892" y2="120.906" gradientUnits="userSpaceOnUse">
<stop stop-color="#F1C251"/>
<stop offset="1" stop-color="#FFE599"/>
</linearGradient>
<linearGradient id="paint13_linear_5106_17573" x1="258.557" y1="149.558" x2="271.231" y2="204.64" gradientUnits="userSpaceOnUse">
<stop stop-color="#FDEAD0"/>
<stop offset="0.887272" stop-color="#FFB96F"/>
</linearGradient>
</defs>
</svg>
