<svg width="378" height="210" viewBox="0 0 378 210" fill="none" xmlns="http://www.w3.org/2000/svg">
<g filter="url(#filter0_d_5073_12468)">
<path d="M5 25C5 13.9543 13.9543 5 25 5H353C364.046 5 373 13.9543 373 25V185C373 196.046 364.046 205 353 205H25C13.9543 205 5 196.046 5 185V25Z" fill="#FAFBFC"/>
<path d="M5 25C5 13.9543 13.9543 5 25 5H353C364.046 5 373 13.9543 373 25V185C373 196.046 364.046 205 353 205H25C13.9543 205 5 196.046 5 185V25Z" stroke="#F99576"/>
</g>
<g opacity="0.2">
<path d="M188.999 170.167C153.559 170.167 124.832 141.439 124.832 106C124.832 70.5608 153.559 41.8333 188.999 41.8333C224.438 41.8333 253.165 70.5608 253.165 106C253.165 141.439 224.438 170.167 188.999 170.167ZM188.999 157.333C202.613 157.333 215.67 151.925 225.297 142.298C234.924 132.671 240.332 119.614 240.332 106C240.332 92.3856 234.924 79.3287 225.297 69.7019C215.67 60.075 202.613 54.6667 188.999 54.6667C175.384 54.6667 162.327 60.075 152.701 69.7019C143.074 79.3287 137.665 92.3856 137.665 106C137.665 119.614 143.074 132.671 152.701 142.298C162.327 151.925 175.384 157.333 188.999 157.333ZM182.582 125.25H195.415V138.083H182.582V125.25ZM195.415 114.695V118.833H182.582V109.208C182.582 107.507 183.258 105.874 184.461 104.671C185.665 103.468 187.297 102.792 188.999 102.792C190.822 102.792 192.607 102.274 194.147 101.299C195.687 100.324 196.919 98.9312 197.698 97.2835C198.478 95.6358 198.774 93.8006 198.551 91.9914C198.328 90.1822 197.597 88.4734 196.441 87.0639C195.285 85.6543 193.753 84.6019 192.022 84.0292C190.292 83.4564 188.434 83.3868 186.666 83.8285C184.897 84.2702 183.291 85.2051 182.033 86.5243C180.775 87.8434 179.917 89.4927 179.56 91.2802L166.97 88.7584C167.751 84.8576 169.553 81.2341 172.193 78.2581C174.833 75.2822 178.216 73.0606 181.995 71.8205C185.775 70.5804 189.817 70.3662 193.706 71.2C197.596 72.0337 201.195 73.8853 204.134 76.5656C207.074 79.2459 209.249 82.6588 210.438 86.4553C211.626 90.2517 211.785 94.2957 210.898 98.1737C210.011 102.052 208.11 105.625 205.39 108.527C202.67 111.43 199.228 113.558 195.415 114.695Z" fill="#C0C0C0"/>
</g>
<defs>
<filter id="filter0_d_5073_12468" x="0.5" y="0.5" width="377" height="209" filterUnits="userSpaceOnUse" color-interpolation-filters="sRGB">
<feFlood flood-opacity="0" result="BackgroundImageFix"/>
<feColorMatrix in="SourceAlpha" type="matrix" values="0 0 0 0 0 0 0 0 0 0 0 0 0 0 0 0 0 0 127 0" result="hardAlpha"/>
<feOffset/>
<feGaussianBlur stdDeviation="2"/>
<feColorMatrix type="matrix" values="0 0 0 0 0.976471 0 0 0 0 0.584314 0 0 0 0 0.462745 0 0 0 0.05 0"/>
<feBlend mode="normal" in2="BackgroundImageFix" result="effect1_dropShadow_5073_12468"/>
<feBlend mode="normal" in="SourceGraphic" in2="effect1_dropShadow_5073_12468" result="shape"/>
</filter>
</defs>
</svg>
