<svg width="40" height="35" viewBox="0 0 40 35" fill="none" xmlns="http://www.w3.org/2000/svg">
<path d="M21.5884 1.49998L39.0527 31.75C39.2137 32.0287 39.2984 32.3448 39.2984 32.6666C39.2984 32.9884 39.2137 33.3046 39.0528 33.5833C38.8919 33.862 38.6604 34.0934 38.3817 34.2543C38.103 34.4153 37.7869 34.5 37.4651 34.5H2.53641C2.2146 34.5 1.89846 34.4153 1.61976 34.2543C1.34107 34.0934 1.10964 33.862 0.948733 33.5833C0.78783 33.3046 0.703123 32.9884 0.703125 32.6666C0.703127 32.3448 0.787839 32.0287 0.948745 31.75L18.4131 1.49998C18.574 1.2213 18.8054 0.989879 19.0841 0.828986C19.3628 0.668092 19.6789 0.583389 20.0007 0.583389C20.3225 0.583389 20.6387 0.668092 20.9174 0.828986C21.1961 0.989879 21.4275 1.2213 21.5884 1.49998ZM18.1674 25.3333V29H21.8341V25.3333H18.1674ZM18.1674 12.5V21.6666H21.8341V12.5H18.1674Z" fill="url(#paint0_linear_5110_9746)"/>
<defs>
<linearGradient id="paint0_linear_5110_9746" x1="0.703125" y1="21.5581" x2="39.3044" y2="21.1984" gradientUnits="userSpaceOnUse">
<stop offset="0.651042" stop-color="#E70808"/>
<stop offset="1" stop-color="#FC541E"/>
</linearGradient>
</defs>
</svg>
