<svg width="18" height="10" viewBox="0 0 18 10" fill="none" xmlns="http://www.w3.org/2000/svg">
<path d="M17.1933 0.709379C17.1359 0.572878 17.0394 0.456414 16.916 0.374666C16.7925 0.292917 16.6476 0.24954 16.4995 0.250004H1.49954C1.35147 0.24954 1.20658 0.292917 1.08312 0.374666C0.95966 0.456414 0.863163 0.572878 0.805787 0.709379C0.751752 0.847912 0.738045 0.998912 0.766249 1.14491C0.794453 1.29091 0.863417 1.42594 0.965162 1.53438L8.46516 9.03438C8.60852 9.17299 8.80013 9.25048 8.99954 9.25048C9.19895 9.25048 9.39056 9.17299 9.53391 9.03438L17.0339 1.53438C17.1357 1.42594 17.2046 1.29091 17.2328 1.14491C17.261 0.998912 17.2473 0.847912 17.1933 0.709379Z" fill="url(#paint0_linear_3442_2301)"/>
<defs>
<linearGradient id="paint0_linear_3442_2301" x1="0.751953" y1="5.81609" x2="17.2474" y2="5.56851" gradientUnits="userSpaceOnUse">
<stop offset="0.651042" stop-color="#E70808"/>
<stop offset="1" stop-color="#FC541E"/>
</linearGradient>
</defs>
</svg>
