<svg width="26" height="26" viewBox="0 0 26 26" fill="none" xmlns="http://www.w3.org/2000/svg">
<circle cx="13" cy="13" r="13" fill="url(#paint0_linear_3442_1988)"/>
<path d="M9.89014 9.60596L12.1756 11.8283H11.0221C10.3992 11.8283 9.89014 11.3333 9.89014 10.7277V9.60596Z" fill="white"/>
<path d="M13.5029 11.8283L15.7884 9.60596V10.7277C15.7884 11.3333 15.2793 11.8283 14.6565 11.8283H13.5029Z" fill="white"/>
<path d="M11.2172 5.90918V7.79974H10.4969C9.31626 7.79974 8.35765 8.73185 8.35765 9.87988V11.2438H6.5V9.6903C6.5 7.60489 8.2385 5.91445 10.3832 5.91445H11.2172V5.90918Z" fill="white"/>
<path d="M10.3236 12.7446V13.5398C10.3236 14.098 9.85784 14.5509 9.28376 14.5509H8.43347V17.2104L8.35765 17.2735L6.5 18.7639V12.7446H10.3236Z" fill="white"/>
<path d="M19.07 9.68503V18.8429L17.2124 17.3105V9.87988C17.2124 8.73185 16.2538 7.79974 15.0677 7.79974H14.6398V8.45274C14.6398 9.03729 14.1524 9.51125 13.5512 9.51125H12.7876V5.90918H15.1868C17.3315 5.90918 19.07 7.59962 19.07 9.68503Z" fill="white"/>
<path d="M19.0702 18.2216V20.091L18.9403 19.9857L15.9345 17.6212L12.9232 19.9857L12.7932 20.091L12.6578 19.9857L9.67912 17.7055L6.5 20.07V18.1426L8.35765 16.647L8.43347 16.5838L8.87757 16.2309C9.32709 15.836 10.0095 15.8202 10.4753 16.1941L12.7824 18.032L15.03 16.1941C15.4849 15.8202 16.1565 15.8202 16.6114 16.1993L17.2126 16.6944L19.0702 18.2216Z" fill="white"/>
<defs>
<linearGradient id="paint0_linear_3442_1988" x1="-1.09233e-07" y1="16.0789" x2="26.0046" y2="15.866" gradientUnits="userSpaceOnUse">
<stop offset="0.651042" stop-color="#E70808"/>
<stop offset="1" stop-color="#FC541E"/>
</linearGradient>
</defs>
</svg>
