<svg width="32" height="32" viewBox="0 0 32 32" fill="none" xmlns="http://www.w3.org/2000/svg">
<path d="M28 6.00049H4C3.73478 6.00049 3.48043 6.10585 3.29289 6.29338C3.10536 6.48092 3 6.73527 3 7.00049V24.0005C3 24.5309 3.21071 25.0396 3.58579 25.4147C3.96086 25.7898 4.46957 26.0005 5 26.0005H27C27.5304 26.0005 28.0391 25.7898 28.4142 25.4147C28.7893 25.0396 29 24.5309 29 24.0005V7.00049C29 6.73527 28.8946 6.48092 28.7071 6.29338C28.5196 6.10585 28.2652 6.00049 28 6.00049ZM12.3375 16.0005L5 22.7255V9.27549L12.3375 16.0005ZM13.8125 17.363L15.325 18.738C15.5093 18.9066 15.7501 19.0002 16 19.0002C16.2499 19.0002 16.4907 18.9066 16.675 18.738L18.1875 17.363L25.425 24.0005H6.575L13.8125 17.363ZM19.6625 16.0005L27 9.27549V22.7255L19.6625 16.0005Z" fill="url(#paint0_linear_3442_16300)"/>
<defs>
<linearGradient id="paint0_linear_3442_16300" x1="3" y1="18.3689" x2="29.0034" y2="18.0921" gradientUnits="userSpaceOnUse">
<stop stop-color="#FF1A46"/>
<stop offset="1" stop-color="#FF6746"/>
</linearGradient>
</defs>
</svg>
