<svg width="16" height="12" viewBox="0 0 16 12" fill="none" xmlns="http://www.w3.org/2000/svg">
<path d="M14.9208 2.59377C14.7778 2.47438 14.6041 2.3976 14.4195 2.37218C14.235 2.34677 14.047 2.37374 13.877 2.45002L10.7145 3.85627L8.87702 0.543769C8.7892 0.389118 8.66195 0.260506 8.50825 0.171033C8.35454 0.0815607 8.17987 0.0344238 8.00202 0.0344238C7.82417 0.0344238 7.6495 0.0815607 7.49579 0.171033C7.34209 0.260506 7.21485 0.389118 7.12702 0.543769L5.28952 3.85627L2.12702 2.45002C1.95671 2.37385 1.76849 2.34684 1.58364 2.37205C1.39878 2.39726 1.22466 2.47368 1.08097 2.59266C0.937272 2.71165 0.829728 2.86847 0.770493 3.04538C0.711258 3.22229 0.702694 3.41224 0.74577 3.59377L2.33327 10.3625C2.36363 10.4936 2.42027 10.6171 2.49977 10.7256C2.57927 10.8341 2.67997 10.9253 2.79577 10.9938C2.95255 11.0876 3.1318 11.1373 3.31452 11.1375C3.40334 11.1374 3.4917 11.1247 3.57702 11.1C6.47066 10.3 9.52713 10.3 12.4208 11.1C12.685 11.1695 12.966 11.1313 13.202 10.9938C13.3185 10.9262 13.4198 10.8352 13.4994 10.7266C13.579 10.6179 13.6352 10.494 13.6645 10.3625L15.2583 3.59377C15.3009 3.4122 15.2918 3.22233 15.2322 3.04562C15.1725 2.86891 15.0647 2.7124 14.9208 2.59377Z" fill="#F2AB21"/>
</svg>
