<svg width="58" height="35" viewBox="0 0 58 35" fill="none" xmlns="http://www.w3.org/2000/svg">
<path d="M42.0069 8C42.0069 3.58763 45.5945 -5.42262e-07 50 -3.49691e-07C54.4055 -1.57121e-07 58 3.58763 58 8C58 12.4124 54.4124 16 50 16C45.5876 16 42 12.4124 42 8L42.0069 8ZM53.8763 8C53.8763 5.86254 52.1375 4.12371 50 4.12371C47.8625 4.12371 46.1237 5.86254 46.1237 8C46.1237 10.1375 47.8625 11.8763 50 11.8763C52.1375 11.8763 53.8763 10.1375 53.8763 8V8Z" fill="#8B8DFC"/>
<path d="M44 10.9404L44 4.94043L9.66184e-07 4.94043L7.03916e-07 10.9404L8.99336 10.9404L19.966 10.9404L44 10.9404Z" fill="url(#paint0_linear_150_253)"/>
<path d="M15.9931 27C15.9931 31.4124 12.4055 35 8 35C3.5945 35 4.2782e-08 31.4124 9.5399e-08 27C1.48016e-07 22.5876 3.58763 19 8 19C12.4124 19 16 22.5876 16 27L15.9931 27ZM4.12371 27C4.12371 29.1375 5.86254 30.8763 8 30.8763C10.1375 30.8763 11.8763 29.1375 11.8763 27C11.8763 24.8625 10.1375 23.1237 8 23.1237C5.86254 23.1237 4.12371 24.8625 4.12371 27V27Z" fill="#8B8DFC"/>
<path d="M14 24.0596L14 30.0596L58 30.0596L58 24.0596L49.0066 24.0596L38.034 24.0596L14 24.0596Z" fill="url(#paint1_linear_150_253)"/>
<defs>
<linearGradient id="paint0_linear_150_253" x1="44" y1="7.94043" x2="-1.31134e-07" y2="7.94043" gradientUnits="userSpaceOnUse">
<stop stop-color="#8B8DFC"/>
<stop offset="1" stop-color="#8B8DFC" stop-opacity="0"/>
</linearGradient>
<linearGradient id="paint1_linear_150_253" x1="14" y1="27.0596" x2="58" y2="27.0596" gradientUnits="userSpaceOnUse">
<stop stop-color="#8B8DFC"/>
<stop offset="1" stop-color="#8B8DFC" stop-opacity="0"/>
</linearGradient>
</defs>
</svg>
