<svg width="165" height="52" viewBox="0 0 165 52" fill="none" xmlns="http://www.w3.org/2000/svg">
<path d="M0 36.3171L7.83783 23.4816H0.221303V19.3198H12.8356V23.5676L5.04695 36.4032H12.8356V40.5649H0V36.3171Z" fill="white"/>
<path d="M15.491 10.9099H19.9171V27.1081L25.0071 19.3194H29.6544L24.6075 27.0651L29.6975 40.5646H25.3144L21.8166 31.3989L19.9109 34.4972V40.5646H15.4849V10.9099H15.491Z" fill="#8B8DFC"/>
<path d="M29.6116 33.9687V25.9158C29.6116 21.6188 32.1812 19.0984 36.472 19.0984C40.7628 19.0984 43.3324 21.6188 43.3324 25.9158V31.0057H34.0376V32.7762C34.0376 35.3457 34.7876 36.4523 36.472 36.4523C38.1563 36.4523 38.9063 35.2105 38.9063 34.104V33.4401H43.3324V34.854C43.3324 38.7022 40.7628 40.7861 36.472 40.7861C32.1812 40.7861 29.6116 38.2657 29.6116 33.9687ZM38.8633 27.5509V26.4444C38.8633 24.5388 38.0641 23.4322 36.472 23.4322C34.8798 23.4322 34.0376 24.5388 34.0376 26.4444V27.5509H38.8633Z" fill="white"/>
<path d="M48.5516 39.858L43.5046 19.3198H47.9307L50.8507 32.9976L53.7707 19.3198H58.1967L50.1868 51.6301H45.5394L48.5516 39.858Z" fill="white"/>
<path d="M66.1697 7.36914H73.2944C77.4131 7.36914 80.4192 10.0678 80.4192 14.2295V21.6186C80.4192 25.8234 77.407 28.479 73.2944 28.479H69.8888V40.5646H66.1697V7.36914ZM73.2944 24.9443C75.2861 24.9443 76.7 23.6165 76.7 20.6965V15.1639C76.7 12.244 75.2861 10.9161 73.2944 10.9161H69.8888V24.9505H73.2944V24.9443Z" fill="white"/>
<path d="M82.4109 19.6699H85.5952V21.4834C85.8165 21.1268 87.4087 19.6699 89.9352 19.6699H90.5991V23.4321C87.4148 22.7251 85.9517 23.7394 85.9517 27.1512V40.5646H82.4109V19.6699Z" fill="white"/>
<path d="M91.6626 34.3252V25.9157C91.6626 21.797 94.0539 19.4548 98.0374 19.4548C102.021 19.4548 104.369 21.8031 104.369 25.9157V34.3252C104.369 38.4439 102.021 40.786 98.0374 40.786C94.0539 40.786 91.6626 38.4377 91.6626 34.3252ZM100.828 33.3047V26.93C100.828 24.0961 99.9 22.9035 98.0374 22.9035C96.1747 22.9035 95.2034 24.0961 95.2034 26.93V33.3047C95.2034 36.1386 96.1747 37.3312 98.0374 37.3312C99.9 37.3312 100.828 36.1386 100.828 33.3047Z" fill="white"/>
<path d="M107.682 19.6702V14.4941H111.223V19.6702H114.5V22.9037H111.223V32.9976C111.223 35.8745 112.194 37.1163 114.057 37.1163H114.721V40.571H114.057C110.074 40.571 107.682 38.1367 107.682 34.0672V22.9098H104.941V19.6763H107.682V19.6702Z" fill="white"/>
<path d="M116.184 34.3252V25.9157C116.184 21.797 118.576 19.4548 122.559 19.4548C126.543 19.4548 128.891 21.8031 128.891 25.9157V34.3252C128.891 38.4439 126.543 40.786 122.559 40.786C118.576 40.786 116.184 38.4377 116.184 34.3252ZM125.35 33.3047V26.93C125.35 24.0961 124.422 22.9035 122.559 22.9035C120.696 22.9035 119.725 24.0961 119.725 26.93V33.3047C119.725 36.1386 120.696 37.3312 122.559 37.3312C124.422 37.3312 125.35 36.1386 125.35 33.3047Z" fill="white"/>
<path d="M131.098 34.3252V25.9157C131.098 21.797 133.489 19.4548 137.472 19.4548C141.456 19.4548 143.804 21.8031 143.804 25.9157V27.6861H140.263V27.0222C140.263 24.1022 139.292 22.9035 137.472 22.9035C135.653 22.9035 134.639 24.0961 134.639 26.93V33.3047C134.639 36.1386 135.61 37.3312 137.472 37.3312C139.335 37.3312 140.263 36.1386 140.263 33.2125V32.5486H143.804V34.319C143.804 38.4377 141.456 40.7799 137.472 40.7799C133.489 40.7799 131.098 38.4316 131.098 34.319V34.3252Z" fill="white"/>
<path d="M145.796 34.3252V25.9157C145.796 21.797 148.187 19.4548 152.171 19.4548C156.154 19.4548 158.502 21.8031 158.502 25.9157V34.3252C158.502 38.4439 156.154 40.786 152.171 40.786C148.187 40.786 145.796 38.4377 145.796 34.3252ZM154.962 33.3047V26.93C154.962 24.0961 154.033 22.9035 152.171 22.9035C150.308 22.9035 149.337 24.0961 149.337 26.93V33.3047C149.337 36.1386 150.308 37.3312 152.171 37.3312C154.033 37.3312 154.962 36.1386 154.962 33.3047Z" fill="white"/>
<path d="M161.459 7.36914H165V40.5646H161.459V7.36914Z" fill="white"/>
<path d="M17.7412 14.5248C13.7946 14.5248 10.5857 11.3159 10.5857 7.3693C10.5857 3.42272 13.8007 0.219971 17.7412 0.219971C21.6816 0.219971 24.8966 3.42887 24.8966 7.37544C24.8966 11.322 21.6877 14.5309 17.7412 14.5309V14.5248ZM17.7412 3.90836C15.8294 3.90836 14.2741 5.46363 14.2741 7.37544C14.2741 9.28726 15.8294 10.8425 17.7412 10.8425C19.653 10.8425 21.2083 9.28726 21.2083 7.37544C21.2083 5.46363 19.653 3.90836 17.7412 3.90836Z" fill="#8B8DFC"/>
</svg>
