<svg width="32" height="38" viewBox="0 0 32 38" fill="none" xmlns="http://www.w3.org/2000/svg">
<path d="M8.6336 9.91159L14.4428 15.8585H11.5054C9.9136 15.8585 8.61719 14.5314 8.61719 12.9019V9.91159H8.6336Z" fill="url(#paint0_linear_2985_16153)"/>
<path d="M17.8203 15.8585L23.6295 9.91159V12.9187C23.6295 14.5482 22.3331 15.8753 20.7413 15.8753H17.8203V15.8585Z" fill="url(#paint1_linear_2985_16153)"/>
<path d="M12.0123 0V5.07339H10.1908C7.18769 5.07339 4.74256 7.57648 4.74256 10.6508V14.2962H0V10.13C0 4.53581 4.43077 0 9.89538 0H12.0123Z" fill="url(#paint2_linear_2985_16153)"/>
<path d="M9.73128 18.328V20.4615C9.73128 21.9567 8.54975 23.1662 7.08923 23.1662H4.92308V30.2891L4.72615 30.4571L0 34.4553V18.328H9.73128Z" fill="url(#paint3_linear_2985_16153)"/>
<path d="M32 10.13V34.6737L27.2738 30.5747V10.6508C27.2738 7.57648 24.8287 5.07339 21.8256 5.07339H20.7262V6.82051C20.7262 8.39964 19.479 9.65959 17.9528 9.65959H16V0H22.1046C27.5856 0 32 4.53581 32 10.13Z" fill="url(#paint4_linear_2985_16153)"/>
<path d="M32 32.9938V38L31.6718 37.7144L24.0246 31.3811L16.361 37.7144L16.0328 38L15.6882 37.7144L8.10667 31.5995L0 37.9496V32.7922L4.72615 28.794L4.92308 28.626L6.05538 27.6684C7.2041 26.6101 8.92718 26.5597 10.1251 27.5676L16 32.4898L21.7272 27.5508C22.8923 26.5429 24.599 26.5429 25.7477 27.5508L27.2738 28.878L32 32.9938Z" fill="url(#paint5_linear_2985_16153)"/>
<defs>
<linearGradient id="paint0_linear_2985_16153" x1="8.61719" y1="13.5893" x2="14.4439" y2="13.5426" gradientUnits="userSpaceOnUse">
<stop offset="0.651042" stop-color="#E70808"/>
<stop offset="1" stop-color="#FC541E"/>
</linearGradient>
<linearGradient id="paint1_linear_2985_16153" x1="17.8203" y1="13.5997" x2="23.6306" y2="13.5533" gradientUnits="userSpaceOnUse">
<stop offset="0.651042" stop-color="#E70808"/>
<stop offset="1" stop-color="#FC541E"/>
</linearGradient>
<linearGradient id="paint2_linear_2985_16153" x1="-5.0467e-08" y1="8.84107" x2="12.0147" y2="8.75839" gradientUnits="userSpaceOnUse">
<stop offset="0.651042" stop-color="#E70808"/>
<stop offset="1" stop-color="#FC541E"/>
</linearGradient>
<linearGradient id="paint3_linear_2985_16153" x1="-4.08837e-08" y1="28.3015" x2="9.7334" y2="28.2534" gradientUnits="userSpaceOnUse">
<stop offset="0.651042" stop-color="#E70808"/>
<stop offset="1" stop-color="#FC541E"/>
</linearGradient>
<linearGradient id="paint4_linear_2985_16153" x1="16" y1="21.443" x2="32.0036" y2="21.3825" gradientUnits="userSpaceOnUse">
<stop offset="0.651042" stop-color="#E70808"/>
<stop offset="1" stop-color="#FC541E"/>
</linearGradient>
<linearGradient id="paint5_linear_2985_16153" x1="-1.34441e-07" y1="33.7244" x2="31.9903" y2="32.9762" gradientUnits="userSpaceOnUse">
<stop offset="0.651042" stop-color="#E70808"/>
<stop offset="1" stop-color="#FC541E"/>
</linearGradient>
</defs>
</svg>
