<svg width="18" height="16" viewBox="0 0 18 16" fill="none" xmlns="http://www.w3.org/2000/svg">
<path fill-rule="evenodd" clip-rule="evenodd" d="M5.15039 14.7065L7.50874 15.3293V14.5149L7.70125 14.3232H9.04885V15.2813V15.952H7.60499L5.82419 15.1855L5.15039 14.7065Z" fill="#CDBDB2"/>
<path fill-rule="evenodd" clip-rule="evenodd" d="M12.8496 14.7065L10.5394 15.3293V14.5149L10.3469 14.3232H8.99933V15.2813V15.952H10.4432L12.2239 15.1855L12.8496 14.7065Z" fill="#CDBDB2"/>
<path fill-rule="evenodd" clip-rule="evenodd" d="M7.70033 12.9342L7.50781 14.515L7.74841 14.3234H10.2511L10.5399 14.515L10.3474 12.9342L9.96232 12.6946L8.03718 12.7426L7.70033 12.9342Z" fill="#393939"/>
<path fill-rule="evenodd" clip-rule="evenodd" d="M6.40039 2.2514L7.55547 4.93403L8.08493 12.7424H9.9619L10.5394 4.93403L11.5983 2.2514H6.40039Z" fill="#F89C35"/>
<path fill-rule="evenodd" clip-rule="evenodd" d="M1.3476 8.14373L0 12.0239L3.369 11.8323H5.53474V10.1557L5.43848 6.7066L4.9572 7.08984L1.3476 8.14373Z" fill="#F89D35"/>
<path fill-rule="evenodd" clip-rule="evenodd" d="M3.89844 8.57477L7.84498 8.67058L7.41187 10.6825L5.53481 10.2035L3.89844 8.57477Z" fill="#D87C30"/>
<path fill-rule="evenodd" clip-rule="evenodd" d="M3.89844 8.62268L5.53481 10.1556V11.6885L3.89844 8.62268Z" fill="#EA8D3A"/>
<path fill-rule="evenodd" clip-rule="evenodd" d="M5.53516 10.2036L7.4603 10.6826L8.08601 12.7425L7.65281 12.982L5.53516 11.7365V10.2036Z" fill="#F89D35"/>
<path fill-rule="evenodd" clip-rule="evenodd" d="M5.53542 11.7365L5.15039 14.7065L7.70125 12.9341L5.53542 11.7365Z" fill="#EB8F35"/>
<path fill-rule="evenodd" clip-rule="evenodd" d="M7.84456 8.67059L8.08525 12.7425L7.36328 10.6586L7.84456 8.67059Z" fill="#EA8E3A"/>
<path fill-rule="evenodd" clip-rule="evenodd" d="M3.32031 11.7844L5.53423 11.7365L5.1492 14.7065L3.32031 11.7844Z" fill="#D87C30"/>
<path fill-rule="evenodd" clip-rule="evenodd" d="M1.05883 15.9999L5.14972 14.7065L3.32083 11.7844L0 12.0238L1.05883 15.9999Z" fill="#EB8F35"/>
<path fill-rule="evenodd" clip-rule="evenodd" d="M7.55621 4.93414L5.48672 6.65869L3.89844 8.57485L7.84498 8.7186L7.55621 4.93414Z" fill="#E8821E"/>
<path fill-rule="evenodd" clip-rule="evenodd" d="M5.15039 14.7065L7.70125 12.9341L7.50873 14.467V15.3293L5.7761 14.9939L5.15039 14.7065Z" fill="#DFCEC3"/>
<path fill-rule="evenodd" clip-rule="evenodd" d="M12.8496 14.7065L10.3469 12.9341L10.5394 14.467V15.3293L12.2721 14.9939L12.8496 14.7065Z" fill="#DFCEC3"/>
<path fill-rule="evenodd" clip-rule="evenodd" d="M6.78695 9.53296L7.31641 10.6348L5.43935 10.1558L6.78695 9.53296Z" fill="#393939"/>
<path fill-rule="evenodd" clip-rule="evenodd" d="M1.00977 0L7.55525 4.93407L6.44834 2.25145L1.00977 0Z" fill="#E88F35"/>
<path fill-rule="evenodd" clip-rule="evenodd" d="M1.01085 0L0.144531 2.63472L0.625817 5.50897L0.288917 5.70058L0.770203 6.13172L0.385174 6.46705L0.914589 6.94609L0.577688 7.23351L1.34775 8.1916L4.95739 7.0898C6.7221 5.68462 7.58842 4.96605 7.55633 4.93412C7.52425 4.90218 5.34242 3.25748 1.01085 0Z" fill="#8E5A30"/>
<path fill-rule="evenodd" clip-rule="evenodd" d="M16.6524 8.14373L18 12.0239L14.631 11.8323H12.4653V10.1557L12.5615 6.7066L13.0428 7.08984L16.6524 8.14373Z" fill="#F89D35"/>
<path fill-rule="evenodd" clip-rule="evenodd" d="M14.1016 8.57477L10.155 8.67058L10.5881 10.6825L12.4652 10.2035L14.1016 8.57477Z" fill="#D87C30"/>
<path fill-rule="evenodd" clip-rule="evenodd" d="M14.1016 8.62268L12.4652 10.1556V11.6885L14.1016 8.62268Z" fill="#EA8D3A"/>
<path fill-rule="evenodd" clip-rule="evenodd" d="M12.4648 10.2036L10.5397 10.6826L9.91399 12.7425L10.3472 12.982L12.4648 11.7365V10.2036Z" fill="#F89D35"/>
<path fill-rule="evenodd" clip-rule="evenodd" d="M12.4646 11.7365L12.8496 14.7065L10.3469 12.982L12.4646 11.7365Z" fill="#EB8F35"/>
<path fill-rule="evenodd" clip-rule="evenodd" d="M10.1554 8.67059L9.91475 12.7425L10.6367 10.6586L10.1554 8.67059Z" fill="#EA8E3A"/>
<path fill-rule="evenodd" clip-rule="evenodd" d="M14.6797 11.7844L12.4658 11.7365L12.8508 14.7065L14.6797 11.7844Z" fill="#D87C30"/>
<path fill-rule="evenodd" clip-rule="evenodd" d="M16.9412 15.9999L12.8503 14.7065L14.6792 11.7844L18 12.0238L16.9412 15.9999Z" fill="#EB8F35"/>
<path fill-rule="evenodd" clip-rule="evenodd" d="M10.4438 4.93414L12.5133 6.65869L14.1016 8.57485L10.155 8.7186L10.4438 4.93414Z" fill="#E8821E"/>
<path fill-rule="evenodd" clip-rule="evenodd" d="M11.2131 9.53296L10.6836 10.6348L12.5606 10.1558L11.2131 9.53296Z" fill="#393939"/>
<path fill-rule="evenodd" clip-rule="evenodd" d="M16.9902 0L10.4447 4.93407L11.5517 2.25145L16.9902 0Z" fill="#E88F35"/>
<path fill-rule="evenodd" clip-rule="evenodd" d="M16.9892 0L17.8555 2.63472L17.3742 5.50897L17.7111 5.70058L17.2298 6.13172L17.6148 6.46705L17.0854 6.94609L17.4223 7.23351L16.6523 8.1916L13.0426 7.0898C11.2779 5.68462 10.4116 4.96605 10.4437 4.93412C10.4758 4.90218 12.6576 3.25748 16.9892 0Z" fill="#8E5A30"/>
</svg>
