<svg width="18" height="18" viewBox="0 0 18 18" fill="none" xmlns="http://www.w3.org/2000/svg">
<path d="M18 6.375C18.0005 6.52307 17.9571 6.66797 17.8753 6.79142C17.7936 6.91488 17.6771 7.01138 17.5406 7.06875C17.4481 7.10549 17.3495 7.12457 17.25 7.125C17.0508 7.12416 16.8596 7.04699 16.7156 6.90938L14.4375 4.62188L11.025 8.03438C10.885 8.17225 10.6965 8.24967 10.5 8.25C10.3008 8.24916 10.1096 8.17199 9.96563 8.03438C9.82537 7.89378 9.7466 7.70329 9.7466 7.50469C9.7466 7.30609 9.82537 7.1156 9.96563 6.975L13.3781 3.5625L11.0906 1.28438C10.9889 1.17594 10.9199 1.04091 10.8917 0.894911C10.8635 0.748912 10.8772 0.597912 10.9313 0.459379C10.9886 0.322878 11.0851 0.206414 11.2086 0.124665C11.332 0.0429164 11.4769 -0.000459526 11.625 3.67135e-06H17.25C17.4489 3.67135e-06 17.6397 0.0790214 17.7803 0.219674C17.921 0.360326 18 0.551091 18 0.750004V6.375ZM14.25 9.75C14.0511 9.75 13.8603 9.82902 13.7197 9.96967C13.579 10.1103 13.5 10.3011 13.5 10.5V16.5H1.5V4.5H7.5C7.69891 4.5 7.88968 4.42099 8.03033 4.28033C8.17098 4.13968 8.25 3.94892 8.25 3.75C8.25 3.55109 8.17098 3.36033 8.03033 3.21967C7.88968 3.07902 7.69891 3 7.5 3H1.5C1.10218 3 0.720644 3.15804 0.43934 3.43934C0.158035 3.72065 0 4.10218 0 4.5V16.5C0 16.8978 0.158035 17.2794 0.43934 17.5607C0.720644 17.842 1.10218 18 1.5 18H13.5C13.8978 18 14.2794 17.842 14.5607 17.5607C14.842 17.2794 15 16.8978 15 16.5V10.5C15 10.3011 14.921 10.1103 14.7803 9.96967C14.6397 9.82902 14.4489 9.75 14.25 9.75Z" fill="url(#paint0_linear_3442_15403)"/>
<defs>
<linearGradient id="paint0_linear_3442_15403" x1="-7.56229e-08" y1="11.1316" x2="18.0032" y2="10.9841" gradientUnits="userSpaceOnUse">
<stop offset="0.651042" stop-color="#E70808"/>
<stop offset="1" stop-color="#FC541E"/>
</linearGradient>
</defs>
</svg>
