<svg width="32" height="32" viewBox="0 0 32 32" fill="none" xmlns="http://www.w3.org/2000/svg">
<circle cx="16" cy="16" r="16" fill="url(#paint0_linear_5128_11529)"/>
<path d="M12.1719 11.8228L14.9848 14.558H13.565C12.7984 14.558 12.1719 13.9487 12.1719 13.2034V11.8228Z" fill="white"/>
<path d="M16.6191 14.558L19.4321 11.8228V13.2034C19.4321 13.9487 18.8055 14.558 18.0389 14.558H16.6191Z" fill="white"/>
<path d="M13.8058 7.27284V9.59968H12.9193C11.4662 9.59968 10.2863 10.7469 10.2863 12.1599V13.8386H8V11.9265C8 9.35987 10.1397 7.27932 12.7793 7.27932H13.8058V7.27284Z" fill="white"/>
<path d="M12.706 15.6858V16.6645C12.706 17.3515 12.1327 17.9089 11.4262 17.9089H10.3797V21.182L10.2863 21.2598L8 23.0941V15.6858H12.706Z" fill="white"/>
<path d="M23.4705 11.92V23.1913L21.1842 21.3052V12.1599C21.1842 10.7469 20.0043 9.59968 18.5445 9.59968H18.0179V10.4034C18.0179 11.1228 17.418 11.7062 16.6781 11.7062H15.7383V7.27284H18.6912C21.3308 7.27284 23.4705 9.35339 23.4705 11.92Z" fill="white"/>
<path d="M23.4711 22.4265V24.7274L23.3111 24.5978L19.6116 21.6876L15.9055 24.5978L15.7455 24.7274L15.5789 24.5978L11.9128 21.7913L8 24.7015V22.3293L10.2863 20.4885L10.3797 20.4107L10.9262 19.9765C11.4795 19.4904 12.3194 19.4709 12.8926 19.9311L15.7322 22.1931L18.4985 19.9311C19.0584 19.4709 19.8849 19.4709 20.4448 19.9376L21.1847 20.5469L23.4711 22.4265Z" fill="white"/>
<defs>
<linearGradient id="paint0_linear_5128_11529" x1="-1.34441e-07" y1="19.7895" x2="32.0056" y2="19.5274" gradientUnits="userSpaceOnUse">
<stop offset="0.651042" stop-color="#E70808"/>
<stop offset="1" stop-color="#FC541E"/>
</linearGradient>
</defs>
</svg>
