<?xml version="1.0" encoding="utf-8"?>
<!-- Generator: Adobe Illustrator 25.0.0, SVG Export Plug-In . SVG Version: 6.00 Build 0)  -->
<svg version="1.0" id="Layer_1" xmlns="http://www.w3.org/2000/svg" xmlns:xlink="http://www.w3.org/1999/xlink" x="0px" y="0px"
	 viewBox="0 0 500 500" style="enable-background:new 0 0 500 500;" xml:space="preserve">
<style type="text/css">
	.st0{fill:#EFC943;}
	.st1{fill:#F9D454;}
	.st2{fill:#E19E2B;}
	.st3{opacity:0.1;fill:#FFFFFF;}
	.st4{opacity:0.2;}
	.st5{fill:#D6B443;}
</style>
<circle class="st0" cx="250" cy="250" r="250"/>
<g>
	<polygon class="st1" points="465.4,250 447.7,270.8 460.7,294.8 439.1,311.5 446.8,337.6 422.2,349.4 424.3,376.6 397.8,383 
		394.1,410.1 366.9,410.9 357.7,436.6 330.9,431.7 316.6,454.9 291.4,444.5 272.5,464.2 250,448.8 227.5,464.2 208.6,444.5 
		183.4,454.9 169.1,431.7 142.3,436.6 133.1,410.9 105.9,410.1 102.2,383 75.7,376.6 77.8,349.4 53.2,337.6 60.9,311.5 39.3,294.8 
		52.3,270.8 34.6,250 52.3,229.2 39.3,205.2 60.9,188.5 53.2,162.4 77.8,150.6 75.7,123.4 102.2,117 105.9,89.9 133.1,89.1 
		142.3,63.4 169.1,68.3 183.4,45.1 208.6,55.5 227.5,35.8 250,51.2 272.5,35.8 291.4,55.5 316.6,45.1 330.9,68.3 357.7,63.4 
		366.9,89.1 394.1,89.9 397.8,117 424.3,123.4 422.2,150.6 446.8,162.4 439.1,188.5 460.7,205.2 447.7,229.2 	"/>
</g>
<g id="HsOrgf.tif">
	<g>
		<path class="st2" d="M253.8,129.5c1.7,2-0.3,4.4-5.6,5.8c-3,0.8-1.8,4.8,0.8,6.4c2.6,1.6,4.3,1.8,4.8,1.5
			c10.8-7.2,15.8-5.7,17.5-5.6c5.6,1.3,6.9,3.9,6.9,4.2c-4,0-4.5,1.5-3.3,2.6c2.6,2.6,8.3,1.9,13.5,0.8c-1.4,0.8,7.4,16.9,20.9,20.3
			c1.9,0.5,3.8,0.4,5.7,0.1c2.6-0.4,4.9,1.6,4.9,4.2l0.2,15.5c0,0-1-0.2-1.3-0.6c-1.3-1.1-1.3-2.6-0.8-4.7c0.5-2.1,0.9-6.1-8.4-5.3
			c16,33.6,12.7,54.1,13.1,74.5c-0.1,0.6-72.8,97.2-72.8,97.2l-22.9,0.1l-44.4-59.2h-2.6c0,0,0,14.6,0,14.9
			c3.4,1.1,4.4,32.8,4.4,32.8h8l0.8-2.5l9.6,0v-0.4c0-1.3,1-2.5,2.3-2.6l0,0v17.8c-0.5,0-19.5,0-19.5,0l-0.1-5.1l-7.1-0.2
			c-3.3-0.1-5.9-2.8-5.9-6.1v-1h2.9c-1.6-13.6-11.6-40.8-22.7-56.9c-1.9-2.7,0.2-6.5,3.5-6.3c6.3,0.3,14.4-1.3,21.8-8.3
			c1.4-1.3,3.6-1.5,5.2-0.3l34.6,25.5l6.8-5.7l-7.2-6c-3.2-2.7-3.9-7.4-1.7-10.9c5.2-8.1,11.2-17.3,14.7-31
			c3.3,1.8,18-17.2,23.6-27.6c-0.2-1.3-4.8-6-4.8-6c-6.5,8.7-13.1,17.3-21.3,19.2l1.2,1.6c1.9,2.4,1.8,5.8-0.3,8.1l-11.3,12.3h-12.1
			c-5.6,0-10.1-4.5-10.1-10.1v0c-1.4-0.2-2.7-0.4-2.4-2.5l5-0.1l-0.1-16.9h2.5v-12.8l-2.4,0v-7.6h2.9l0-12.5c0-1.4,1.1-2.5,2.5-2.5
			l0,0c-14.2,0.7-15.6-8.5-15.4-15.1c0,0,1.4-0.1,1.8-0.1c2.9,0,15.1,0,15.1,0l10.8-12.1h7.1c0,0,2.1-7.5,10.7-12.9
			C240.4,132.9,251.1,133.4,253.8,129.5z"/>
	</g>
	<circle class="st2" cx="243.5" cy="141.3" r="1.6"/>
</g>
<g>
	<polygon class="st2" points="82.3,347.6 131.4,347.6 91.8,298.1 	"/>
	<path class="st2" d="M174.2,256.1l-59.6-76.2l-6.5,33.9l42.4,51.7C150.5,265.5,164.9,266.1,174.2,256.1z"/>
	<polygon class="st2" points="163,315.5 102.9,240.5 96.6,273.2 156.3,347.6 157,347.6 	"/>
</g>
<g>
	<polygon class="st2" points="386.3,347.6 395.8,295.3 333.6,347.3 	"/>
	<polygon class="st2" points="277.6,346.9 309.9,347.1 400.1,271.8 405.9,239.6 	"/>
	<polygon class="st2" points="417.1,178.1 322.5,249.4 226.8,346.6 249.5,346.8 411,211.7 	"/>
</g>
<ellipse transform="matrix(0.7985 -0.602 0.602 0.7985 -54.8979 133.8973)" class="st3" cx="172.6" cy="149" rx="86.1" ry="55.8"/>
<g class="st4">
	<path class="st5" d="M12.1,327C44.6,427.4,138.8,500,250,500c138.1,0,250-111.9,250-250c0-43.6-11.2-84.6-30.8-120.3
		C341.5,316.6,120.1,331.7,12.1,327z"/>
</g>
</svg>
