<?xml version="1.0" encoding="utf-8"?>
<!-- Generator: Adobe Illustrator 25.0.0, SVG Export Plug-In . SVG Version: 6.00 Build 0)  -->
<svg version="1.0" id="Layer_1" xmlns="http://www.w3.org/2000/svg" xmlns:xlink="http://www.w3.org/1999/xlink" x="0px" y="0px"
	 viewBox="0 0 500 500" style="enable-background:new 0 0 500 500;" xml:space="preserve">
<style type="text/css">
	.st0{clip-path:url(#SVGID_2_);fill:url(#SVGID_3_);}
	.st1{clip-path:url(#SVGID_2_);fill:none;stroke:#D72E7A;stroke-miterlimit:10;}
	.st2{clip-path:url(#SVGID_2_);fill:url(#SVGID_4_);}
	.st3{clip-path:url(#SVGID_2_);fill:none;stroke:#F55193;stroke-miterlimit:10;}
	.st4{clip-path:url(#SVGID_2_);fill:#FFA797;}
	.st5{clip-path:url(#SVGID_2_);fill:#3BB0F9;}
	.st6{clip-path:url(#SVGID_2_);fill:#6780A4;}
	.st7{clip-path:url(#SVGID_2_);fill:#95BAE4;}
	.st8{clip-path:url(#SVGID_2_);fill:#5A6789;}
	.st9{clip-path:url(#SVGID_2_);fill:none;stroke:#304358;stroke-width:12;stroke-miterlimit:10;}
	.st10{clip-path:url(#SVGID_2_);fill:none;stroke:#304358;stroke-width:8;stroke-miterlimit:10;}
	.st11{clip-path:url(#SVGID_2_);}
	.st12{fill:#F9CAC2;}
	.st13{fill:#FFFFFF;}
	.st14{fill:#91C5E9;}
	.st15{fill:none;stroke:#304358;stroke-width:3;stroke-miterlimit:10;}
	.st16{clip-path:url(#SVGID_2_);fill:none;stroke:#49587D;stroke-width:3;stroke-miterlimit:10;}
</style>
<g>
	<defs>
		<circle id="SVGID_1_" cx="250.2" cy="250" r="249.8"/>
	</defs>
	<clipPath id="SVGID_2_">
		<use xlink:href="#SVGID_1_"  style="overflow:visible;"/>
	</clipPath>
	<radialGradient id="SVGID_3_" cx="250.1726" cy="250" r="249.8274" gradientUnits="userSpaceOnUse">
		<stop  offset="0.8716" style="stop-color:#DE2E98"/>
		<stop  offset="0.9006" style="stop-color:#E93497"/>
		<stop  offset="0.9566" style="stop-color:#F93C96"/>
		<stop  offset="1" style="stop-color:#FF3F95"/>
	</radialGradient>
	<circle class="st0" cx="250.2" cy="250" r="249.8"/>
	<circle class="st1" cx="250.2" cy="250" r="237.9"/>
	<radialGradient id="SVGID_4_" cx="250.1726" cy="250" r="217.5045" gradientUnits="userSpaceOnUse">
		<stop  offset="0.8405" style="stop-color:#FF5A97"/>
		<stop  offset="0.8766" style="stop-color:#FF6598"/>
		<stop  offset="0.9461" style="stop-color:#FF7599"/>
		<stop  offset="1" style="stop-color:#FF7B9A"/>
	</radialGradient>
	<circle class="st2" cx="250.2" cy="250" r="217.5"/>
	<circle class="st3" cx="250.2" cy="250" r="201"/>
	<circle class="st4" cx="250.2" cy="250" r="182.2"/>
	<rect x="-75.7" y="328.5" class="st5" width="585.4" height="232.2"/>
	<polygon class="st6" points="244.9,240.7 269.8,210 320.5,210 357.8,287.7 395.6,328.5 359.1,345.5 271.8,362.5 	"/>
	<polygon class="st7" points="242.9,219.6 250.2,205.7 221.6,177 192.1,182.3 187.8,247.3 167.4,247.3 148.6,293.6 104.8,328.5 
		122.3,353.2 149.6,357.6 237.8,347.8 271.8,362.5 322.3,352 276.1,262.2 	"/>
	<polygon class="st6" points="192.1,182.3 221.3,204 222.7,224.7 250.2,263.6 271.8,362.5 322.3,352 276.1,262.2 242.9,219.6 
		250.2,205.7 221.6,177 	"/>
	<path class="st8" d="M269.8,210l25.9,22.8l63.4,112.7l36.4-17l-37.7-40.8l-34.4-65.5c-3.9-7.5-11.7-12.1-20.1-12.1H269.8z"/>
	<polygon class="st6" points="225.7,281.3 149.6,357.6 237.8,347.8 238.4,328.6 229.4,318.7 	"/>
	<path class="st9" d="M315.2,353.2l-39.1-91.1l-33.2-42.6l7.3-13.9L221.6,177l-29.5,5.2l-4.3,65.1h-20.4l-18.8,46.3l-43.8,34.9
		l17.5,24.7l27.3,4.4l88.2-9.8l34,14.7L315.2,353.2l43.9-7.7l36.4-17l-37.7-40.8l-34.4-65.5c-3.9-7.5-11.7-12.1-20.1-12.1h-33.6
		l-16.6,21.6"/>
	<polyline class="st10" points="187.8,247.3 196.8,253.2 202.1,269.5 225.7,281.3 229.4,318.7 238.4,328.6 237.8,347.8 	"/>
	<g class="st11">
		<path class="st12" d="M211.2,103.8C211.2,103.8,211.2,103.8,211.2,103.8C211.2,103.8,211.2,103.8,211.2,103.8
			c-0.3-0.8-0.7-1.5-1.2-2.3c0,0,0,0,0,0.1c0,0,0,0,0-0.1c-4.5-7.7-12.8-12.9-22.3-12.9c-14.2,0-25.8,11.5-25.8,25.8
			c0,0.3,0,0.5,0,0.8c-2.7-2.4-6.2-3.9-10.1-3.9c-7.3,0-13.4,5.2-14.7,12.2c-0.6-0.1-1.1-0.2-1.7-0.2c-5.1,0-9.3,4.2-9.3,9.3
			c0,0.4,0,0.8,0.1,1.1H99.4c-2.9,0-5.3,2.4-5.3,5.3v2.2c0,0.5,0.1,1,0.2,1.5H74.8c-2.2,0-4,1.3-4.9,3.2c0.6,0.3,1.3,0.4,2.1,0.4
			h24.9v-0.3c0-2.9,2.4-5.3,5.3-5.3H129c0-0.4-0.1-0.7-0.1-1.1c0-5.2,4.2-9.3,9.3-9.3c0.6,0,1.2,0.1,1.8,0.2
			c1.3-6.9,7.4-12.2,14.7-12.2c3.9,0,7.4,1.5,10.1,3.9c0-0.3,0-0.5,0-0.8c0-14.2,11.5-25.8,25.8-25.8c9.5,0,17.9,5.2,22.3,12.9
			C212.5,106.9,211.9,105.3,211.2,103.8z"/>
		<path class="st13" d="M298.3,132.3c-0.5-1-1.2-1.8-2.1-2.5c-1.2-0.9-2.7-1.5-4.3-1.5h-44.7c0,0,1-6.9-1.6-12.6
			c-2.8-6.3-11.5-9.2-18.9-9.2c-4.7,0-9.1,1.6-12.6,4.3c-0.2,0.2-0.5,0.3-0.7,0.5c-0.1-0.9-0.3-1.9-0.5-2.8
			c-4.5-7.7-12.8-12.9-22.3-12.9c-14.2,0-25.8,11.5-25.8,25.8c0,0.3,0,0.5,0,0.8c-2.7-2.4-6.2-3.9-10.1-3.9
			c-7.3,0-13.4,5.2-14.7,12.2c-0.6-0.1-1.2-0.2-1.8-0.2c-5.1,0-9.3,4.2-9.3,9.3c0,0.4,0,0.8,0.1,1.1h-26.8c-2.9,0-5.3,2.4-5.3,5.3
			v0.3H72c-0.7,0-1.4-0.1-2.1-0.4c-0.3,0.7-0.5,1.4-0.5,2.2c0,1.1,0.3,2.1,0.9,3c0.6,0.8,1.4,1.5,2.4,1.9c0.6,0.3,1.3,0.4,2.1,0.4
			H124c1.6,5.7,6.8,9.8,13,9.8c6.2,0,11.4-4.2,13-9.8h6.3c0,0.9,0.1,1.8,0.2,2.6c3.1,4.5,8.2,7.4,14.1,7.4c9.3,0,16.8-7.4,17.1-16.6
			c2,7,9.1,11.4,16.3,9.8c5.5-1.2,9.5-5.5,10.6-10.6c1.2,0.4,2.6,0.7,4,0.7c2.9,0,5.6-1.1,7.7-2.8h36.6c3.6,0,6.4-2.9,6.4-6.4
			c0-0.6-0.1-1.2-0.3-1.8H289c0.7,0,1.4-0.1,2.1-0.3h3.5c1.6,0,3.1,0.5,4.3,1.5c0.1-0.4,0.1-0.9,0.1-1.3
			C299.1,134.4,298.8,133.3,298.3,132.3z"/>
		<path class="st14" d="M294.6,135.4l-25.6,0.3c0.2,0.6,0.3,1.2,0.3,1.8c0,3.6-2.9,6.4-6.4,6.4h-36.6c-2.1,1.8-4.8,2.8-7.7,2.8
			c-1.4,0-2.7-0.2-4-0.7c-1.1,5.1-5.1,9.4-10.6,10.6c-7.2,1.6-14.4-2.8-16.3-9.8c-0.3,9.2-7.8,16.6-17.1,16.6
			c-5.9,0-11-2.9-14.1-7.4c0.2,1.6,0.7,3.1,1.3,4.5l0,0h0c0.4,0.9,0.9,1.8,1.5,2.6c0,0,0,0,0,0c0,0,0,0,0,0
			c3.1,4.5,8.2,7.4,14.1,7.4c9.3,0,16.8-7.4,17.1-16.6c2,7,9.1,11.4,16.3,9.8c5.5-1.2,9.5-5.5,10.6-10.6c1.2,0.4,2.6,0.7,4,0.7
			c2.9,0,5.6-1.1,7.7-2.8h36.6c3.5,0,6.4-2.9,6.4-6.4c0-0.6-0.1-1.2-0.3-1.8h20.1c3.5,0,6.5-2.6,7.1-5.9
			C297.7,136,296.2,135.4,294.6,135.4z"/>
		<path class="st15" d="M291.8,128.4h-44.5c0-0.4,0.1-0.7,0.1-1.1c0-11.5-9.3-20.7-20.7-20.7c-5,0-9.7,1.8-13.3,4.8
			c-1.5-12.8-12.4-22.7-25.6-22.7c-14.2,0-25.8,11.5-25.8,25.8c0,0.3,0,0.5,0,0.8c-2.7-2.4-6.2-3.9-10.1-3.9
			c-7.3,0-13.4,5.2-14.7,12.2c-0.6-0.1-1.1-0.2-1.7-0.2c-5.1,0-9.3,4.2-9.3,9.3c0,0.4,0,0.8,0.1,1.1H99.4c-2.9,0-5.3,2.4-5.3,5.3
			v2.2c0,0.5,0.1,1,0.3,1.5H74.8c-2.9,0-5.3,2.4-5.3,5.3v0c0,2.9,2.4,5.3,5.3,5.3H124c1.6,5.7,6.8,9.8,13,9.8c6.2,0,11.4-4.2,13-9.8
			h6.3c0,9.4,7.7,17.1,17.1,17.1c9.3,0,16.8-7.4,17.1-16.6c2,7,9.1,11.4,16.3,9.8c5.5-1.2,9.5-5.5,10.6-10.6c1.2,0.4,2.6,0.7,4,0.7
			c2.9,0,5.6-1.1,7.7-2.8h36.6c3.6,0,6.4-2.9,6.4-6.4c0-0.6-0.1-1.3-0.3-1.8h20.1c4,0,7.2-3.2,7.2-7.2v0
			C299.1,131.6,295.8,128.4,291.8,128.4z"/>
	</g>
	<path class="st16" d="M93.3,430.6c0,0,14.7-16.9,36-16.9c22.9,0,25.7,16.9,48.1,16.9c19.3,0,33.1-16.9,33.1-16.9"/>
	<path class="st16" d="M164.2,394.7c0,0,14.7-16.9,36-16.9c22.9,0,25.7,16.9,48.1,16.9c19.3,0,33.1-16.9,33.1-16.9"/>
	<path class="st16" d="M244.9,458.8c0,0,14.7-16.9,36-16.9c22.9,0,25.7,16.9,48.1,16.9c19.3,0,33.1-16.9,33.1-16.9"/>
	<path class="st16" d="M308.6,410.6c0,0,14.7-16.9,36-16.9c22.9,0,25.7,16.9,48.1,16.9c19.3,0,33.1-16.9,33.1-16.9"/>
</g>
</svg>
