<?xml version="1.0" encoding="utf-8"?>
<!-- Generator: Adobe Illustrator 25.0.0, SVG Export Plug-In . SVG Version: 6.00 Build 0)  -->
<svg version="1.0" id="Layer_1" xmlns="http://www.w3.org/2000/svg" xmlns:xlink="http://www.w3.org/1999/xlink" x="0px" y="0px"
	 viewBox="0 0 500 500" style="enable-background:new 0 0 500 500;" xml:space="preserve">
<style type="text/css">
	.st0{fill:#31CB9E;}
	.st1{fill:#FFFFFF;}
</style>
<circle class="st0" cx="250" cy="250" r="250"/>
<g>
	<path class="st1" d="M232.1,250l128,73.3c3.2,1.9,7.4,0.9,9.3-2.3c0.6-1.1,1-2.3,1-3.5V182.4c0-3.7-2.9-6.7-6.6-6.8
		c-1.3,0-2.5,0.3-3.6,1L232.1,250z"/>
	<path class="st1" d="M357.4,144.2l-87.5-64.4c-3.1-2.3-7.4-1.8-9.8,1.3c-0.5,0.7-1,1.5-1.2,2.4l-32,143.4l129.6-71.7
		c3.2-1.6,4.4-5.5,2.8-8.7C358.9,145.6,358.2,144.8,357.4,144.2"/>
	<path class="st1" d="M269.8,420.2l87.6-64.4c3-2.1,3.7-6.2,1.6-9.1c-0.6-0.9-1.4-1.5-2.3-2L227,272.9l32,143.4
		c0.9,3.7,4.6,6,8.3,5.1c0.9-0.2,1.8-0.6,2.5-1.2"/>
	<path class="st1" d="M198.8,247.3l33.3-155.7c0.7-3.6-1.6-7.1-5.2-7.8c-1.8-0.3-3.6,0-5,1.1l-85.3,65.4c-4.4,3.4-6.9,8.6-6.9,14.1
		v165.9c-0.1,5.6,2.5,10.9,6.9,14.3l84.8,65.2c3,2.1,7.1,1.3,9.2-1.7c1-1.5,1.4-3.3,1.1-5L198.8,247.3z"/>
</g>
</svg>
