<?xml version="1.0" encoding="utf-8"?>
<!-- Generator: Adobe Illustrator 25.0.0, SVG Export Plug-In . SVG Version: 6.00 Build 0)  -->
<svg version="1.0" id="katman_1" xmlns="http://www.w3.org/2000/svg" xmlns:xlink="http://www.w3.org/1999/xlink" x="0px" y="0px"
	 viewBox="0 0 500 500" style="enable-background:new 0 0 500 500;" xml:space="preserve">
<style type="text/css">
	.st0{fill:#2775CA;}
	.st1{fill:#FFFFFF;}
</style>
<g>
	<path class="st0" d="M250,500c138.6,0,250-111.5,250-250S388.5,0,250,0S0,111.4,0,250S111.4,500,250,500z"/>
	<path class="st1" d="M318.7,289.6c0-36.5-21.9-49-65.6-54.2c-31.2-4.2-37.5-12.5-37.5-27.1s10.4-23.9,31.2-23.9
		c18.8,0,29.2,6.2,34.4,21.9c1,3.1,4.2,5.2,7.3,5.2h16.7c4.2,0,7.3-3.1,7.3-7.3v-1.1c-4.2-22.9-22.9-40.6-46.9-42.7v-25
		c0-4.2-3.1-7.3-8.3-8.3h-15.6c-4.2,0-7.3,3.1-8.3,8.3v23.9c-31.2,4.2-51,25-51,51.1c0,34.4,20.8,47.9,64.6,53.1
		c29.2,5.2,38.5,11.5,38.5,28.1s-14.6,28.1-34.4,28.1c-27.1,0-36.5-11.5-39.6-27.1c-1-4.2-4.2-6.2-7.3-6.2h-17.7
		c-4.2,0-7.3,3.1-7.3,7.3v1c4.2,26,20.8,44.8,55.2,50v25c0,4.2,3.1,7.3,8.3,8.3h15.6c4.2,0,7.3-3.1,8.3-8.3v-25
		C297.9,339.6,318.7,317.7,318.7,289.6L318.7,289.6z"/>
	<path class="st1" d="M196.9,398.9c-81.2-29.2-122.9-119.8-92.7-200c15.6-43.8,50-77.1,92.7-92.7c4.2-2.1,6.2-5.2,6.2-10.4V81.2
		c0-4.2-2.1-7.3-6.2-8.3c-1,0-3.1,0-4.2,1.1c-99,31.2-153.1,136.4-121.9,235.4c18.8,58.3,63.5,103.1,121.9,121.9
		c4.2,2.1,8.3,0,9.4-4.2c1-1,1-2.1,1-4.2v-14.6C203.1,405.2,200,401,196.9,398.9z M307.3,73.9c-4.2-2.1-8.3,0-9.4,4.2
		c-1,1.1-1,2.1-1,4.2v14.6c0,4.2,3.1,8.3,6.2,10.4c81.2,29.2,122.9,119.8,92.7,200c-15.6,43.8-50,77.1-92.7,92.7
		c-4.2,2.1-6.2,5.2-6.2,10.4V425c0,4.2,2.1,7.3,6.2,8.3c1,0,3.1,0,4.2-1c99-31.2,153.1-136.5,121.9-235.4
		C410.4,137.5,364.6,92.7,307.3,73.9L307.3,73.9z"/>
</g>
</svg>
