<?xml version="1.0" encoding="utf-8"?>
<!-- Generator: Adobe Illustrator 25.4.1, SVG Export Plug-In . SVG Version: 6.00 Build 0)  -->
<svg version="1.1" id="Layer_1" xmlns="http://www.w3.org/2000/svg" xmlns:xlink="http://www.w3.org/1999/xlink" x="0px" y="0px"
	 viewBox="0 0 500 500" style="enable-background:new 0 0 500 500;" xml:space="preserve">
<style type="text/css">
	.st0{fill:#53AE94;}
	.st1{fill:#FFFFFF;}
</style>
<g>
	<path class="st0" d="M250,0c138.1,0,250,111.9,250,250S388.1,500,250,500S0,388.1,0,250S111.9,0,250,0"/>
	<path class="st1" d="M280.9,216.7v-37.2h85v-56.7H134.3v56.7h85.1v37.2c-69.1,3.2-121.1,16.9-121.1,33.3s52,30.1,121.1,33.3v119.1
		h61.5V283.2c69-3.2,120.9-16.9,120.9-33.2S349.9,219.9,280.9,216.7 M280.9,273.1L280.9,273.1c-1.7,0.1-10.6,0.6-30.5,0.6
		c-15.9,0-27-0.5-31-0.7v0c-61.1-2.7-106.7-13.3-106.7-26.1s45.6-23.3,106.7-26.1v41.5c4,0.3,15.4,1,31.2,1c19,0,28.5-0.8,30.3-1
		V221c61,2.7,106.4,13.4,106.4,26C387.3,259.7,341.8,270.4,280.9,273.1"/>
</g>
</svg>
