<?xml version="1.0" encoding="utf-8"?>
<!-- Generator: Adobe Illustrator 25.0.0, SVG Export Plug-In . SVG Version: 6.00 Build 0)  -->
<svg version="1.0" id="Layer_1" xmlns="http://www.w3.org/2000/svg" xmlns:xlink="http://www.w3.org/1999/xlink" x="0px" y="0px"
	 viewBox="0 0 500 500" style="enable-background:new 0 0 500 500;" xml:space="preserve">
<style type="text/css">
	.st0{fill:#FFFFFF;}
	.st1{fill:url(#SVGID_1_);}
	.st2{fill:url(#SVGID_2_);}
	.st3{fill:url(#SVGID_3_);}
	.st4{fill:url(#SVGID_4_);}
	.st5{fill:url(#SVGID_5_);}
	.st6{fill:url(#SVGID_6_);}
	.st7{fill:url(#SVGID_7_);}
	.st8{fill:url(#SVGID_8_);}
	.st9{fill:url(#SVGID_9_);}
	.st10{fill:url(#SVGID_10_);}
</style>
<circle class="st0" cx="250" cy="250" r="250"/>
<g>
	<linearGradient id="SVGID_1_" gradientUnits="userSpaceOnUse" x1="98.9237" y1="256.9501" x2="126.8157" y2="256.9501">
		<stop  offset="0" style="stop-color:#CFECFE"/>
		<stop  offset="1" style="stop-color:#006CBB"/>
	</linearGradient>
	<path class="st1" d="M121.5,179.8c-16.8,25.9-3.7,59.4-12.7,87.6c-3.1,9.4-8.8,18.6-9.4,28.9c-1.8,15.8,2,33.6,14.4,44.2
		c-8.2-12.6-9.5-28.6-6.4-43c1.7-9.8,7.6-17.7,10.8-27.2c11.3-31.5-7.9-67,8.6-96.9C124.9,175.4,123.1,177.5,121.5,179.8z"/>
	<linearGradient id="SVGID_2_" gradientUnits="userSpaceOnUse" x1="250.2158" y1="198.0864" x2="371.0075" y2="198.0864">
		<stop  offset="0" style="stop-color:#CFECFE"/>
		<stop  offset="1" style="stop-color:#006CBB"/>
	</linearGradient>
	<path class="st2" d="M363.6,246.1c8.9-19.5,20.4-76.7-35.7-96c-38.6,0-61.4,2.3-77.6,5.8C303.7,161.8,366,175.7,363.6,246.1z"/>
	<linearGradient id="SVGID_3_" gradientUnits="userSpaceOnUse" x1="139.0487" y1="150.8576" x2="306.2728" y2="150.8576">
		<stop  offset="0" style="stop-color:#CFECFE"/>
		<stop  offset="1" style="stop-color:#006CBB"/>
	</linearGradient>
	<path class="st3" d="M306.3,145.6c-59.9-16.7-133.3-5.5-167.2,18.5c28.7-10.7,68.9-8.2,94.7-8.6C241.3,152,252.6,145.5,306.3,145.6
		z"/>
	<linearGradient id="SVGID_4_" gradientUnits="userSpaceOnUse" x1="336.5641" y1="250.9174" x2="376.9904" y2="250.9174">
		<stop  offset="0" style="stop-color:#CFECFE"/>
		<stop  offset="1" style="stop-color:#006CBB"/>
	</linearGradient>
	<path class="st4" d="M339.5,198.9c4.8,33.4-6.4,44.1-1.8,71.7c5.7,4.8,26.3,21.8,39.3,32.3c-1.5-2.8-20.2-20.7-19.9-56.6
		C357.2,228.9,351.2,208.4,339.5,198.9z"/>
	<linearGradient id="SVGID_5_" gradientUnits="userSpaceOnUse" x1="129.7027" y1="376.5891" x2="317.6425" y2="376.5891">
		<stop  offset="0" style="stop-color:#CFECFE"/>
		<stop  offset="1" style="stop-color:#006CBB"/>
	</linearGradient>
	<path class="st5" d="M269.2,367.8c-49.6,9.2-95,5.3-139.5-15.5c54.7,39.4,118.3,54,187.9,46.9C294.9,390.5,283.4,380.8,269.2,367.8
		z"/>
	<linearGradient id="SVGID_6_" gradientUnits="userSpaceOnUse" x1="278.6682" y1="340.7599" x2="387.4416" y2="340.7599">
		<stop  offset="0" style="stop-color:#CFECFE"/>
		<stop  offset="1" style="stop-color:#006CBB"/>
	</linearGradient>
	<path class="st6" d="M278.7,365.9c17.3,12.5,35.7,23.1,63.7,34.8c28.9-3.4,59.8-35.1,37.4-82.5c-11.3-23.8-30.8-30.6-40.9-37.5
		c0.1,0.5,12.6,34.1,6.7,63.4C342.2,361,307.4,372,278.7,365.9z"/>
	<linearGradient id="SVGID_7_" gradientUnits="userSpaceOnUse" x1="198.6066" y1="109.0146" x2="246.2802" y2="109.0146">
		<stop  offset="0" style="stop-color:#CFECFE"/>
		<stop  offset="1" style="stop-color:#006CBB"/>
	</linearGradient>
	<path class="st7" d="M246.3,84.2c-4.4,8.2-30.6,37.1-47.7,49.7C198.6,133.9,240.6,117.4,246.3,84.2z"/>
	<linearGradient id="SVGID_8_" gradientUnits="userSpaceOnUse" x1="253.3545" y1="110.0056" x2="294.1218" y2="110.0056">
		<stop  offset="0" style="stop-color:#CFECFE"/>
		<stop  offset="1" style="stop-color:#006CBB"/>
	</linearGradient>
	<path class="st8" d="M294.1,134.3c0,0-24.8-13.7-40.7-48.6c0,0-1.4,27.3,12,48.6H294.1z"/>
	<linearGradient id="SVGID_9_" gradientUnits="userSpaceOnUse" x1="240.667" y1="236.4638" x2="256.6763" y2="236.4638">
		<stop  offset="0" style="stop-color:#CFECFE"/>
		<stop  offset="1" style="stop-color:#006CBB"/>
	</linearGradient>
	<ellipse class="st9" cx="256.6" cy="236.5" rx="4.9" ry="7.5"/>
	<linearGradient id="SVGID_10_" gradientUnits="userSpaceOnUse" x1="140.7317" y1="236.4638" x2="150.4417" y2="236.4638">
		<stop  offset="0" style="stop-color:#CFECFE"/>
		<stop  offset="1" style="stop-color:#006CBB"/>
	</linearGradient>
	<ellipse class="st10" cx="156.5" cy="236.5" rx="4.9" ry="7.5"/>
</g>
</svg>
